<svg width="76" height="76" viewBox="0 0 76 76" fill="none" xmlns="http://www.w3.org/2000/svg">
<path d="M1.6342 21.8203C-3.84238 35.4619 5.0093 57.1733 19.7833 67.1003C34.5574 77.0273 55.1901 75.2341 66.0796 65.8834C76.969 56.5328 78.1153 39.6249 73.2755 26.8158C68.4358 14.0708 57.61 5.42468 42.2628 3.95164C26.9156 2.47859 7.11078 8.17863 1.6342 21.8203Z" fill="#F7C7C4"/>
<path fill-rule="evenodd" clip-rule="evenodd" d="M60.5 45C60.5 46.6569 59.1569 48 57.5 48H51.5H24.5H18.5C16.8431 48 15.5 46.6569 15.5 45V39V30V24C15.5 22.3431 16.8431 21 18.5 21H24.5H51.5H57.5C59.1569 21 60.5 22.3431 60.5 24V30V39V45ZM18.5 40.6905V45H22.8095C22.7396 44.7293 22.6507 44.4633 22.5433 44.2039C22.2417 43.4759 21.7998 42.8145 21.2426 42.2574C20.6855 41.7002 20.0241 41.2583 19.2961 40.9567C19.0367 40.8493 18.7707 40.7604 18.5 40.6905ZM25.8741 45C25.7616 44.3346 25.5744 43.6823 25.3149 43.0558C24.8626 41.9639 24.1997 40.9718 23.364 40.136C22.5282 39.3003 21.5361 38.6374 20.4442 38.1851C19.8177 37.9256 19.1654 37.7384 18.5 37.6259V31.3741C19.1654 31.2616 19.8177 31.0744 20.4442 30.8149C21.5361 30.3626 22.5282 29.6997 23.364 28.864C24.1997 28.0282 24.8626 27.0361 25.3149 25.9442C25.5744 25.3177 25.7616 24.6654 25.8741 24H50.1258C50.4352 25.8305 51.306 27.5339 52.636 28.864C53.9661 30.194 55.6695 31.0648 57.5 31.3742V37.6258C55.6695 37.9352 53.9661 38.806 52.636 40.136C51.306 41.4661 50.4352 43.1695 50.1258 45H25.8741ZM57.5 45H53.1905C53.4562 43.971 53.993 43.0217 54.7574 42.2574C55.5217 41.493 56.471 40.9562 57.5 40.6905V45ZM22.8095 24H18.5V28.3095C18.7707 28.2396 19.0367 28.1507 19.2961 28.0433C20.0241 27.7417 20.6855 27.2998 21.2426 26.7426C21.7998 26.1855 22.2417 25.5241 22.5433 24.7961C22.6507 24.5367 22.7396 24.2707 22.8095 24ZM54.7574 26.7426C55.5217 27.507 56.471 28.0438 57.5 28.3095V24H53.1905C53.4562 25.029 53.993 25.9783 54.7574 26.7426ZM21.5 53.5C21.5 52.6716 22.1716 52 23 52H53C53.8284 52 54.5 52.6716 54.5 53.5C54.5 54.3284 53.8284 55 53 55H23C22.1716 55 21.5 54.3284 21.5 53.5ZM32 34.5C32 31.1863 34.6863 28.5 38 28.5C41.3137 28.5 44 31.1863 44 34.5C44 37.8137 41.3137 40.5 38 40.5C34.6863 40.5 32 37.8137 32 34.5ZM38 25.5C33.0294 25.5 29 29.5294 29 34.5C29 39.4706 33.0294 43.5 38 43.5C42.9706 43.5 47 39.4706 47 34.5C47 29.5294 42.9706 25.5 38 25.5Z" fill="#888888"/>
</svg>
