<svg width="72" height="72" viewBox="0 0 72 72" fill="none" xmlns="http://www.w3.org/2000/svg">
<g opacity="0.5">
<circle cx="36" cy="70" r="2" transform="rotate(-90 36 70)" fill="#EE9591"/>
<circle cx="45" cy="70" r="2" transform="rotate(-90 45 70)" fill="#EE9591"/>
<circle cx="53" cy="70" r="2" transform="rotate(-90 53 70)" fill="#EE9591"/>
<circle cx="62" cy="70" r="2" transform="rotate(-90 62 70)" fill="#EE9591"/>
<circle cx="70" cy="70" r="2" transform="rotate(-90 70 70)" fill="#EE9591"/>
<circle cx="36" cy="61" r="2" transform="rotate(-90 36 61)" fill="#EE9591"/>
<circle cx="45" cy="61" r="2" transform="rotate(-90 45 61)" fill="#EE9591"/>
<circle cx="53" cy="61" r="2" transform="rotate(-90 53 61)" fill="#EE9591"/>
<circle cx="62" cy="61" r="2" transform="rotate(-90 62 61)" fill="#EE9591"/>
<circle cx="70" cy="61" r="2" transform="rotate(-90 70 61)" fill="#EE9591"/>
<circle cx="36" cy="53" r="2" transform="rotate(-90 36 53)" fill="#EE9591"/>
<circle cx="45" cy="53" r="2" transform="rotate(-90 45 53)" fill="#EE9591"/>
<circle cx="53" cy="53" r="2" transform="rotate(-90 53 53)" fill="#EE9591"/>
<circle cx="62" cy="53" r="2" transform="rotate(-90 62 53)" fill="#EE9591"/>
<circle cx="70" cy="53" r="2" transform="rotate(-90 70 53)" fill="#EE9591"/>
<circle cx="36" cy="44" r="2" transform="rotate(-90 36 44)" fill="#EE9591"/>
<circle cx="45" cy="44" r="2" transform="rotate(-90 45 44)" fill="#EE9591"/>
<circle cx="53" cy="44" r="2" transform="rotate(-90 53 44)" fill="#EE9591"/>
<circle cx="62" cy="44" r="2" transform="rotate(-90 62 44)" fill="#EE9591"/>
<circle cx="70" cy="44" r="2" transform="rotate(-90 70 44)" fill="#EE9591"/>
<circle cx="2" cy="36" r="2" transform="rotate(-90 2 36)" fill="#EE9591"/>
<circle cx="11" cy="36" r="2" transform="rotate(-90 11 36)" fill="#EE9591"/>
<circle cx="19" cy="36" r="2" transform="rotate(-90 19 36)" fill="#EE9591"/>
<circle cx="28" cy="36" r="2" transform="rotate(-90 28 36)" fill="#EE9591"/>
<circle cx="36" cy="36" r="2" transform="rotate(-90 36 36)" fill="#EE9591"/>
<circle cx="45" cy="36" r="2" transform="rotate(-90 45 36)" fill="#EE9591"/>
<circle cx="53" cy="36" r="2" transform="rotate(-90 53 36)" fill="#EE9591"/>
<circle cx="62" cy="36" r="2" transform="rotate(-90 62 36)" fill="#EE9591"/>
<circle cx="70" cy="36" r="2" transform="rotate(-90 70 36)" fill="#EE9591"/>
<circle cx="2" cy="27" r="2" transform="rotate(-90 2 27)" fill="#EE9591"/>
<circle cx="11" cy="27" r="2" transform="rotate(-90 11 27)" fill="#EE9591"/>
<circle cx="19" cy="27" r="2" transform="rotate(-90 19 27)" fill="#EE9591"/>
<circle cx="28" cy="27" r="2" transform="rotate(-90 28 27)" fill="#EE9591"/>
<circle cx="36" cy="27" r="2" transform="rotate(-90 36 27)" fill="#EE9591"/>
<circle cx="45" cy="27" r="2" transform="rotate(-90 45 27)" fill="#EE9591"/>
<circle cx="53" cy="27" r="2" transform="rotate(-90 53 27)" fill="#EE9591"/>
<circle cx="62" cy="27" r="2" transform="rotate(-90 62 27)" fill="#EE9591"/>
<circle cx="70" cy="27" r="2" transform="rotate(-90 70 27)" fill="#EE9591"/>
<circle cx="2" cy="19" r="2" transform="rotate(-90 2 19)" fill="#EE9591"/>
<circle cx="11" cy="19" r="2" transform="rotate(-90 11 19)" fill="#EE9591"/>
<circle cx="19" cy="19" r="2" transform="rotate(-90 19 19)" fill="#EE9591"/>
<circle cx="28" cy="19" r="2" transform="rotate(-90 28 19)" fill="#EE9591"/>
<circle cx="36" cy="19" r="2" transform="rotate(-90 36 19)" fill="#EE9591"/>
<circle cx="45" cy="19" r="2" transform="rotate(-90 45 19)" fill="#EE9591"/>
<circle cx="53" cy="19" r="2" transform="rotate(-90 53 19)" fill="#EE9591"/>
<circle cx="62" cy="19" r="2" transform="rotate(-90 62 19)" fill="#EE9591"/>
<circle cx="70" cy="19" r="2" transform="rotate(-90 70 19)" fill="#EE9591"/>
<circle cx="2" cy="10" r="2" transform="rotate(-90 2 10)" fill="#EE9591"/>
<circle cx="11" cy="10" r="2" transform="rotate(-90 11 10)" fill="#EE9591"/>
<circle cx="19" cy="10" r="2" transform="rotate(-90 19 10)" fill="#EE9591"/>
<circle cx="28" cy="10" r="2" transform="rotate(-90 28 10)" fill="#EE9591"/>
<circle cx="36" cy="10" r="2" transform="rotate(-90 36 10)" fill="#EE9591"/>
<circle cx="45" cy="10" r="2" transform="rotate(-90 45 10)" fill="#EE9591"/>
<circle cx="53" cy="10" r="2" transform="rotate(-90 53 10)" fill="#EE9591"/>
<circle cx="62" cy="10" r="2" transform="rotate(-90 62 10)" fill="#EE9591"/>
<circle cx="70" cy="10" r="2" transform="rotate(-90 70 10)" fill="#EE9591"/>
<circle cx="2" cy="2" r="2" transform="rotate(-90 2 2)" fill="#EE9591"/>
<circle cx="11" cy="2" r="2" transform="rotate(-90 11 2)" fill="#EE9591"/>
<circle cx="19" cy="2" r="2" transform="rotate(-90 19 2)" fill="#EE9591"/>
<circle cx="28" cy="2" r="2" transform="rotate(-90 28 2)" fill="#EE9591"/>
<circle cx="36" cy="2" r="2" transform="rotate(-90 36 2)" fill="#EE9591"/>
<circle cx="45" cy="2" r="2" transform="rotate(-90 45 2)" fill="#EE9591"/>
<circle cx="53" cy="2" r="2" transform="rotate(-90 53 2)" fill="#EE9591"/>
<circle cx="62" cy="2" r="2" transform="rotate(-90 62 2)" fill="#EE9591"/>
<circle cx="70" cy="2" r="2" transform="rotate(-90 70 2)" fill="#EE9591"/>
</g>
</svg>
