<svg width="76" height="76" viewBox="0 0 76 76" fill="none" xmlns="http://www.w3.org/2000/svg">
<path d="M74.3658 21.8203C79.8424 35.4619 70.9907 57.1733 56.2167 67.1003C41.4426 77.0273 20.8099 75.2341 9.92045 65.8834C-0.969034 56.5328 -2.11529 39.6249 2.72448 26.8158C7.56424 14.0708 18.39 5.42468 33.7372 3.95164C49.0844 2.47859 68.8892 8.17863 74.3658 21.8203Z" fill="#F7C7C4"/>
<path fill-rule="evenodd" clip-rule="evenodd" d="M20 39C20 29.0589 28.0589 21 38 21C47.9411 21 56 29.0589 56 39C56 48.9411 47.9411 57 38 57C28.0589 57 20 48.9411 20 39ZM38 18C26.402 18 17 27.402 17 39C17 50.598 26.402 60 38 60C49.598 60 59 50.598 59 39C59 27.402 49.598 18 38 18ZM33.5 36.75C33.5 37.9926 32.4926 39 31.25 39C30.0074 39 29 37.9926 29 36.75C29 35.5074 30.0074 34.5 31.25 34.5C32.4926 34.5 33.5 35.5074 33.5 36.75ZM29.0319 44.4534C30.1653 48.2315 33.7466 51 38.0047 51C42.2628 51 45.845 48.2315 46.9691 44.4534C47.0008 44.341 47.0058 44.2227 46.9837 44.108C46.9616 43.9933 46.913 43.8853 46.8418 43.7927C46.7706 43.7001 46.6787 43.6254 46.5735 43.5746C46.4683 43.5238 46.3528 43.4982 46.2359 43.5H29.765C29.6482 43.4982 29.5326 43.5238 29.4274 43.5746C29.3222 43.6254 29.2304 43.7001 29.1592 43.7927C29.088 43.8853 29.0394 43.9933 29.0173 44.108C28.9952 44.2227 29.0002 44.341 29.0319 44.4534ZM44.75 39C45.9926 39 47 37.9926 47 36.75C47 35.5074 45.9926 34.5 44.75 34.5C43.5074 34.5 42.5 35.5074 42.5 36.75C42.5 37.9926 43.5074 39 44.75 39Z" fill="#888888"/>
</svg>
