<svg width="76" height="77" viewBox="0 0 76 77" fill="none" xmlns="http://www.w3.org/2000/svg">
<path d="M62.4298 13.009C68.7005 19.522 73.5461 26.4629 74.8762 34.0693C76.2063 41.6282 73.9736 49.8526 70.0782 57.5541C66.2303 65.2556 60.6722 72.4817 53.3564 75.3817C46.0406 78.2816 36.9671 76.9029 27.7036 74.2407C18.4876 71.5784 9.08157 67.6802 4.61608 60.6442C0.150598 53.5607 0.625649 43.3396 3.23843 34.3545C5.80371 25.3219 10.5542 17.5729 17.1574 11.1074C23.7607 4.68949 32.2641 -0.444848 40.34 0.0305536C48.4158 0.505955 56.1117 6.54355 62.4298 13.009Z" fill="#F7C7C4"/>
<path fill-rule="evenodd" clip-rule="evenodd" d="M27 20C25.5081 20 24.138 20.4059 23.0532 21.3072C21.9725 22.2049 21.316 23.477 21.0296 24.9532L18.0387 39.16C18.0134 39.2693 18 39.3831 18 39.5V50L18 50.0044C18.0046 51.5931 18.6378 53.1154 19.7612 54.2388C20.8846 55.3622 22.4069 55.9954 23.9956 56L24 56H54L54.0044 56C55.5931 55.9954 57.1154 55.3622 58.2388 54.2388C59.3622 53.1154 59.9954 51.5931 60 50.0044L60 50V39.5C60 39.3831 59.9866 39.2693 59.9613 39.1601L56.9714 24.958C56.6826 23.4183 55.9929 22.14 54.8923 21.2562C53.7945 20.3746 52.4307 20 51 20H27ZM45 38H56.6513L54.0322 25.559C54.0297 25.5471 54.0273 25.5351 54.0251 25.5231C53.843 24.54 53.4557 23.9501 53.0139 23.5954C52.5649 23.2348 51.9131 23 51 23H27C26.0544 23 25.4088 23.2504 24.9702 23.6147C24.5308 23.9798 24.1568 24.5777 23.973 25.5333L23.9678 25.559L21.3487 38H33C33.8284 38 34.5 38.6716 34.5 39.5C34.5 40.6935 34.9741 41.8381 35.818 42.682C36.6619 43.5259 37.8065 44 39 44C40.1935 44 41.3381 43.5259 42.182 42.682C43.0259 41.8381 43.5 40.6935 43.5 39.5C43.5 38.6716 44.1716 38 45 38ZM46.3485 41C46.0565 42.4302 45.3509 43.7557 44.3033 44.8033C42.8968 46.2098 40.9891 47 39 47C37.0109 47 35.1032 46.2098 33.6967 44.8033C32.6491 43.7557 31.9435 42.4302 31.6515 41H21V49.9976C21.0028 50.793 21.32 51.555 21.8825 52.1175C22.445 52.68 23.2071 52.9972 24.0026 53H53.9974C54.7929 52.9972 55.555 52.68 56.1175 52.1175C56.68 51.555 56.9972 50.7929 57 49.9974V41H46.3485ZM27 27.5C27 26.6716 27.6716 26 28.5 26H49.5C50.3284 26 51 26.6716 51 27.5C51 28.3284 50.3284 29 49.5 29H28.5C27.6716 29 27 28.3284 27 27.5ZM27 32C26.1716 32 25.5 32.6716 25.5 33.5C25.5 34.3284 26.1716 35 27 35H51C51.8284 35 52.5 34.3284 52.5 33.5C52.5 32.6716 51.8284 32 51 32H27Z" fill="#888888"/>
</svg>
