<svg width="76" height="76" viewBox="0 0 76 76" fill="none" xmlns="http://www.w3.org/2000/svg">
<path d="M1.6342 21.8203C-3.84238 35.4619 5.0093 57.1733 19.7833 67.1003C34.5574 77.0273 55.1901 75.2341 66.0796 65.8834C76.969 56.5328 78.1153 39.6249 73.2755 26.8158C68.4358 14.0708 57.61 5.42468 42.2628 3.95164C26.9156 2.47859 7.11078 8.17863 1.6342 21.8203Z" fill="#F7C7C4"/>
<path fill-rule="evenodd" clip-rule="evenodd" d="M27.5 29C27.5 23.201 32.201 18.5 38 18.5C43.799 18.5 48.5 23.201 48.5 29C48.5 30.8216 48.0362 32.5348 47.2201 34.028C47.1032 34.1656 47.0133 34.322 46.9529 34.4888C45.447 36.9399 42.9627 38.7253 40.044 39.3012C40.0135 39.3061 39.9831 39.3119 39.953 39.3187C39.3202 39.4377 38.6674 39.5 38 39.5C32.201 39.5 27.5 34.799 27.5 29ZM51.5 29C51.5 31.1624 50.9916 33.2061 50.0877 35.018L58.8122 50.7733C59.0702 51.2391 59.0619 51.8067 58.7904 52.2647C58.519 52.7227 58.0251 53.0026 57.4927 53L49.3493 52.9606L45.2882 59.7685C45.0023 60.2478 44.4739 60.5287 43.9166 60.4977C43.3594 60.4667 42.8654 60.1288 42.6344 59.6207L38.0001 49.4251L33.3655 59.6207C33.1346 60.1288 32.6406 60.4667 32.0834 60.4977C31.5261 60.5287 30.9977 60.2478 30.7118 59.7685L26.6507 52.9606L18.5073 53C17.9745 53.0026 17.4803 52.7224 17.209 52.2638C16.9378 51.8053 16.93 51.2373 17.1887 50.7716L25.9255 35.0445C25.0134 33.226 24.5 31.173 24.5 29C24.5 21.5442 30.5442 15.5 38 15.5C45.4558 15.5 51.5 21.5442 51.5 29ZM41.3368 42.0845C44.0513 41.3943 46.4374 39.8817 48.2142 37.8275L54.9479 49.9876L49.3645 49.9606H49.3641C48.8424 49.9581 48.3291 50.0916 47.8747 50.348C47.4203 50.6045 47.0406 50.9751 46.7732 51.4231L46.773 51.4234L44.1798 55.7706L39.6478 45.8002L41.3368 42.0845ZM37.8529 42.4992L36.6448 45.1569C36.638 45.1714 36.6313 45.186 36.6249 45.2007L31.8202 55.7707L29.2268 51.4231C28.9594 50.9751 28.5797 50.6045 28.1253 50.348C27.6709 50.0916 27.1576 49.9581 26.6359 49.9606H26.6355L21.0561 49.9876L27.8013 37.8455C30.2467 40.6625 33.8398 42.4564 37.8529 42.4992ZM33.5 29C33.5 26.5147 35.5147 24.5 38 24.5C40.4853 24.5 42.5 26.5147 42.5 29C42.5 31.4853 40.4853 33.5 38 33.5C35.5147 33.5 33.5 31.4853 33.5 29ZM38 21.5C33.8579 21.5 30.5 24.8579 30.5 29C30.5 33.1421 33.8579 36.5 38 36.5C42.1421 36.5 45.5 33.1421 45.5 29C45.5 24.8579 42.1421 21.5 38 21.5Z" fill="#888888"/>
</svg>
