<svg width="76" height="77" viewBox="0 0 76 77" fill="none" xmlns="http://www.w3.org/2000/svg">
<path d="M62.4298 13.009C68.7005 19.522 73.5461 26.4629 74.8762 34.0693C76.2063 41.6282 73.9736 49.8526 70.0782 57.5541C66.2303 65.2556 60.6722 72.4817 53.3564 75.3817C46.0406 78.2816 36.9671 76.9029 27.7036 74.2407C18.4876 71.5784 9.08157 67.6802 4.61608 60.6442C0.150598 53.5607 0.625649 43.3396 3.23843 34.3545C5.80371 25.3219 10.5542 17.5729 17.1574 11.1074C23.7607 4.68949 32.2641 -0.444848 40.34 0.0305536C48.4158 0.505955 56.1117 6.54355 62.4298 13.009Z" fill="#F7C7C4"/>
<path fill-rule="evenodd" clip-rule="evenodd" d="M28.9137 22C23.0898 22 18.5586 26.8568 18.5001 32.5606L18.5001 32.5608C18.479 34.6584 18.7796 36.634 19.3417 38.5H18.5C17.6716 38.5 17 39.1716 17 40C17 40.8284 17.6716 41.5 18.5 41.5H20.505C23.6287 48.057 29.9589 53.1681 36.3125 57.4805C36.8101 57.8191 37.3981 58.0001 38 58.0001C38.6019 58.0001 39.1899 57.8191 39.6875 57.4805C45.0375 53.8489 50.3712 49.6509 53.7876 44.5H57.5C58.3284 44.5 59 43.8284 59 43C59 42.1716 58.3284 41.5 57.5 41.5H55.4944C56.7885 38.7838 57.5324 35.8195 57.4999 32.561L57.4999 32.5606C57.4414 26.8568 52.9102 22 47.0863 22C43.5115 22 40.882 23.7695 39.2039 25.4355C38.7367 25.8994 38.3357 26.3622 38 26.7888C37.6643 26.3622 37.2633 25.8994 36.7961 25.4355C35.118 23.7695 32.4885 22 28.9137 22ZM52.1114 41.5C53.6521 38.7801 54.5324 35.8347 54.5001 32.5909C54.4571 28.4193 51.1546 25 47.0863 25C44.5748 25 42.6612 26.2305 41.3176 27.5645C40.6491 28.2283 40.1456 28.8959 39.8105 29.3966C39.6439 29.6458 39.5211 29.8502 39.4426 29.9874C39.4034 30.0559 39.3753 30.1074 39.3584 30.139C39.35 30.1548 39.3444 30.1656 39.3416 30.171L39.3398 30.1745L36.8879 30.5066C36.7986 30.4081 36.7218 30.2968 36.6602 30.1746L36.6584 30.171L36.6493 30.1536L36.6416 30.139C36.6247 30.1074 36.5966 30.0559 36.5574 29.9874C36.4788 29.8502 36.3561 29.6458 36.1895 29.3966C35.8544 28.8959 35.3509 28.2283 34.6824 27.5645C33.3388 26.2305 31.4252 25 28.9137 25C24.8453 25 21.5428 28.4193 21.4999 32.591L31.7196 31.2067L32.1584 30.3292C32.4334 29.7791 33.0163 29.4527 33.629 29.5056C34.2417 29.5584 34.76 29.9799 34.9367 30.569L34.995 30.763L36.8879 30.5066C36.8879 30.5066 36.8879 30.5067 36.8879 30.5067L34.995 30.7631L38.3499 41.9461L41.1584 36.3292C41.4124 35.821 41.9318 35.5 42.5 35.5C43.0682 35.5 43.5876 35.821 43.8416 36.3292L46.427 41.5H52.1114ZM31.7195 31.2068L21.4999 32.5913C21.479 34.6779 21.8357 36.641 22.5029 38.5H28.0729L31.7195 31.2068ZM23.888 41.5C26.7997 46.6404 32.0707 50.9758 37.9986 54.9992L38 55.0001L38.0013 54.9992C42.7397 51.7828 47.0586 48.3671 50.0882 44.5H45.5C44.9318 44.5 44.4124 44.179 44.1584 43.6708L42.5 40.3541L39.3416 46.6708C39.0666 47.2209 38.4837 47.5473 37.871 47.4944C37.2583 47.4416 36.74 47.0201 36.5633 46.431L33.1501 35.0539L30.3416 40.6708C30.0876 41.179 29.5682 41.5 29 41.5H23.888ZM36.8879 30.5067L39.3398 30.1745C39.085 30.6805 38.5668 31 38 31C37.5701 31 37.1682 30.8162 36.8879 30.5067Z" fill="#888888"/>
</svg>
