<svg width="76" height="76" viewBox="0 0 76 76" fill="none" xmlns="http://www.w3.org/2000/svg">
<path d="M74.3658 21.8203C79.8424 35.4619 70.9907 57.1733 56.2167 67.1003C41.4426 77.0273 20.8099 75.2341 9.92045 65.8834C-0.969034 56.5328 -2.11529 39.6249 2.72448 26.8158C7.56424 14.0708 18.39 5.42468 33.7372 3.95164C49.0844 2.47859 68.8892 8.17863 74.3658 21.8203Z" fill="#F7C7C4"/>
<path fill-rule="evenodd" clip-rule="evenodd" d="M33.5 17C33.0352 17 32.5967 17.2155 32.3126 17.5834C32.0286 17.9513 31.9312 18.4301 32.0489 18.8797C33.1826 23.2121 31.2996 26.9016 28.7207 30.934C28.4317 31.3859 28.1323 31.8448 27.8291 32.3094C26.8257 33.8472 25.7818 35.4469 24.9448 37.0557C23.84 39.1788 23 41.4827 23 44C23 47.9782 24.5804 51.7936 27.3934 54.6066C30.2064 57.4196 34.0218 59 38 59C41.9782 59 45.7936 57.4196 48.6066 54.6066C51.4196 51.7936 53 47.9782 53 44C53 35.3744 49.907 28.6548 45.9553 24.0817C42.0673 19.5825 37.1884 17 33.5 17ZM31.248 32.5504C33.4935 29.0394 35.769 25.019 35.3318 20.2733C37.7597 20.9351 40.893 22.8119 43.6854 26.0433C47.1868 30.0952 50 36.1256 50 44C50 47.1826 48.7357 50.2348 46.4853 52.4853C45.7126 53.258 44.8454 53.9144 43.9109 54.4433C44.9303 52.9555 45.5 50.9682 45.5 48.5C45.5 45.3758 44.0636 42.0657 42.1728 39.5662C41.2169 38.3025 40.1017 37.1871 38.9134 36.3755C37.7392 35.5736 36.391 35 35 35C34.553 35 34.1293 35.1993 33.8444 35.5437C33.5594 35.8881 33.4429 36.3416 33.5265 36.7807C33.7983 38.2077 33.2926 39.4234 32.4189 41.3201L32.3752 41.4149C31.5421 43.2224 30.5 45.4832 30.5 48.5C30.5 50.9682 31.0697 52.9555 32.0891 54.4433C31.1546 53.9144 30.2874 53.258 29.5147 52.4853C27.2643 50.2348 26 47.1826 26 44C26 42.158 26.6131 40.3486 27.606 38.4404C28.3684 36.9754 29.299 35.5485 30.284 34.0383L30.2842 34.038C30.6011 33.5521 30.9237 33.0576 31.248 32.5504ZM35.1959 42.462C35.7434 41.2746 36.3557 39.9468 36.5417 38.4435C36.7588 38.5561 36.9858 38.6919 37.2214 38.8528C38.0898 39.4459 38.9784 40.316 39.7803 41.3761C41.4051 43.524 42.5 46.2138 42.5 48.5C42.5 50.9295 41.8309 52.4003 41.0312 53.2524C40.2316 54.1044 39.1511 54.5 38 54.5C36.8489 54.5 35.7684 54.1044 34.9688 53.2524C34.1691 52.4003 33.5 50.9295 33.5 48.5C33.5 46.1595 34.296 44.4152 35.1436 42.5753L35.1959 42.462Z" fill="#888888"/>
</svg>
