<svg width="143" height="34" viewBox="0 0 143 34" fill="none" xmlns="http://www.w3.org/2000/svg">
<path fill-rule="evenodd" clip-rule="evenodd" d="M34 5.76363C34 4.23489 33.393 2.76911 32.3119 1.68804C31.2308 0.606967 29.7651 0 28.2363 0C21.9734 0 12.0265 0 5.76362 0C4.23489 0 2.76911 0.606967 1.68804 1.68804C0.607595 2.76911 0 4.23489 0 5.76363C0 12.0266 0 21.9734 0 28.2364C0 29.7651 0.607595 31.2309 1.68804 32.312C2.76911 33.393 4.23489 34 5.76362 34C12.0265 34 21.9734 34 28.2363 34C29.7651 34 31.2308 33.393 32.3119 32.312C33.393 31.2309 34 29.7651 34 28.2364V5.76363Z" fill="white"/>
<path fill-rule="evenodd" clip-rule="evenodd" d="M21.0893 11.3156C22.4556 9.94924 22.4555 7.73364 21.0888 6.36704C19.7222 5.00044 17.5066 5.00031 16.1403 6.36663L14.6555 7.8514C13.868 8.63897 13.426 9.70716 13.4259 10.8205C13.4258 11.9346 13.8683 13.0025 14.6556 13.7899L16.6353 15.7695L21.0893 11.3156Z" fill="#EE9591"/>
<path fill-rule="evenodd" clip-rule="evenodd" d="M15.6444 16.7277C15.6444 16.7277 15.0259 16.1091 14.4075 15.4906C14.0794 15.1624 13.6346 14.9782 13.1705 14.9781C12.7067 14.9781 12.2618 15.1623 11.9337 15.4905L11.9336 15.4906C11.2505 16.1737 11.2506 17.2815 11.9335 17.9645L11.934 17.9649C12.6169 18.648 13.7244 18.648 14.4074 17.9649C15.0259 17.3463 15.6444 16.7277 15.6444 16.7277Z" fill="#EE9591"/>
<path fill-rule="evenodd" clip-rule="evenodd" d="M22.0775 22.1666C22.8651 21.379 23.3071 20.3107 23.3074 19.1974C23.3072 18.0836 22.8648 17.0158 22.0775 16.2285L20.098 14.249L11.6865 22.6605C11.0303 23.3168 10.6614 24.2072 10.6615 25.1348C10.6616 26.0633 11.0301 26.953 11.6863 27.6092C13.0528 28.9757 15.2683 28.9758 16.6345 27.6096C18.2512 25.9929 20.3704 23.8736 22.0775 22.1666Z" fill="#EE9591"/>
<path d="M42.086 27.004H39.623C39.623 28.1077 39.9852 28.94 40.7096 29.4828C41.3616 30.0437 42.3757 30.3332 43.7159 30.3332C46.2513 30.3332 48.0985 29.4647 48.0985 27.1125C48.0985 26.4612 47.8812 25.8822 47.4284 25.4117C46.9033 24.9232 45.8348 24.5071 44.2048 24.1814C42.9552 23.9462 42.3395 23.5662 42.3395 23.0777C42.3395 22.5892 42.8104 22.3359 43.7521 22.3359C44.5489 22.3359 45.0379 22.5711 45.2009 22.9872C45.3458 23.3672 45.708 23.5662 46.2694 23.5843H47.7906C47.7363 22.5892 47.356 21.8111 46.6497 21.2502C45.9253 20.7074 44.9474 20.436 43.7159 20.436C41.5245 20.4722 39.8946 21.4493 39.8946 23.5119C39.9127 25.0137 40.9994 25.9546 43.1182 26.3345C44.7663 26.624 45.5993 27.0221 45.5993 27.5106C45.5993 28.1258 45.0922 28.4153 44.0781 28.4153C42.9009 28.4153 42.1403 28.0534 42.086 27.004Z" fill="white"/>
<path d="M49.6828 30.8941V32.8663C49.7552 32.9205 50.0812 32.9386 50.6969 32.9386C52.6891 32.9386 53.2686 32.3958 53.8481 30.8217L57.6331 20.436H55.9489C55.3331 20.436 54.9528 20.7255 54.8079 21.2864L53.1418 27.0763L51.2402 20.436H48.5056L51.7654 29.7904C51.9465 30.4055 51.4757 30.8941 50.3528 30.8941H49.6828Z" fill="white"/>
<path d="M61.6257 28.3791C60.865 28.3791 60.4666 28.0172 60.4123 27.2573C60.4123 26.5516 60.9013 26.0993 61.8611 25.9184C62.5674 25.7736 63.2193 25.5746 63.7808 25.3394V26.226C63.7808 27.583 62.9658 28.3791 61.6257 28.3791ZM62.1871 22.4082C63.1831 22.4082 63.6902 22.6796 63.7445 23.2224C63.7445 23.7471 63.2193 24.0547 62.1871 24.1814C59.7603 24.4166 58.0942 25.0318 58.0399 27.3297C58.0399 29.4466 59.6335 30.5141 61.9335 30.3332C64.5233 30.1522 66.117 28.9762 66.117 26.3345V23.0777C66.0626 21.3045 64.7225 20.436 62.0784 20.436C59.869 20.436 58.6194 21.3045 58.3296 23.0777H60.7383C60.865 22.6253 61.3359 22.4082 62.1871 22.4082Z" fill="white"/>
<path d="M69.7417 17.1307C69.7417 16.3346 69.3432 15.9185 68.5464 15.9185H67.333V25.9784C67.333 28.8553 68.8361 30.2847 71.8243 30.2666C74.7944 30.2123 76.2794 28.602 76.2794 25.4175C76.2794 22.1607 75.0117 20.4961 72.4582 20.4056C71.2629 20.4056 70.3574 20.8942 69.7417 21.8893V17.1307ZM71.7881 22.5588C73.092 22.5588 73.7621 23.4634 73.8164 25.309C73.8164 27.245 73.1282 28.222 71.7519 28.222C70.3755 28.222 69.7235 27.245 69.7417 25.309C69.8141 23.4634 70.4842 22.5588 71.7881 22.5588Z" fill="white"/>
<path d="M81.0787 28.3791C80.3181 28.3791 79.9197 28.0172 79.8653 27.2573C79.8653 26.5516 80.3543 26.0993 81.3142 25.9184C82.0204 25.7736 82.6724 25.5746 83.2338 25.3394V26.226C83.2338 27.583 82.4189 28.3791 81.0787 28.3791ZM81.6401 22.4082C82.6362 22.4082 83.1433 22.6796 83.1976 23.2224C83.1976 23.7471 82.6724 24.0547 81.6401 24.1814C79.2134 24.4166 77.5473 25.0318 77.4929 27.3297C77.4929 29.4466 79.0866 30.5141 81.3866 30.3332C83.9763 30.1522 85.57 28.9762 85.57 26.3345V23.0777C85.5157 21.3045 84.1755 20.436 81.5315 20.436C79.322 20.436 78.0724 21.3045 77.7827 23.0777H80.1913C80.3181 22.6253 80.789 22.4082 81.6401 22.4082Z" fill="white"/>
<path d="M94.9515 30.3513V24.5252C94.9696 21.793 93.6294 20.436 90.8948 20.436C88.1602 20.436 86.7838 21.793 86.7838 24.5252V30.3513H89.2287V24.0366C89.2468 23.0415 89.7901 22.553 90.8586 22.553C91.9271 22.553 92.4704 23.0415 92.5247 24.0366V29.1571C92.5247 29.917 92.9231 30.297 93.72 30.3513H94.9515Z" fill="white"/>
<path d="M105.459 30.2954C106.378 30.2954 107.123 29.5511 107.123 28.633C107.123 27.715 106.378 26.9707 105.459 26.9707C104.54 26.9707 103.795 27.715 103.795 28.633C103.795 29.5511 104.54 30.2954 105.459 30.2954Z" fill="white"/>
<path d="M96.5351 30.8941V32.8663C96.6075 32.9205 96.9335 32.9386 97.5492 32.9386C99.5413 32.9386 100.121 32.3958 100.7 30.8217L104.485 20.436H102.801C102.185 20.436 101.805 20.7255 101.66 21.2864L99.9941 27.0763L98.0925 20.436H95.3579L98.6177 29.7904C98.7988 30.4055 98.328 30.8941 97.2051 30.8941H96.5351Z" fill="white"/>
<path d="M116.823 27.2504H115.024C114.719 27.2504 114.449 27.3583 114.215 27.5922C113.819 28.0419 113.333 28.2758 112.776 28.2758C111.445 28.2938 110.779 27.3403 110.779 25.4515C110.779 23.5626 111.409 22.6091 112.668 22.6091C113.423 22.6091 113.927 22.9509 114.215 23.5986H116.823C116.41 21.5298 115.042 20.5044 112.74 20.5044C109.807 20.5584 108.35 22.1954 108.35 25.4515C108.422 28.7255 109.897 30.3805 112.776 30.3805C114.988 30.4345 116.392 29.1932 116.823 27.2504Z" fill="white"/>
<path d="M122.684 20.5034C119.806 20.5034 118.367 22.1404 118.367 25.4505C118.367 28.7245 119.806 30.3796 122.684 30.3796C125.562 30.3796 127.02 28.7245 127.02 25.4505C127.02 22.1404 125.562 20.5034 122.684 20.5034ZM122.684 22.6082C123.907 22.6082 124.519 23.5256 124.519 25.3785C124.501 27.2674 123.889 28.2388 122.666 28.2388C121.443 28.2388 120.813 27.3034 120.795 25.4505C120.795 23.5616 121.425 22.6082 122.684 22.6082Z" fill="white"/>
<path d="M132.583 22.6082C133.644 22.6082 134.184 23.0939 134.238 24.0833V30.1637H136.649V24.1193C136.667 23.1299 137.206 22.6441 138.268 22.6441C139.329 22.6441 139.869 23.1299 139.923 24.1193V29.0124C139.923 29.7679 140.318 30.1457 141.11 30.1997H142.351V24.605C142.369 21.8886 141.02 20.5394 138.304 20.5394C137.08 20.5394 136.145 20.7912 135.461 21.3129C134.778 20.7733 133.842 20.5034 132.619 20.5034C129.903 20.5034 128.535 21.8526 128.535 24.569V30.1637H130.964V24.0833C130.982 23.0939 131.522 22.6082 132.583 22.6082Z" fill="white"/>
<path d="M39.7054 8.94982C39.7768 10.4837 41.049 11.4349 42.999 11.4349C45.0085 11.4349 46.2688 10.4242 46.2688 8.81903C46.2688 7.57056 45.5316 6.86904 43.7719 6.50044L42.8563 6.32209C41.81 6.09617 41.3938 5.72758 41.3938 5.15685C41.3938 4.45533 42.0597 4.01539 42.9871 4.01539C43.9502 4.01539 44.6042 4.491 44.6755 5.28764H46.1142C46.0786 3.78948 44.8539 2.77881 42.999 2.77881C41.1798 2.77881 39.8838 3.77759 39.8838 5.25197C39.8838 6.47666 40.6685 7.26141 42.3451 7.60623L43.2487 7.79647C44.3426 8.02239 44.7588 8.39098 44.7588 8.99738C44.7588 9.68701 44.0572 10.1864 43.0466 10.1864C42.0002 10.1864 41.2512 9.72269 41.1323 8.94982H39.7054Z" fill="white"/>
<path d="M52.8213 5.14111H51.3707V8.70817C51.3707 9.59994 50.8594 10.1944 50.0152 10.1944C49.2067 10.1944 48.7786 9.71884 48.7786 8.82707V5.14111H47.328V9.12433C47.328 10.5512 48.1841 11.4072 49.5158 11.4072C50.4551 11.4072 51.0734 10.9792 51.3944 10.2301H51.4301V11.3002H52.8213V5.14111Z" fill="white"/>
<path d="M57.4953 5.00342C56.6036 5.00342 55.9021 5.45525 55.5572 6.16866H55.5216V5.09854H54.1185V13.279H55.5572V10.2351H55.5929C55.9258 10.9247 56.6274 11.3528 57.5191 11.3528C59.0648 11.3528 60.0517 10.14 60.0517 8.1781C60.0517 6.21622 59.053 5.00342 57.4953 5.00342ZM57.0554 10.1757C56.1518 10.1757 55.5572 9.3909 55.5454 8.1781C55.5572 6.98908 56.1518 6.19244 57.0554 6.19244C57.9828 6.19244 58.5655 6.9653 58.5655 8.1781C58.5655 9.40279 57.9828 10.1757 57.0554 10.1757Z" fill="white"/>
<path d="M64.4773 5.00342C63.5855 5.00342 62.884 5.45525 62.5392 6.16866H62.5035V5.09854H61.1005V13.279H62.5392V10.2351H62.5748C62.9078 10.9247 63.6093 11.3528 64.5011 11.3528C66.0468 11.3528 67.0337 10.14 67.0337 8.1781C67.0337 6.21622 66.0349 5.00342 64.4773 5.00342ZM64.0373 10.1757C63.1337 10.1757 62.5392 9.3909 62.5273 8.1781C62.5392 6.98908 63.1337 6.19244 64.0373 6.19244C64.9648 6.19244 65.5474 6.9653 65.5474 8.1781C65.5474 9.40279 64.9648 10.1757 64.0373 10.1757Z" fill="white"/>
<path d="M70.8038 11.3994C72.6111 11.3994 73.7763 10.1985 73.7763 8.2009C73.7763 6.21524 72.5992 5.00244 70.8038 5.00244C69.0084 5.00244 67.8193 6.21524 67.8193 8.2009C67.8193 10.1985 68.9965 11.3994 70.8038 11.3994ZM70.8038 10.2579C69.8882 10.2579 69.2937 9.52071 69.2937 8.2009C69.2937 6.89298 69.8882 6.1439 70.8038 6.1439C71.7193 6.1439 72.3138 6.89298 72.3138 8.2009C72.3138 9.52071 71.7193 10.2579 70.8038 10.2579Z" fill="white"/>
<path d="M74.8316 11.2577H76.2703V7.67871C76.2703 6.81073 76.7697 6.28756 77.5901 6.28756C77.8279 6.28756 78.0538 6.31134 78.1727 6.3589V5.06287C78.0657 5.03909 77.9112 5.00342 77.7209 5.00342C76.9956 5.00342 76.4606 5.43147 76.2465 6.18055H76.2228V5.09854H74.8316V11.2577Z" fill="white"/>
<path d="M79.4283 3.68115V5.11987H78.5485V6.23755H79.4283V9.63814C79.4283 10.8391 79.9515 11.3028 81.2832 11.3028C81.5924 11.3028 81.8777 11.279 82.0323 11.2552V10.1494C81.9372 10.1613 81.7588 10.1732 81.628 10.1732C81.1167 10.1732 80.8789 9.94729 80.8789 9.43601V6.23755H82.0442V5.11987H80.8789V3.68115H79.4283Z" fill="white"/>
<path d="M89.0805 11.3947C90.6381 11.3947 91.625 10.1938 91.625 8.22002C91.625 6.25814 90.6381 5.04534 89.0805 5.04534C88.2125 5.04534 87.511 5.48527 87.1662 6.19869H87.1305V2.91699H85.6799V11.2996H87.0949V10.2532H87.1305C87.4872 10.9667 88.1769 11.3947 89.0805 11.3947ZM88.6406 6.23436C89.5561 6.23436 90.1387 7.00722 90.1387 8.22002C90.1387 9.44471 89.568 10.2176 88.6406 10.2176C87.7488 10.2176 87.1186 9.43282 87.1186 8.22002C87.1186 7.031 87.7488 6.23436 88.6406 6.23436Z" fill="white"/>
<path d="M93.2101 13.5832C94.6131 13.5832 95.2909 13.0719 95.814 11.5499L98.0494 5.14111H96.5274L95.0768 10.0637H95.0412L93.6025 5.14111H92.0211L94.2089 11.3002C94.2089 11.324 94.1256 11.6332 94.1256 11.6451C93.9592 12.2158 93.6619 12.4417 93.0555 12.4417C92.9723 12.4417 92.7107 12.4417 92.6393 12.4179V13.5594C92.7107 13.5832 93.1268 13.5832 93.2101 13.5832Z" fill="white"/>
</svg>
