<svg width="80" height="80" viewBox="0 0 80 80" fill="none" xmlns="http://www.w3.org/2000/svg">
<path d="M0 40C0 17.9086 17.9086 0 40 0C62.0914 0 80 17.9086 80 40C80 62.0914 62.0914 80 40 80C17.9086 80 0 62.0914 0 40Z" fill="#55ACEE"/>
<path d="M38.8021 32.5125L38.886 33.8966L37.487 33.7271C32.3948 33.0774 27.9461 30.8742 24.169 27.1739L22.3223 25.3378L21.8467 26.6937C20.8394 29.7161 21.483 32.908 23.5814 35.0547C24.7006 36.2411 24.4487 36.4106 22.5182 35.7044C21.8467 35.4784 21.2591 35.3089 21.2032 35.3937C21.0073 35.5914 21.6788 38.1618 22.2104 39.1787C22.9379 40.5911 24.4208 41.9752 26.0436 42.7943L27.4145 43.444L25.7917 43.4722C24.2249 43.4722 24.169 43.5005 24.3368 44.0937C24.8964 45.9297 27.1068 47.8787 29.5689 48.7261L31.3036 49.3193L29.7928 50.2232C27.5544 51.5226 24.9244 52.257 22.2944 52.3135C21.0353 52.3417 20.0001 52.4547 20.0001 52.5394C20.0001 52.8219 23.4135 54.4037 25.4 55.0252C31.3596 56.8612 38.4383 56.0703 43.7544 52.9349C47.5316 50.7034 51.3088 46.2687 53.0714 41.9752C54.0227 39.6872 54.974 35.5067 54.974 33.5011C54.974 32.2018 55.058 32.0323 56.6248 30.4787C57.5481 29.5748 58.4155 28.5862 58.5833 28.3037C58.8631 27.767 58.8352 27.767 57.4082 28.2472C55.03 29.0946 54.6942 28.9817 55.8694 27.7106C56.7367 26.8067 57.7719 25.1683 57.7719 24.6882C57.7719 24.6034 57.3523 24.7446 56.8766 24.9989C56.373 25.2813 55.2538 25.705 54.4144 25.9593L52.9036 26.4395L51.5326 25.5073C50.7772 24.9989 49.7139 24.4339 49.1544 24.2645C47.7274 23.869 45.545 23.9255 44.258 24.3774C40.7606 25.6485 38.5503 28.9252 38.8021 32.5125Z" fill="white"/>
</svg>
