<svg width="77" height="76" viewBox="0 0 77 76" fill="none" xmlns="http://www.w3.org/2000/svg">
<path d="M63.9279 7.43289C72.4483 13.9895 78.1983 25.1252 76.787 34.908C75.3756 44.6388 66.6983 52.9646 58.1779 60.5619C49.7097 68.1592 41.3461 75.028 32.1461 75.9126C22.9461 76.7452 12.8574 71.5416 6.95059 63.9443C1.04377 56.347 -0.733499 46.304 0.259683 37.3017C1.25286 28.2994 5.0165 20.2338 10.9233 13.6772C16.8301 7.1727 24.9324 2.07315 34.5506 0.51206C44.2211 -1.04903 55.4074 0.876315 63.9279 7.43289Z" fill="#F7C7C4"/>
<path fill-rule="evenodd" clip-rule="evenodd" d="M39 17C27.4025 17 18 26.4025 18 38C18 49.5975 27.4025 59 39 59C50.5975 59 60 49.5975 60 38C60 26.4025 50.5975 17 39 17ZM21 38C21 36.3666 21.2176 34.784 21.6254 33.2796C21.9605 34.0016 22.3691 34.6757 22.7796 35.3528C23.2123 36.0665 23.6471 36.7837 24 37.5641C24.4622 38.592 25.3342 38.9291 26.2085 39.2671C26.9959 39.5715 27.7852 39.8766 28.2788 40.6878C28.7707 41.4961 28.7212 42.4188 28.6716 43.3449C28.6279 44.1589 28.5842 44.9756 28.9078 45.7194C29.2185 46.4329 29.7901 46.8017 30.3744 47.1787C30.7352 47.4114 31.1008 47.6473 31.4128 47.9694C32.1263 48.6973 32.2174 49.6543 32.3082 50.6092L32.3082 50.6093L32.3082 50.6093L32.3082 50.6094C32.3237 50.7724 32.3392 50.9352 32.3578 51.0969C32.5016 52.4014 32.735 53.6944 33.0563 54.9669L33.0643 54.9982C26.0398 52.5453 21 45.8608 21 38ZM23.6413 30.4375C23.5012 30.049 23.3643 29.6695 23.1981 29.3735C24.4191 27.1418 26.0991 25.1971 28.1111 23.6662C28.0752 24.1034 28.1135 24.5443 28.2249 24.9699C28.3594 25.4836 28.5975 25.9643 28.9247 26.3825C29.116 26.6287 29.3463 26.8173 29.5678 26.9987C29.9897 27.3444 30.3795 27.6637 30.4059 28.3044C30.4453 29.2419 30.2991 29.7219 29.6859 30.3809C29.56 30.5145 29.4515 30.6746 29.3435 30.8342L29.3435 30.8343C29.224 31.0108 29.1049 31.1866 28.9631 31.325L28.9178 31.3691L28.9178 31.3691C28.7966 31.4873 28.7457 31.5369 28.6847 31.5626C28.6405 31.5813 28.5911 31.5873 28.5057 31.5978C28.4414 31.6057 28.3567 31.6161 28.2384 31.6363C27.4277 31.7732 26.7175 31.9722 25.9591 32.1848C25.809 32.2268 25.6569 32.2694 25.5019 32.3122C24.4248 32.6099 24.0211 31.4905 23.6413 30.4375ZM32.3072 22.5959C32.4621 22.2754 32.3076 21.8227 32.038 21.396C32.3761 21.254 32.7193 21.1222 33.0675 21.0007C33.2862 21.1532 33.529 21.2618 33.8184 21.2806C34.0299 21.2949 34.2374 21.2657 34.4405 21.2371C34.8396 21.181 35.2218 21.1273 35.5847 21.41C35.7441 21.533 35.8918 21.6646 36.0376 21.7944C36.4473 22.1594 36.8416 22.5106 37.4363 22.6184C38.2163 22.76 39.0422 22.3044 39.2353 21.5066C39.3501 21.0412 39.2432 20.551 39.1375 20.0656L39.1233 20.0004C42.7801 20.0249 46.1781 21.1401 49.0082 23.0368C48.8145 22.949 48.5769 22.95 48.2822 23.0872C47.7131 23.3516 46.9069 24.0247 46.8403 24.6922C46.7644 25.4497 47.8819 25.5566 48.4125 25.5566C49.2084 25.5566 50.0166 25.2003 49.7597 24.2797C49.6432 23.8628 49.4823 23.4267 49.218 23.1796C49.8205 23.5958 50.3964 24.0478 50.9426 24.5326C50.932 24.5431 50.9214 24.5538 50.9109 24.5647C50.7529 24.7294 50.5873 24.884 50.4229 25.0375C50.0258 25.4084 49.6356 25.7728 49.3744 26.2569C49.1138 26.7378 48.8203 26.9675 48.2925 27.0922C48.23 27.1069 48.1656 27.1196 48.1005 27.1325C47.8632 27.1794 47.6176 27.2279 47.4263 27.3809C46.7475 27.9153 47.1337 29.1987 47.7769 29.585C48.5897 30.0716 49.7953 29.8428 50.4084 29.1481C50.5411 28.9976 50.6586 28.8163 50.7776 28.633C51.0882 28.154 51.4082 27.6606 52.0313 27.6613C52.4106 27.6605 52.7749 27.809 53.0456 28.0747C53.3157 28.354 53.3406 28.6204 53.37 28.9338C53.3793 29.0339 53.3891 29.1387 53.4075 29.2503C53.5422 30.0728 54.2702 29.6265 54.7095 29.2069C55.0283 29.7751 55.3172 30.3625 55.5739 30.9667C55.5384 31.0178 55.5034 31.0693 55.4686 31.1205C55.0283 31.7681 54.6193 32.3696 53.5387 31.6147C53.301 31.449 53.0945 31.2575 52.8909 31.0688C52.4978 30.7044 52.1152 30.3499 51.5391 30.2084C50.8787 30.0464 50.2043 30.1701 49.5462 30.2907C49.4429 30.3097 49.3399 30.3286 49.2375 30.3463C49.1153 30.3673 48.9899 30.3868 48.8628 30.4065C48.0974 30.5252 47.2698 30.6535 46.7119 31.2106C46.4103 31.5104 46.1768 31.8593 45.9417 32.2106C45.6864 32.5921 45.4291 32.9766 45.0806 33.3041C43.7859 34.5228 43.2394 35.8531 44.0775 37.5763C44.8838 39.2328 46.5703 40.1319 48.39 40.0138C48.775 39.9881 49.1633 39.9199 49.535 39.8546C50.8892 39.6167 52.0239 39.4173 51.9834 41.4556C51.9647 42.3744 52.1569 43.0119 52.4391 43.8659C52.645 44.4859 52.6778 45.0908 52.7117 45.7168C52.7208 45.8859 52.7301 46.0565 52.7428 46.2294C52.8097 47.1482 52.9384 48.1343 53.1966 49.067C49.9023 53.2867 44.7678 56 39 56C37.9795 56 36.9787 55.9151 36.0045 55.7519C36.0066 55.7017 36.0084 55.6523 36.0101 55.6039C36.0172 55.4073 36.0236 55.2283 36.0441 55.0934C36.2719 53.6028 37.0181 52.145 38.025 51.0294C38.4366 50.574 38.9112 50.1794 39.3858 49.7849C40.0582 49.226 40.7304 48.6671 41.2228 47.9356C42.0413 46.7188 42.2878 45.0772 41.9485 43.6531C41.5984 42.1795 40.091 41.3931 38.6896 40.662C38.0904 40.3495 37.5107 40.047 37.0491 39.7053C36.8186 39.5346 36.5948 39.3398 36.3692 39.1434L36.3692 39.1434C35.7276 38.5848 35.0721 38.0142 34.2113 37.9531C34.0071 37.9385 33.8156 37.9463 33.6274 37.9539C33.3211 37.9664 33.0236 37.9785 32.6944 37.8931C32.5406 37.8535 32.3973 37.8003 32.2569 37.7481C31.952 37.6348 31.6606 37.5266 31.305 37.5734C30.8787 37.6295 30.5215 37.8611 30.1665 38.0912C29.7136 38.3848 29.2644 38.676 28.68 38.5972C27.6909 38.4641 26.6719 37.3072 26.4469 36.365C26.1581 35.1538 27.1163 34.7609 28.1428 34.6531C28.5713 34.6081 29.0522 34.5594 29.4638 34.7159C29.7645 34.8278 29.9772 35.041 30.19 35.2545C30.3608 35.4256 30.5316 35.5969 30.7481 35.7163C31.6603 36.2159 31.845 35.4172 31.7053 34.6072C31.6826 34.4755 31.6595 34.3522 31.6377 34.2361L31.6377 34.2359L31.6377 34.2359C31.4589 33.2825 31.37 32.8084 32.3344 32.0647C32.379 32.0305 32.4232 31.9968 32.4668 31.9636L32.4678 31.9628L32.4683 31.9624C33.1587 31.4368 33.7184 31.0107 33.6056 30.0388C33.5822 29.8388 33.5304 29.6749 33.4825 29.5234C33.385 29.2147 33.3037 28.9575 33.5119 28.5519C33.7427 28.1004 34.3684 27.6923 34.7895 27.4176L34.8141 27.4016C35.1361 27.1915 35.6762 27.0483 36.2388 26.8991C37.5743 26.545 39.0367 26.1573 38.0109 24.7616C37.5825 24.1794 36.7922 23.1388 36.0422 22.9963C35.4047 22.8758 35.0083 23.3209 34.6144 23.7632C34.429 23.9714 34.2441 24.1789 34.035 24.3266C33.36 24.8038 32.0456 25.3456 31.3697 24.6078C30.7646 23.9472 31.2317 23.5817 31.7106 23.2069C31.9514 23.0185 32.1952 22.8277 32.3072 22.5959ZM55.6833 44.7702C56.5323 42.6802 57 40.3947 57 38C57 36.762 56.875 35.5532 56.6369 34.3854C55.7592 34.8719 54.5844 35.065 53.8584 34.9588C53.1162 34.835 52.4148 34.534 51.8138 34.0813C51.6951 33.9937 51.5677 33.8661 51.4355 33.7338C51.2054 33.5033 50.9607 33.2583 50.7225 33.185C50.3475 33.0697 49.0388 33.3294 48.7538 33.5553C48.5848 33.6892 48.4419 33.9308 48.303 34.1658C48.2075 34.3272 48.1139 34.4855 48.015 34.6034C47.8904 34.7519 47.735 34.8912 47.579 35.0311C47.3853 35.2047 47.1907 35.3791 47.0531 35.5728C45.8037 37.3403 48.8897 36.8567 49.6916 36.731L49.7063 36.7288C51.2503 36.4859 52.8666 36.7728 53.9691 37.9681C54.8667 38.9424 54.8913 39.8819 54.9195 40.9592C54.9271 41.2524 54.9351 41.5558 54.9609 41.8728C54.996 42.2981 55.1483 42.7116 55.3014 43.1273C55.4349 43.4897 55.5689 43.8537 55.6266 44.2288C55.6542 44.4086 55.6714 44.5893 55.6833 44.7702ZM38.8181 46.1206C38.4542 46.7703 37.8013 47.281 37.1676 47.7768C36.822 48.0472 36.4821 48.3131 36.1978 48.5947C36.1431 48.649 36.0728 48.7368 35.9939 48.8354C35.7582 49.13 35.4457 49.5206 35.2406 49.3991C35.1066 49.3196 35.0331 48.8392 34.977 48.4722C34.951 48.3025 34.9288 48.1571 34.9059 48.0866C34.5335 46.963 33.8226 45.9822 32.8706 45.2788C32.7686 45.2015 32.6142 45.1163 32.4491 45.0251C32.1391 44.8539 31.7914 44.6619 31.6819 44.4631C31.546 44.2233 31.5972 43.747 31.6382 43.366C31.6538 43.2213 31.6679 43.0903 31.6697 42.9913C31.6737 42.7857 31.6395 42.5269 31.6042 42.2593C31.5493 41.8435 31.4916 41.4066 31.5703 41.1163C31.629 40.9009 31.6205 40.8206 31.6179 40.7962C31.6173 40.7905 31.6171 40.7878 31.618 40.7872C31.6189 40.7867 31.6207 40.7877 31.6241 40.7896C31.6426 40.7999 31.7085 40.8366 31.9238 40.7891C32.1834 40.7309 33.2559 40.9194 33.5794 40.9869C33.9925 41.0728 34.2565 41.2963 34.5546 41.5488C34.6272 41.6103 34.7019 41.6735 34.7813 41.7369C35.8463 42.5909 37.0191 43.2519 38.2125 43.9063C39.1369 44.4181 39.4088 45.0659 38.8181 46.1206Z" fill="#888888"/>
</svg>
