<svg width="80" height="80" viewBox="0 0 80 80" fill="none" xmlns="http://www.w3.org/2000/svg">
<path d="M40 80C62.0914 80 80 62.0914 80 40C80 17.9086 62.0914 0 40 0C17.9086 0 0 17.9086 0 40C0 62.0914 17.9086 80 40 80Z" fill="#2D8CFF"/>
<path fill-rule="evenodd" clip-rule="evenodd" d="M63.4783 26.559L52.1739 34.8068V45.2251L63.4783 53.4729C64.2782 54.084 65.2174 54.2728 65.2174 52.6047V27.4272C65.2174 25.9398 64.4637 25.7529 63.4783 26.559ZM13.913 46.2612V27.4789C13.913 26.7106 14.5415 26.087 15.3168 26.087H42.709C46.9742 26.087 50.4348 29.5129 50.4348 33.739V52.5213C50.4348 53.2896 49.8063 53.9131 49.031 53.9131H21.6388C17.3736 53.9131 13.913 50.4872 13.913 46.2612Z" fill="white"/>
</svg>
