<?xml version="1.0" encoding="utf-8"?><svg xmlns="http://www.w3.org/2000/svg" xmlns:xlink="http://www.w3.org/1999/xlink"><style>:root>svg{display:none}:root>svg:target{display:block}</style><svg fill="none" viewBox="0 0 18 12" id="arrow" xmlns="http://www.w3.org/2000/svg"><path fill-rule="evenodd" clip-rule="evenodd" d="M12.907.884A.938.938 0 0 0 11.58 2.21l2.853 2.853H1.337a.937.937 0 0 0 0 1.875h13.096L11.582 9.79a.937.937 0 1 0 1.326 1.326l4.453-4.453a.938.938 0 0 0 0-1.326L12.907.884Z" fill="#EE9591"/></svg><svg fill="none" viewBox="0 0 76 76" id="business-class" xmlns="http://www.w3.org/2000/svg"><path d="M1.634 21.82C-3.842 35.462 5.01 57.173 19.784 67.1c14.773 9.927 35.406 8.134 46.296-1.217 10.889-9.35 12.035-26.258 7.195-39.067C68.435 14.07 57.61 5.425 42.263 3.952 26.916 2.479 7.11 8.179 1.634 21.82Z" fill="#F7C7C4"/><path fill-rule="evenodd" clip-rule="evenodd" d="M60.5 45a3 3 0 0 1-3 3h-39a3 3 0 0 1-3-3V24a3 3 0 0 1 3-3h39a3 3 0 0 1 3 3v21Zm-42-4.31V45h4.31a6.007 6.007 0 0 0-3.514-4.043 6.007 6.007 0 0 0-.796-.267ZM25.874 45a9.002 9.002 0 0 0-7.374-7.374v-6.252A9.002 9.002 0 0 0 25.874 24h24.252a9 9 0 0 0 7.374 7.374v6.252A9 9 0 0 0 50.126 45H25.874ZM57.5 45h-4.31a5.999 5.999 0 0 1 4.31-4.31V45ZM22.81 24H18.5v4.31a6.007 6.007 0 0 0 4.043-3.514c.108-.26.197-.525.267-.796Zm31.947 2.743A5.999 5.999 0 0 0 57.5 28.31V24h-4.31a5.999 5.999 0 0 0 1.567 2.743ZM21.5 53.5A1.5 1.5 0 0 1 23 52h30a1.5 1.5 0 0 1 0 3H23a1.5 1.5 0 0 1-1.5-1.5Zm10.5-19a6 6 0 1 1 12 0 6 6 0 0 1-12 0Zm6-9a9 9 0 1 0 0 18 9 9 0 0 0 0-18Z" fill="#888"/></svg><svg fill="none" viewBox="0 0 487 458" id="circles-1" xmlns="http://www.w3.org/2000/svg"><circle opacity=".1" cx="270" cy="217" r="217" fill="#EE9591"/><circle opacity=".32" cx="217" cy="241" r="216" stroke="#EE9591" stroke-width="2"/></svg><svg fill="none" viewBox="0 0 534 530" id="circles-2" xmlns="http://www.w3.org/2000/svg"><circle opacity=".05" cx="285.5" cy="248.5" r="248.5" fill="#888"/><circle opacity=".32" cx="248.5" cy="281.5" r="247.5" stroke="#EE9591" stroke-width="2"/><circle cx="132" cy="499" transform="rotate(180 132 499)" fill="#EE9591" r="17"/></svg><svg fill="none" viewBox="0 0 389 386" id="circles-3" xmlns="http://www.w3.org/2000/svg"><circle opacity=".05" cx="181" cy="205" r="181" transform="rotate(180 181 205)" fill="#888"/><circle opacity=".32" cx="208" cy="181" r="180" transform="rotate(180 208 181)" stroke="#EE9591" stroke-width="2"/><circle cx="318" cy="38" transform="rotate(180 318 38)" fill="#EE9591" r="17"/></svg><svg fill="none" viewBox="0 0 755 761" id="circles-4" xmlns="http://www.w3.org/2000/svg"><circle opacity=".05" cx="354" cy="354" r="354" transform="rotate(-90 354 354)" fill="#888"/><circle opacity=".32" cx="401" cy="407" r="353" transform="rotate(-90 401 407)" stroke="#EE9591" stroke-width="2"/><circle cx="684" cy="621" r="24" transform="rotate(90 684 621)" fill="#EE9591"/></svg><svg fill="none" viewBox="0 0 77 76" id="digital" xmlns="http://www.w3.org/2000/svg"><path d="M13.072 7.433C4.552 13.989-1.198 25.125.213 34.908c1.411 9.73 10.089 18.057 18.61 25.654 8.467 7.597 16.831 14.466 26.031 15.35 9.2.833 19.289-4.37 25.195-11.968 5.907-7.597 7.685-17.64 6.691-26.642-.993-9.003-4.756-17.068-10.663-23.625C60.17 7.173 52.067 2.073 42.45.512c-9.671-1.561-20.857.364-29.378 6.92Z" fill="#F7C7C4"/><path fill-rule="evenodd" clip-rule="evenodd" d="M21 28.013c0-.836.677-1.513 1.513-1.513h32.974c.835 0 1.513.677 1.513 1.513v22.474c0 .835-.678 1.513-1.513 1.513H22.513A1.513 1.513 0 0 1 21 50.487V28.013Zm1.513-4.513A4.513 4.513 0 0 0 18 28.013v22.474c0 1.158.436 2.214 1.153 3.013H16.5a1.5 1.5 0 0 0 0 3h45a1.5 1.5 0 0 0 0-3h-2.653A4.496 4.496 0 0 0 60 50.487V28.013a4.513 4.513 0 0 0-4.513-4.513H22.513Zm2.8 9.75a1.5 1.5 0 0 1 1.5-1.5H48.28a1.5 1.5 0 1 1 0 3H26.813a1.5 1.5 0 0 1-1.5-1.5Zm1.5 4.5a1.5 1.5 0 0 0 0 3h12.562a1.5 1.5 0 0 0 0-3H26.812Z" fill="#888"/></svg><svg fill="none" viewBox="0 0 22 22" id="dot" xmlns="http://www.w3.org/2000/svg"><circle opacity=".32" cx="11" cy="11" r="11" fill="#EE9591"/><circle cx="11.5" cy="11.5" r="5.5" fill="#EE9591"/></svg><svg fill="none" viewBox="0 0 108 32" id="dots-1" xmlns="http://www.w3.org/2000/svg"><g opacity=".3" fill="#EE9591"><circle cx="105" cy="29" r="3" transform="rotate(-180 105 29)"/><circle cx="105" cy="16" r="3" transform="rotate(-180 105 16)"/><circle cx="105" cy="3" r="3" transform="rotate(-180 105 3)"/><circle cx="93" cy="29" r="3" transform="rotate(-180 93 29)"/><circle cx="93" cy="16" r="3" transform="rotate(-180 93 16)"/><circle cx="93" cy="3" r="3" transform="rotate(-180 93 3)"/><circle cx="80" cy="29" r="3" transform="rotate(-180 80 29)"/><circle cx="80" cy="16" r="3" transform="rotate(-180 80 16)"/><circle cx="80" cy="3" r="3" transform="rotate(-180 80 3)"/><circle cx="67" cy="29" r="3" transform="rotate(-180 67 29)"/><circle cx="67" cy="16" r="3" transform="rotate(-180 67 16)"/><circle cx="67" cy="3" r="3" transform="rotate(-180 67 3)"/><circle cx="54" cy="29" r="3" transform="rotate(-180 54 29)"/><circle cx="54" cy="16" r="3" transform="rotate(-180 54 16)"/><circle cx="54" cy="3" r="3" transform="rotate(-180 54 3)"/><circle cx="41" cy="29" r="3" transform="rotate(-180 41 29)"/><circle cx="41" cy="16" r="3" transform="rotate(-180 41 16)"/><circle cx="41" cy="3" r="3" transform="rotate(-180 41 3)"/><circle cx="28" cy="29" r="3" transform="rotate(-180 28 29)"/><circle cx="28" cy="16" r="3" transform="rotate(-180 28 16)"/><circle cx="28" cy="3" r="3" transform="rotate(-180 28 3)"/><circle cx="15" cy="29" r="3" transform="rotate(-180 15 29)"/><circle cx="15" cy="16" r="3" transform="rotate(-180 15 16)"/><circle cx="15" cy="3" r="3" transform="rotate(-180 15 3)"/><circle cx="3" cy="29" r="3" transform="rotate(-180 3 29)"/><circle cx="3" cy="16" r="3" transform="rotate(-180 3 16)"/><circle cx="3" cy="3" r="3" transform="rotate(-180 3 3)"/></g></svg><svg fill="none" viewBox="0 0 61 61" id="dots-2" xmlns="http://www.w3.org/2000/svg"><g opacity=".3" fill="#F7F7F7"><circle cx="40" cy="59" r="2" transform="rotate(-90 40 59)"/><circle cx="50" cy="59" r="2" transform="rotate(-90 50 59)"/><circle cx="59" cy="59" r="2" transform="rotate(-90 59 59)"/><circle cx="40" cy="50" r="2" transform="rotate(-90 40 50)"/><circle cx="50" cy="50" r="2" transform="rotate(-90 50 50)"/><circle cx="59" cy="50" r="2" transform="rotate(-90 59 50)"/><circle cx="40" cy="40" r="2" transform="rotate(-90 40 40)"/><circle cx="31" cy="40" r="2" transform="rotate(-90 31 40)"/><circle cx="21" cy="40" r="2" transform="rotate(-90 21 40)"/><circle cx="50" cy="40" r="2" transform="rotate(-90 50 40)"/><circle cx="59" cy="40" r="2" transform="rotate(-90 59 40)"/><circle cx="40" cy="31" r="2" transform="rotate(-90 40 31)"/><circle cx="50" cy="31" r="2" transform="rotate(-90 50 31)"/><circle cx="59" cy="31" r="2" transform="rotate(-90 59 31)"/><circle cx="2" cy="21" r="2" transform="rotate(-90 2 21)"/><circle cx="12" cy="21" r="2" transform="rotate(-90 12 21)"/><circle cx="21" cy="21" r="2" transform="rotate(-90 21 21)"/><circle cx="21" cy="31" r="2" transform="rotate(-90 21 31)"/><circle cx="31" cy="21" r="2" transform="rotate(-90 31 21)"/><circle cx="31" cy="31" r="2" transform="rotate(-90 31 31)"/><circle cx="50" cy="21" r="2" transform="rotate(-90 50 21)"/><circle cx="40" cy="21" r="2" transform="rotate(-90 40 21)"/><circle cx="59" cy="21" r="2" transform="rotate(-90 59 21)"/><circle cx="2" cy="12" r="2" transform="rotate(-90 2 12)"/><circle cx="12" cy="12" r="2" transform="rotate(-90 12 12)"/><circle cx="21" cy="12" r="2" transform="rotate(-90 21 12)"/><circle cx="31" cy="12" r="2" transform="rotate(-90 31 12)"/><circle cx="40" cy="12" r="2" transform="rotate(-90 40 12)"/><circle cx="50" cy="12" r="2" transform="rotate(-90 50 12)"/><circle cx="59" cy="12" r="2" transform="rotate(-90 59 12)"/><circle cx="2" cy="2" r="2" transform="rotate(-90 2 2)"/><circle cx="12" cy="2" r="2" transform="rotate(-90 12 2)"/><circle cx="21" cy="2" r="2" transform="rotate(-90 21 2)"/><circle cx="31" cy="2" r="2" transform="rotate(-90 31 2)"/><circle cx="40" cy="2" r="2" transform="rotate(-90 40 2)"/><circle cx="50" cy="2" r="2" transform="rotate(-90 50 2)"/><circle cx="59" cy="2" r="2" transform="rotate(-90 59 2)"/></g></svg><svg fill="none" viewBox="0 0 109 122" id="dots-3" xmlns="http://www.w3.org/2000/svg"><g opacity=".5" fill="#EE9591"><circle cx="3" cy="67" r="3"/><circle cx="3" cy="80" r="3"/><circle cx="3" cy="93" r="3"/><circle cx="3" cy="106" r="3"/><circle cx="3" cy="119" r="3"/><circle cx="16" cy="67" r="3"/><circle cx="16" cy="80" r="3"/><circle cx="16" cy="93" r="3"/><circle cx="16" cy="106" r="3"/><circle cx="16" cy="119" r="3"/><circle cx="29" cy="67" r="3"/><circle cx="29" cy="80" r="3"/><circle cx="29" cy="93" r="3"/><circle cx="29" cy="106" r="3"/><circle cx="29" cy="119" r="3"/><circle cx="42" cy="67" r="3"/><circle cx="42" cy="80" r="3"/><circle cx="42" cy="93" r="3"/><circle cx="42" cy="106" r="3"/><circle cx="42" cy="119" r="3"/><circle cx="54" cy="3" r="3"/><circle cx="54" cy="16" r="3"/><circle cx="54" cy="29" r="3"/><circle cx="54" cy="42" r="3"/><circle cx="54" cy="54" r="3"/><circle cx="54" cy="67" r="3"/><circle cx="54" cy="80" r="3"/><circle cx="54" cy="93" r="3"/><circle cx="54" cy="106" r="3"/><circle cx="54" cy="119" r="3"/><circle cx="67" cy="3" r="3"/><circle cx="67" cy="16" r="3"/><circle cx="67" cy="29" r="3"/><circle cx="67" cy="42" r="3"/><circle cx="67" cy="54" r="3"/><circle cx="67" cy="67" r="3"/><circle cx="67" cy="80" r="3"/><circle cx="67" cy="93" r="3"/><circle cx="67" cy="106" r="3"/><circle cx="67" cy="119" r="3"/><circle cx="80" cy="3" r="3"/><circle cx="80" cy="16" r="3"/><circle cx="80" cy="29" r="3"/><circle cx="80" cy="42" r="3"/><circle cx="80" cy="54" r="3"/><circle cx="80" cy="67" r="3"/><circle cx="80" cy="80" r="3"/><circle cx="80" cy="93" r="3"/><circle cx="80" cy="106" r="3"/><circle cx="80" cy="119" r="3"/><circle cx="93" cy="3" r="3"/><circle cx="93" cy="16" r="3"/><circle cx="93" cy="29" r="3"/><circle cx="93" cy="42" r="3"/><circle cx="93" cy="54" r="3"/><circle cx="93" cy="67" r="3"/><circle cx="93" cy="80" r="3"/><circle cx="93" cy="93" r="3"/><circle cx="93" cy="106" r="3"/><circle cx="93" cy="119" r="3"/><circle cx="106" cy="3" r="3"/><circle cx="106" cy="16" r="3"/><circle cx="106" cy="29" r="3"/><circle cx="106" cy="42" r="3"/><circle cx="106" cy="54" r="3"/><circle cx="106" cy="67" r="3"/><circle cx="106" cy="80" r="3"/><circle cx="106" cy="93" r="3"/><circle cx="106" cy="106" r="3"/><circle cx="106" cy="119" r="3"/></g></svg><svg fill="none" viewBox="0 0 121 148" id="dots-4" xmlns="http://www.w3.org/2000/svg"><g opacity=".5" fill="#EE9591"><circle cx="54" cy="3" r="3" transform="rotate(90 54 3)"/><circle cx="41" cy="3" r="3" transform="rotate(90 41 3)"/><circle cx="28" cy="3" r="3" transform="rotate(90 28 3)"/><circle cx="15" cy="3" r="3" transform="rotate(90 15 3)"/><circle cx="3" cy="3" r="3" transform="rotate(90 3 3)"/><circle cx="54" cy="16" r="3" transform="rotate(90 54 16)"/><circle cx="41" cy="16" r="3" transform="rotate(90 41 16)"/><circle cx="28" cy="16" r="3" transform="rotate(90 28 16)"/><circle cx="15" cy="16" r="3" transform="rotate(90 15 16)"/><circle cx="3" cy="16" r="3" transform="rotate(90 3 16)"/><circle cx="54" cy="29" r="3" transform="rotate(90 54 29)"/><circle cx="41" cy="29" r="3" transform="rotate(90 41 29)"/><circle cx="28" cy="29" r="3" transform="rotate(90 28 29)"/><circle cx="15" cy="29" r="3" transform="rotate(90 15 29)"/><circle cx="3" cy="29" r="3" transform="rotate(90 3 29)"/><circle cx="54" cy="42" r="3" transform="rotate(90 54 42)"/><circle cx="41" cy="42" r="3" transform="rotate(90 41 42)"/><circle cx="28" cy="42" r="3" transform="rotate(90 28 42)"/><circle cx="15" cy="42" r="3" transform="rotate(90 15 42)"/><circle cx="3" cy="42" r="3" transform="rotate(90 3 42)"/><circle cx="118" cy="54" r="3" transform="rotate(90 118 54)"/><circle cx="105" cy="54" r="3" transform="rotate(90 105 54)"/><circle cx="93" cy="54" r="3" transform="rotate(90 93 54)"/><circle cx="80" cy="54" r="3" transform="rotate(90 80 54)"/><circle cx="67" cy="54" r="3" transform="rotate(90 67 54)"/><circle cx="54" cy="54" r="3" transform="rotate(90 54 54)"/><circle cx="41" cy="54" r="3" transform="rotate(90 41 54)"/><circle cx="28" cy="54" r="3" transform="rotate(90 28 54)"/><circle cx="15" cy="54" r="3" transform="rotate(90 15 54)"/><circle cx="3" cy="54" r="3" transform="rotate(90 3 54)"/><circle cx="118" cy="67" r="3" transform="rotate(90 118 67)"/><circle cx="105" cy="67" r="3" transform="rotate(90 105 67)"/><circle cx="93" cy="67" r="3" transform="rotate(90 93 67)"/><circle cx="80" cy="67" r="3" transform="rotate(90 80 67)"/><circle cx="67" cy="67" r="3" transform="rotate(90 67 67)"/><circle cx="54" cy="67" r="3" transform="rotate(90 54 67)"/><circle cx="41" cy="67" r="3" transform="rotate(90 41 67)"/><circle cx="28" cy="67" r="3" transform="rotate(90 28 67)"/><circle cx="15" cy="67" r="3" transform="rotate(90 15 67)"/><circle cx="3" cy="67" r="3" transform="rotate(90 3 67)"/><circle cx="118" cy="80" r="3" transform="rotate(90 118 80)"/><circle cx="118" cy="119" r="3" transform="rotate(90 118 119)"/><circle cx="105" cy="80" r="3" transform="rotate(90 105 80)"/><circle cx="105" cy="119" r="3" transform="rotate(90 105 119)"/><circle cx="93" cy="80" r="3" transform="rotate(90 93 80)"/><circle cx="93" cy="119" r="3" transform="rotate(90 93 119)"/><circle cx="80" cy="80" r="3" transform="rotate(90 80 80)"/><circle cx="80" cy="119" r="3" transform="rotate(90 80 119)"/><circle cx="67" cy="80" r="3" transform="rotate(90 67 80)"/><circle cx="67" cy="119" r="3" transform="rotate(90 67 119)"/><circle cx="54" cy="80" r="3" transform="rotate(90 54 80)"/><circle cx="54" cy="119" r="3" transform="rotate(90 54 119)"/><circle cx="41" cy="80" r="3" transform="rotate(90 41 80)"/><circle cx="41" cy="119" r="3" transform="rotate(90 41 119)"/><circle cx="28" cy="80" r="3" transform="rotate(90 28 80)"/><circle cx="28" cy="119" r="3" transform="rotate(90 28 119)"/><circle cx="15" cy="80" r="3" transform="rotate(90 15 80)"/><circle cx="15" cy="119" r="3" transform="rotate(90 15 119)"/><circle cx="3" cy="80" r="3" transform="rotate(90 3 80)"/><circle cx="3" cy="119" r="3" transform="rotate(90 3 119)"/><circle cx="118" cy="93" r="3" transform="rotate(90 118 93)"/><circle cx="118" cy="132" r="3" transform="rotate(90 118 132)"/><circle cx="105" cy="93" r="3" transform="rotate(90 105 93)"/><circle cx="105" cy="132" r="3" transform="rotate(90 105 132)"/><circle cx="93" cy="93" r="3" transform="rotate(90 93 93)"/><circle cx="93" cy="132" r="3" transform="rotate(90 93 132)"/><circle cx="80" cy="93" r="3" transform="rotate(90 80 93)"/><circle cx="80" cy="132" r="3" transform="rotate(90 80 132)"/><circle cx="67" cy="93" r="3" transform="rotate(90 67 93)"/><circle cx="67" cy="132" r="3" transform="rotate(90 67 132)"/><circle cx="54" cy="93" r="3" transform="rotate(90 54 93)"/><circle cx="54" cy="132" r="3" transform="rotate(90 54 132)"/><circle cx="41" cy="93" r="3" transform="rotate(90 41 93)"/><circle cx="41" cy="132" r="3" transform="rotate(90 41 132)"/><circle cx="28" cy="93" r="3" transform="rotate(90 28 93)"/><circle cx="28" cy="132" r="3" transform="rotate(90 28 132)"/><circle cx="15" cy="93" r="3" transform="rotate(90 15 93)"/><circle cx="15" cy="132" r="3" transform="rotate(90 15 132)"/><circle cx="3" cy="93" r="3" transform="rotate(90 3 93)"/><circle cx="3" cy="132" r="3" transform="rotate(90 3 132)"/><circle cx="118" cy="106" r="3" transform="rotate(90 118 106)"/><circle cx="118" cy="145" r="3" transform="rotate(90 118 145)"/><circle cx="105" cy="106" r="3" transform="rotate(90 105 106)"/><circle cx="105" cy="145" r="3" transform="rotate(90 105 145)"/><circle cx="93" cy="106" r="3" transform="rotate(90 93 106)"/><circle cx="93" cy="145" r="3" transform="rotate(90 93 145)"/><circle cx="80" cy="106" r="3" transform="rotate(90 80 106)"/><circle cx="80" cy="145" r="3" transform="rotate(90 80 145)"/><circle cx="67" cy="106" r="3" transform="rotate(90 67 106)"/><circle cx="67" cy="145" r="3" transform="rotate(90 67 145)"/><circle cx="54" cy="106" r="3" transform="rotate(90 54 106)"/><circle cx="54" cy="145" r="3" transform="rotate(90 54 145)"/><circle cx="41" cy="106" r="3" transform="rotate(90 41 106)"/><circle cx="41" cy="145" r="3" transform="rotate(90 41 145)"/><circle cx="28" cy="106" r="3" transform="rotate(90 28 106)"/><circle cx="28" cy="145" r="3" transform="rotate(90 28 145)"/><circle cx="15" cy="106" r="3" transform="rotate(90 15 106)"/><circle cx="15" cy="145" r="3" transform="rotate(90 15 145)"/><circle cx="3" cy="106" r="3" transform="rotate(90 3 106)"/><circle cx="3" cy="145" r="3" transform="rotate(90 3 145)"/></g></svg><svg fill="none" viewBox="0 0 121 109" id="dots-5" xmlns="http://www.w3.org/2000/svg"><g opacity=".5" fill="#EE9591"><circle cx="54" cy="3" r="3" transform="rotate(90 54 3)"/><circle cx="41" cy="3" r="3" transform="rotate(90 41 3)"/><circle cx="28" cy="3" r="3" transform="rotate(90 28 3)"/><circle cx="15" cy="3" r="3" transform="rotate(90 15 3)"/><circle cx="3" cy="3" r="3" transform="rotate(90 3 3)"/><circle cx="54" cy="16" r="3" transform="rotate(90 54 16)"/><circle cx="41" cy="16" r="3" transform="rotate(90 41 16)"/><circle cx="28" cy="16" r="3" transform="rotate(90 28 16)"/><circle cx="15" cy="16" r="3" transform="rotate(90 15 16)"/><circle cx="3" cy="16" r="3" transform="rotate(90 3 16)"/><circle cx="54" cy="29" r="3" transform="rotate(90 54 29)"/><circle cx="41" cy="29" r="3" transform="rotate(90 41 29)"/><circle cx="28" cy="29" r="3" transform="rotate(90 28 29)"/><circle cx="15" cy="29" r="3" transform="rotate(90 15 29)"/><circle cx="3" cy="29" r="3" transform="rotate(90 3 29)"/><circle cx="54" cy="42" r="3" transform="rotate(90 54 42)"/><circle cx="41" cy="42" r="3" transform="rotate(90 41 42)"/><circle cx="28" cy="42" r="3" transform="rotate(90 28 42)"/><circle cx="15" cy="42" r="3" transform="rotate(90 15 42)"/><circle cx="3" cy="42" r="3" transform="rotate(90 3 42)"/><circle cx="118" cy="54" r="3" transform="rotate(90 118 54)"/><circle cx="105" cy="54" r="3" transform="rotate(90 105 54)"/><circle cx="93" cy="54" r="3" transform="rotate(90 93 54)"/><circle cx="80" cy="54" r="3" transform="rotate(90 80 54)"/><circle cx="67" cy="54" r="3" transform="rotate(90 67 54)"/><circle cx="54" cy="54" r="3" transform="rotate(90 54 54)"/><circle cx="41" cy="54" r="3" transform="rotate(90 41 54)"/><circle cx="28" cy="54" r="3" transform="rotate(90 28 54)"/><circle cx="15" cy="54" r="3" transform="rotate(90 15 54)"/><circle cx="3" cy="54" r="3" transform="rotate(90 3 54)"/><circle cx="118" cy="67" r="3" transform="rotate(90 118 67)"/><circle cx="105" cy="67" r="3" transform="rotate(90 105 67)"/><circle cx="93" cy="67" r="3" transform="rotate(90 93 67)"/><circle cx="80" cy="67" r="3" transform="rotate(90 80 67)"/><circle cx="67" cy="67" r="3" transform="rotate(90 67 67)"/><circle cx="54" cy="67" r="3" transform="rotate(90 54 67)"/><circle cx="41" cy="67" r="3" transform="rotate(90 41 67)"/><circle cx="28" cy="67" r="3" transform="rotate(90 28 67)"/><circle cx="15" cy="67" r="3" transform="rotate(90 15 67)"/><circle cx="3" cy="67" r="3" transform="rotate(90 3 67)"/><circle cx="118" cy="80" r="3" transform="rotate(90 118 80)"/><circle cx="105" cy="80" r="3" transform="rotate(90 105 80)"/><circle cx="93" cy="80" r="3" transform="rotate(90 93 80)"/><circle cx="80" cy="80" r="3" transform="rotate(90 80 80)"/><circle cx="67" cy="80" r="3" transform="rotate(90 67 80)"/><circle cx="54" cy="80" r="3" transform="rotate(90 54 80)"/><circle cx="41" cy="80" r="3" transform="rotate(90 41 80)"/><circle cx="28" cy="80" r="3" transform="rotate(90 28 80)"/><circle cx="15" cy="80" r="3" transform="rotate(90 15 80)"/><circle cx="3" cy="80" r="3" transform="rotate(90 3 80)"/><circle cx="118" cy="93" r="3" transform="rotate(90 118 93)"/><circle cx="105" cy="93" r="3" transform="rotate(90 105 93)"/><circle cx="93" cy="93" r="3" transform="rotate(90 93 93)"/><circle cx="80" cy="93" r="3" transform="rotate(90 80 93)"/><circle cx="67" cy="93" r="3" transform="rotate(90 67 93)"/><circle cx="54" cy="93" r="3" transform="rotate(90 54 93)"/><circle cx="41" cy="93" r="3" transform="rotate(90 41 93)"/><circle cx="28" cy="93" r="3" transform="rotate(90 28 93)"/><circle cx="15" cy="93" r="3" transform="rotate(90 15 93)"/><circle cx="3" cy="93" r="3" transform="rotate(90 3 93)"/><circle cx="118" cy="106" r="3" transform="rotate(90 118 106)"/><circle cx="105" cy="106" r="3" transform="rotate(90 105 106)"/><circle cx="93" cy="106" r="3" transform="rotate(90 93 106)"/><circle cx="80" cy="106" r="3" transform="rotate(90 80 106)"/><circle cx="67" cy="106" r="3" transform="rotate(90 67 106)"/><circle cx="54" cy="106" r="3" transform="rotate(90 54 106)"/><circle cx="41" cy="106" r="3" transform="rotate(90 41 106)"/><circle cx="28" cy="106" r="3" transform="rotate(90 28 106)"/><circle cx="15" cy="106" r="3" transform="rotate(90 15 106)"/><circle cx="3" cy="106" r="3" transform="rotate(90 3 106)"/></g></svg><svg fill="none" viewBox="0 0 72 72" id="dots-6" xmlns="http://www.w3.org/2000/svg"><g opacity=".5" fill="#EE9591"><circle cx="36" cy="70" r="2" transform="rotate(-90 36 70)"/><circle cx="45" cy="70" r="2" transform="rotate(-90 45 70)"/><circle cx="53" cy="70" r="2" transform="rotate(-90 53 70)"/><circle cx="62" cy="70" r="2" transform="rotate(-90 62 70)"/><circle cx="70" cy="70" r="2" transform="rotate(-90 70 70)"/><circle cx="36" cy="61" r="2" transform="rotate(-90 36 61)"/><circle cx="45" cy="61" r="2" transform="rotate(-90 45 61)"/><circle cx="53" cy="61" r="2" transform="rotate(-90 53 61)"/><circle cx="62" cy="61" r="2" transform="rotate(-90 62 61)"/><circle cx="70" cy="61" r="2" transform="rotate(-90 70 61)"/><circle cx="36" cy="53" r="2" transform="rotate(-90 36 53)"/><circle cx="45" cy="53" r="2" transform="rotate(-90 45 53)"/><circle cx="53" cy="53" r="2" transform="rotate(-90 53 53)"/><circle cx="62" cy="53" r="2" transform="rotate(-90 62 53)"/><circle cx="70" cy="53" r="2" transform="rotate(-90 70 53)"/><circle cx="36" cy="44" r="2" transform="rotate(-90 36 44)"/><circle cx="45" cy="44" r="2" transform="rotate(-90 45 44)"/><circle cx="53" cy="44" r="2" transform="rotate(-90 53 44)"/><circle cx="62" cy="44" r="2" transform="rotate(-90 62 44)"/><circle cx="70" cy="44" r="2" transform="rotate(-90 70 44)"/><circle cx="2" cy="36" r="2" transform="rotate(-90 2 36)"/><circle cx="11" cy="36" r="2" transform="rotate(-90 11 36)"/><circle cx="19" cy="36" r="2" transform="rotate(-90 19 36)"/><circle cx="28" cy="36" r="2" transform="rotate(-90 28 36)"/><circle cx="36" cy="36" r="2" transform="rotate(-90 36 36)"/><circle cx="45" cy="36" r="2" transform="rotate(-90 45 36)"/><circle cx="53" cy="36" r="2" transform="rotate(-90 53 36)"/><circle cx="62" cy="36" r="2" transform="rotate(-90 62 36)"/><circle cx="70" cy="36" r="2" transform="rotate(-90 70 36)"/><circle cx="2" cy="27" r="2" transform="rotate(-90 2 27)"/><circle cx="11" cy="27" r="2" transform="rotate(-90 11 27)"/><circle cx="19" cy="27" r="2" transform="rotate(-90 19 27)"/><circle cx="28" cy="27" r="2" transform="rotate(-90 28 27)"/><circle cx="36" cy="27" r="2" transform="rotate(-90 36 27)"/><circle cx="45" cy="27" r="2" transform="rotate(-90 45 27)"/><circle cx="53" cy="27" r="2" transform="rotate(-90 53 27)"/><circle cx="62" cy="27" r="2" transform="rotate(-90 62 27)"/><circle cx="70" cy="27" r="2" transform="rotate(-90 70 27)"/><circle cx="2" cy="19" r="2" transform="rotate(-90 2 19)"/><circle cx="11" cy="19" r="2" transform="rotate(-90 11 19)"/><circle cx="19" cy="19" r="2" transform="rotate(-90 19 19)"/><circle cx="28" cy="19" r="2" transform="rotate(-90 28 19)"/><circle cx="36" cy="19" r="2" transform="rotate(-90 36 19)"/><circle cx="45" cy="19" r="2" transform="rotate(-90 45 19)"/><circle cx="53" cy="19" r="2" transform="rotate(-90 53 19)"/><circle cx="62" cy="19" r="2" transform="rotate(-90 62 19)"/><circle cx="70" cy="19" r="2" transform="rotate(-90 70 19)"/><circle cx="2" cy="10" r="2" transform="rotate(-90 2 10)"/><circle cx="11" cy="10" r="2" transform="rotate(-90 11 10)"/><circle cx="19" cy="10" r="2" transform="rotate(-90 19 10)"/><circle cx="28" cy="10" r="2" transform="rotate(-90 28 10)"/><circle cx="36" cy="10" r="2" transform="rotate(-90 36 10)"/><circle cx="45" cy="10" r="2" transform="rotate(-90 45 10)"/><circle cx="53" cy="10" r="2" transform="rotate(-90 53 10)"/><circle cx="62" cy="10" r="2" transform="rotate(-90 62 10)"/><circle cx="70" cy="10" r="2" transform="rotate(-90 70 10)"/><circle cx="2" cy="2" r="2" transform="rotate(-90 2 2)"/><circle cx="11" cy="2" r="2" transform="rotate(-90 11 2)"/><circle cx="19" cy="2" r="2" transform="rotate(-90 19 2)"/><circle cx="28" cy="2" r="2" transform="rotate(-90 28 2)"/><circle cx="36" cy="2" r="2" transform="rotate(-90 36 2)"/><circle cx="45" cy="2" r="2" transform="rotate(-90 45 2)"/><circle cx="53" cy="2" r="2" transform="rotate(-90 53 2)"/><circle cx="62" cy="2" r="2" transform="rotate(-90 62 2)"/><circle cx="70" cy="2" r="2" transform="rotate(-90 70 2)"/></g></svg><svg fill="none" viewBox="0 0 80 80" id="facebook-logo" xmlns="http://www.w3.org/2000/svg"><path d="M80 40C80 17.906 62.094 0 40 0S0 17.906 0 40c0 19.969 14.625 36.516 33.75 39.516V51.562H23.594V40H33.75v-8.813c0-10.023 5.969-15.562 15.11-15.562 4.374 0 8.953.781 8.953.781v9.844h-5.047c-4.97 0-6.516 3.086-6.516 6.25V40h11.094L55.57 51.563h-9.32v27.953C65.375 76.516 80 59.969 80 40Z" fill="#1877F2"/><path d="M55.57 51.563 57.344 40H46.25v-7.5c0-3.164 1.547-6.25 6.516-6.25h5.047v-9.844s-4.579-.781-8.954-.781c-9.14 0-15.109 5.539-15.109 15.563V40H23.594v11.563H33.75v27.953c2.039.32 4.125.484 6.25.484s4.211-.164 6.25-.484V51.562h9.32Z" fill="#fff"/></svg><svg fill="none" viewBox="0 0 465 281" id="footer-decor" xmlns="http://www.w3.org/2000/svg"><g opacity=".5" clip-path="url(#apa)"><path d="M1.4 281s-7.747-82.446 26.284-112.877c32.04-22.866 58.693-36.752 113.011-38.502s84.096-1.759 116.516-37.623C289.63 56.135 333.461 1.943 382.478.123c47.309-1.76 76.216 13.121 103.37 118.127 27.155 105.005-.88 159.25-1.761 160.12-.607.625-482.686 2.63-482.686 2.63Z" fill="#FFF7F7"/><path d="M221.885 212.482c2.985-36.057-8.135-88.824 4.843-96.167 12.811-7.238 17.178-9.604 30.474-24.317C289.613 56.126 333.417 1.934 382.478.123c47.309-1.76 76.216 13.121 103.37 118.127 13.577 52.503 12.776 80.24 11.447 96.818-.722 9.12-1.444 20.992-1.885 21.423-.607.624-275.999 5.936-273.525-24.009ZM112.167 96.088l-3.892 183.153c0 1.31 3.522.879 4.403.879h5.283l-.811-183.733 31.469.88-13.665-77.102a8.355 8.355 0 0 0-2.862-4.95 8.373 8.373 0 0 0-5.379-1.953H105a10.715 10.715 0 0 0-6.884 2.478 10.69 10.69 0 0 0-3.682 6.316L81.13 95.516l31.037.572Z" fill="#FFDCDA"/><path d="m108.275 279.241 3.892-183.153 4.984.299.81 183.733h-5.283c-.881 0-4.403.431-4.403-.879Z" fill="#EE9591"/><path d="M57.981 236.957s-.193 7.177 1.022 7.977c.522.409 1.12.708 1.76.879l6.05 32.601s17.733 3.219 26.6-.404l6.049-32.205 2.016-.809.81-8.047s-21.74-7.238-44.307.008Z" fill="#FFDCDA"/><path d="M60.015 245.602s23.774 1.821 26.582 1.02c2.81-.8 2.017-7.246 2.017-7.246l11.684-1.205s0 6.842-.81 7.651a11.15 11.15 0 0 0-2.016 3.623c0 .405-4.834 29.022-4.834 29.022s-7.66 1.205-8.867 1.205c-1.206 0 3.223-23.701 3.223-25.363 0-1.662 0-4.828-1.207-4.828-1.206 0-24.513.694-24.654-1.9a4.331 4.331 0 0 0-1.118-1.979Z" fill="#EE9591"/><path d="M69.375 238.461s-6.63-4.652-10.152-5.074c-3.522-.422-7.608-.88-11.13-1.425-3.522-.545-8.012-2.119-7.924-4.177.088-2.058.51-3.043 2.58-4.266a13.978 13.978 0 0 1 5.785-2.137c1.55-.14 17.451 3.984 24.081 13.843l2.642 3.236h-5.882Z" fill="#888"/><path d="M46.42 226.958s6.093-.079 9.43 1.003a53.452 53.452 0 0 1 7.564 3.518l9.976 6.938" fill="#F7C7C4"/><path d="M46.42 226.958s6.093-.079 9.43 1.003a53.452 53.452 0 0 1 7.564 3.518l9.976 6.938" stroke="#fff" stroke-width=".38" stroke-miterlimit="10" stroke-linecap="round"/><path d="M76.357 238.189s-7.713-10.466-10.715-13.412c-3.003-2.946-6.516-6.314-9.413-9.392-2.897-3.078-6.55-7.493-5.01-9.305 1.541-1.811 2.642-3.043 5.45-2.638 2.197.234 4.3 1.011 6.12 2.26 1.55 1.003 15.558 14.344 17.61 29.673l2.016 3.104-6.058-.29Z" fill="#888"/><path d="M58.237 209.598s6.005 3.588 8.364 7.035c2.228 3.219 5.759 8.979 5.759 8.979l4.006 10.985" stroke="#fff" stroke-width=".38" stroke-miterlimit="10" stroke-linecap="round"/><path d="M80.214 238.707s-9.008-19.532-10.69-23.393c-1.681-3.861-8.558-9.674-10.081-13.614-1.523-3.94-2.492-6.807-.88-8.97 1.61-2.164 5.75-3.958 8.39-2.639 2.492 1.214 5.733 4.908 7.124 6.781 1.11 1.477 8.479 28.01 7.871 34.131l1.41 7.836-3.144-.132Z" fill="#F7C7C4"/><path d="M64.347 197.286s5.169 6.648 6.736 10.553c1.761 4.397 3.522 12.778 3.293 11.433l5.38 18.143" stroke="#fff" stroke-width=".38" stroke-miterlimit="10" stroke-linecap="round"/><path d="M75.274 238.558s-7.924-9.032-11.79-10.782c-3.865-1.75-8.259-3.729-12.036-5.611-3.777-1.882-8.312-5.074-7.546-6.991.766-1.918 1.55-2.691 4.28-3.052a18.625 18.625 0 0 1 7.184.193c1.761.458 18.315 10.448 22.567 22.312l1.964 4.089-4.623-.158Z" fill="#F7C7C4"/><path d="M51.21 216.81s6.86 2.251 10.267 4.555a69.318 69.318 0 0 1 7.36 6.209l7.608 11.063" stroke="#fff" stroke-width=".38" stroke-miterlimit="10" stroke-linecap="round"/><path d="M96.001 238.76s7.176-4.397 10.989-4.845c3.812-.449 8.223-.827 12.045-1.364 3.821-.536 8.673-2.022 8.576-3.992-.097-1.97-.546-2.911-2.791-4.081a16.427 16.427 0 0 0-6.261-2.04c-1.681-.132-18.886 3.799-26.062 13.191l-2.897 3.096 6.401.035Z" fill="#888"/><path d="M120.822 227.785s-6.586-.079-10.205.959a61.52 61.52 0 0 0-8.188 3.342l-9.571 6.42" fill="#F7C7C4"/><path d="M120.822 227.785s-6.586-.079-10.205.959a61.52 61.52 0 0 0-8.188 3.342l-9.571 6.42" stroke="#fff" stroke-width=".38" stroke-miterlimit="10" stroke-linecap="round"/><path d="M88.438 238.505s8.338-9.99 11.596-12.805c3.258-2.814 7.044-6.033 10.187-8.97 3.143-2.937 7.088-7.15 5.415-8.891-1.673-1.741-2.853-2.911-5.899-2.542a15.626 15.626 0 0 0-6.622 2.155c-1.681.95-16.835 13.702-19.053 28.336l-2.175 2.963 6.55-.246Z" fill="#888"/><path d="M108.055 211.216s-6.498 3.421-9.052 6.684c-2.412 3.078-6.225 8.575-6.225 8.575l-4.34 10.483" stroke="#fff" stroke-width=".38" stroke-miterlimit="10" stroke-linecap="round"/><path d="M84.282 239.007s9.747-18.653 11.56-22.347c1.814-3.693 9.263-9.216 10.91-12.998 1.646-3.782 2.694-6.508.968-8.566-1.725-2.058-6.225-3.781-9.077-2.55-2.695 1.161-6.164 4.687-7.705 6.473-1.197 1.415-9.175 26.743-8.523 32.601l-1.523 7.484 3.39-.097Z" fill="#F7C7C4"/><path d="M83.34 238.769s.783-18.204 2.641-24.114c1.26-3.914 2.492-10.554 4.138-14.291 1.647-3.738-.88-8.654-2.57-10.721-1.691-2.066-6.164-1.671-9.052-.448-2.694 1.161-4.244 4.916-4.588 6.921-.308 1.829 6.164 23.789 5.477 31.818l.555 10.941 3.399-.106Z" fill="#888"/><path d="M101.443 199.476s-5.592 6.349-7.291 10.069c-1.92 4.213-3.83 12.207-3.522 10.888l-6.33 17.765" stroke="#fff" stroke-width=".38" stroke-miterlimit="10" stroke-linecap="round"/><path d="M89.618 238.866s8.62-8.628 12.758-10.299c4.138-1.671 8.937-3.517 13.022-5.356 4.086-1.838 8.99-4.845 8.163-6.674-.828-1.83-1.682-2.568-4.632-2.911a22.764 22.764 0 0 0-7.775.184c-1.937.44-19.81 9.973-24.416 21.309l-2.122 3.905 5.002-.158Z" fill="#F7C7C4"/><path d="M115.663 218.084s-7.423 2.146-11.103 4.345a73.385 73.385 0 0 0-7.969 5.927l-8.4 9.305M81.561 193.082s1.497 15.593.625 19.788c-.36 1.758-.185 12.725-.185 12.725l-.36 12.145" stroke="#fff" stroke-width=".38" stroke-miterlimit="10" stroke-linecap="round"/><path d="m81.896 91.41 65.341 1.204 1.338 4.635-67.454-1.75.775-4.09Z" fill="#888"/><path d="m403.161 102.746-.537 128.231 81.534.22s.59-67.532-2.642-132.207l-78.188-1.17-.167 4.926ZM326.444 119.323l-2.166 111.953h69.691l-.493-111.953h-67.032Z" fill="#EE9591"/><path d="m225.24 185.018 100.165.518-1.127 45.74-98.66-.035-.378-46.223Z" fill="#EE9591"/><path d="m216.99 120.484.246 111.03s.608 6.983 7.291 7.282c6.683.299 270.091.413 270.091.413s2.351-7.361 1.444-7.669c-.907-.307-270.443-.299-270.443-.299s.079-3.931.079-6.446c0-2.797-.15-107.811-.15-107.811a46.323 46.323 0 0 1-8.558 3.5Z" fill="#fff"/><path d="m222.801 131.512 266.516 1.592 1.409 5.769-267.925 1.284v-8.645Z" fill="#fff"/><path d="M298.004 45.054V231.47l7.035.545V40.19l-7.035 4.864Z" fill="#fff"/><path d="m305.039 40.19 152.105.924-4.376-7.871-139.074-.07-8.655 7.017Z" fill="#fff"/><path d="M330.679 76.908c8.539 0 15.461-6.915 15.461-15.444 0-8.528-6.922-15.442-15.461-15.442-8.539 0-15.462 6.914-15.462 15.443 0 8.528 6.923 15.443 15.462 15.443Z" fill="#888"/><path d="M345.727 76.556c5.597 0 10.134-4.532 10.134-10.123 0-5.59-4.537-10.122-10.134-10.122-5.598 0-10.135 4.532-10.135 10.122s4.537 10.123 10.135 10.123ZM428.44 104.129c8.7 0 15.752-7.044 15.752-15.734 0-8.689-7.052-15.733-15.752-15.733-8.7 0-15.752 7.044-15.752 15.733 0 8.69 7.052 15.734 15.752 15.734Z" fill="#888"/><path d="M412.559 100.497c4.044 0 7.323-3.058 7.323-6.83 0-3.772-3.279-6.83-7.323-6.83-4.045 0-7.324 3.058-7.324 6.83 0 3.772 3.279 6.83 7.324 6.83Z" fill="#888"/><path d="m425.288 7.545-.159 223.925 6.499-.537 1.012-219.017-7.352-4.37Z" fill="#fff"/></g><defs><clipPath id="apa"><path fill="#fff" d="M0 0h498v281H0z"/></clipPath></defs></svg><svg fill="none" viewBox="0 0 80 80" id="gmail-logo" xmlns="http://www.w3.org/2000/svg"><path d="M0 40C0 17.909 17.909 0 40 0s40 17.909 40 40-17.909 40-40 40S0 62.091 0 40Z" fill="#fff"/><path d="M57.45 55.383H22.5a2.504 2.504 0 0 1-2.496-2.496V27.639a2.504 2.504 0 0 1 2.497-2.496H57.45a2.504 2.504 0 0 1 2.496 2.496v25.248a2.481 2.481 0 0 1-2.496 2.496Z" fill="#E3E3E3"/><path opacity=".1" d="M24.998 55.383 39.94 43.366l.107-.642-15.406-11.09-.035 23.215.392.534Z" fill="#231F20"/><path d="M22.502 55.383a2.48 2.48 0 0 1-2.497-2.496V27.603c0-1.39 1.106-1.64 2.497-1.64 1.39 0 2.496.285 2.496 1.64v27.78H22.5Z" fill="#D54B3D"/><path fill-rule="evenodd" clip-rule="evenodd" d="M20.005 27.603c0-1.355 1.106-1.64 2.497-1.64 1.39 0 2.496.25 2.496 1.64v27.78H22.5a2.48 2.48 0 0 1-2.496-2.496V27.603Zm4.636 0c0-.749-.356-1.284-2.14-1.284-1.783 0-2.14.5-2.14 1.284v25.284c0 1.177.964 2.14 2.14 2.14h2.14V27.603Z" fill="#D72B27"/><path d="M57.45 55.383h-2.497v-27.85c0-1.392 1.106-1.57 2.496-1.57 1.391 0 2.497.178 2.497 1.57v25.39c0 1.355-1.106 2.46-2.496 2.46Z" fill="#D54B3D"/><path fill-rule="evenodd" clip-rule="evenodd" d="M54.953 27.532c0-1.39 1.106-1.57 2.496-1.57 1.391 0 2.497.18 2.497 1.57v25.39a2.48 2.48 0 0 1-2.496 2.497h-2.497V27.532Zm4.636 0c0-.892-.535-1.212-2.14-1.212-1.604 0-2.14.285-2.14 1.212v27.53h2.14c1.177 0 2.14-.962 2.14-2.14v-25.39Z" fill="#D72B27"/><path d="M46.751 55.383 20.214 28.64l1.396.568L40.083 42.51l19.863-14.566v24.979c0 1.355-1.106 2.46-2.496 2.46H46.75Z" fill="url(#aqa)"/><path d="M39.94 43.365 21.075 29.672c-1.105-.82-1.426-2.39-.606-3.495.82-1.106 2.425-1.355 3.566-.535l15.94 11.59 16.048-11.733c1.105-.82 2.675-.57 3.495.57.82 1.106.57 2.675-.57 3.496l-19.008 13.8Z" fill="#D54B3D"/><path fill-rule="evenodd" clip-rule="evenodd" d="M55.987 25.464c.428-.321.963-.464 1.462-.464.785 0 1.534.357 2.033 1.07a2.54 2.54 0 0 1-.57 3.495L39.94 43.4l-18.865-13.73c-1.105-.82-1.426-2.389-.642-3.494a2.567 2.567 0 0 1 2.069-1.034c.535 0 1.07.142 1.497.463l15.94 11.59 16.048-11.732Zm3.21.784a2.179 2.179 0 0 0-1.748-.891c-.463 0-.891.142-1.283.392L40.154 37.48l-.214.143-.214-.143L23.82 25.927a2.061 2.061 0 0 0-1.284-.428c-.713 0-1.39.357-1.783.892-.678.927-.428 2.282.535 2.995l18.65 13.552 18.794-13.694a2.19 2.19 0 0 0 .464-2.996Z" fill="#D72B27"/><defs><linearGradient id="aqa" x1="20.216" y1="55.387" x2="59.959" y2="55.387" gradientUnits="userSpaceOnUse"><stop stop-opacity=".1"/><stop offset="1" stop-opacity=".2"/></linearGradient></defs></svg><svg fill="none" viewBox="0 0 80 80" id="google-logo" xmlns="http://www.w3.org/2000/svg"><path d="M0 40C0 17.909 17.909 0 40 0s40 17.909 40 40-17.909 40-40 40S0 62.091 0 40Z" fill="#fff"/><path d="M40 29.369c3.255 0 5.45 1.406 6.702 2.58l4.892-4.776C48.59 24.381 44.68 22.667 40 22.667c-6.78 0-12.634 3.89-15.484 9.552l5.604 4.353c1.406-4.18 5.296-7.203 9.88-7.203Z" fill="#EA4335"/><path d="M56.64 40.385c0-1.425-.116-2.465-.366-3.544H40v6.433h9.553c-.193 1.599-1.233 4.006-3.544 5.624l5.47 4.237c3.274-3.024 5.161-7.473 5.161-12.75Z" fill="#4285F4"/><path d="M30.14 43.428A10.668 10.668 0 0 1 29.56 40c0-1.194.212-2.35.559-3.428l-5.604-4.353A17.348 17.348 0 0 0 22.666 40c0 2.793.675 5.431 1.85 7.78l5.623-4.352Z" fill="#FBBC05"/><path d="M40 57.333c4.68 0 8.609-1.54 11.478-4.198l-5.47-4.237c-1.463 1.02-3.427 1.733-6.008 1.733-4.584 0-8.474-3.024-9.86-7.203l-5.605 4.353c2.85 5.662 8.686 9.552 15.465 9.552Z" fill="#34A853"/></svg><svg fill="none" viewBox="0 0 80 80" id="instagram-logo" xmlns="http://www.w3.org/2000/svg"><path d="M0 40C0 17.909 17.909 0 40 0s40 17.909 40 40-17.909 40-40 40S0 62.091 0 40Z" fill="#F7F7F7"/><mask id="asa" style="mask-type:luminance" maskUnits="userSpaceOnUse" x="0" y="0" width="80" height="80"><path fill-rule="evenodd" clip-rule="evenodd" d="M0 40C0 17.909 17.909 0 40 0s40 17.909 40 40-17.909 40-40 40S0 62.091 0 40Z" fill="#fff"/></mask><g mask="url(#asa)"><path fill-rule="evenodd" clip-rule="evenodd" d="M39.999 18.667c-5.791 0-6.518.025-8.794.129-2.27.104-3.82.463-5.177.99-1.403.546-2.594 1.275-3.78 2.46-1.186 1.187-1.915 2.377-2.462 3.78-.529 1.356-.889 2.907-.99 5.177-.103 2.276-.13 3.003-.13 8.797 0 5.794.026 6.519.13 8.795.104 2.27.464 3.821.99 5.177.546 1.404 1.275 2.594 2.461 3.78a10.445 10.445 0 0 0 3.778 2.462c1.357.527 2.908.887 5.179.991 2.275.104 3.002.129 8.795.129 5.795 0 6.52-.026 8.795-.129 2.271-.104 3.823-.464 5.18-.991a10.436 10.436 0 0 0 3.777-2.462c1.187-1.186 1.916-2.376 2.462-3.78.525-1.356.885-2.907.991-5.177.103-2.276.13-3 .13-8.795 0-5.794-.027-6.52-.13-8.796-.106-2.271-.466-3.822-.99-5.178-.547-1.403-1.276-2.593-2.463-3.78a10.425 10.425 0 0 0-3.778-2.46c-1.36-.527-2.91-.886-5.182-.99-2.275-.104-3-.13-8.792-.13Zm-1.91 3.844H40.001c5.696 0 6.371.02 8.62.123 2.08.095 3.21.443 3.962.735.995.386 1.705.849 2.451 1.595.747.747 1.209 1.458 1.597 2.454.291.75.64 1.88.734 3.96.102 2.248.125 2.924.125 8.617 0 5.694-.023 6.37-.125 8.618-.095 2.08-.443 3.21-.734 3.96-.387.996-.85 1.705-1.597 2.451-.747.747-1.455 1.209-2.451 1.596-.752.293-1.881.64-3.961.735-2.25.102-2.925.124-8.621.124-5.697 0-6.372-.022-8.62-.124-2.08-.096-3.21-.444-3.962-.736-.996-.386-1.707-.849-2.453-1.595-.747-.747-1.21-1.456-1.597-2.452-.292-.752-.64-1.88-.734-3.96-.103-2.25-.123-2.925-.123-8.622s.02-6.369.123-8.618c.095-2.08.442-3.209.734-3.96.387-.996.85-1.707 1.597-2.454.746-.747 1.457-1.209 2.453-1.596.752-.294 1.881-.64 3.961-.736 1.968-.089 2.731-.116 6.707-.12v.005Zm10.74 6.102a2.56 2.56 0 1 1 5.119.001 2.56 2.56 0 0 1-5.118-.001Zm-8.828.432c-6.05 0-10.955 4.905-10.955 10.955s4.906 10.954 10.956 10.954S50.956 46.05 50.956 40c0-6.05-4.904-10.955-10.955-10.955ZM47.114 40a7.111 7.111 0 1 0-14.222 0 7.111 7.111 0 0 0 14.222 0Z" fill="#000"/></g></svg><svg fill="none" viewBox="0 0 80 80" id="linkedin-logo" xmlns="http://www.w3.org/2000/svg"><path d="M0 40C0 17.909 17.909 0 40 0s40 17.909 40 40-17.909 40-40 40S0 62.091 0 40Z" fill="#0077B5"/><path fill-rule="evenodd" clip-rule="evenodd" d="M28.865 24.704c0 2.616-1.969 4.708-5.13 4.708h-.058c-3.043 0-5.01-2.092-5.01-4.707 0-2.671 2.027-4.705 5.128-4.705s5.01 2.034 5.07 4.704Zm-.598 8.426v27.236h-9.064V33.13h9.064ZM60.96 60.366V44.749c0-8.365-4.472-12.259-10.437-12.259-4.813 0-6.968 2.644-8.17 4.498V33.13h-9.067c.12 2.556 0 27.237 0 27.237h9.066V45.156c0-.814.059-1.626.299-2.21.655-1.625 2.147-3.309 4.65-3.309 3.282 0 4.594 2.498 4.594 6.158v14.571h9.065Z" fill="#fff"/></svg><svg fill="none" viewBox="0 0 76 76" id="mentoring" xmlns="http://www.w3.org/2000/svg"><path d="M74.366 21.82c5.476 13.642-3.375 35.353-18.15 45.28-14.773 9.927-35.406 8.134-46.296-1.217-10.889-9.35-12.035-26.258-7.196-39.067C7.564 14.07 18.39 5.425 33.737 3.952 49.084 2.479 68.89 8.179 74.366 21.82Z" fill="#F7C7C4"/><path fill-rule="evenodd" clip-rule="evenodd" d="M20 39c0-9.941 8.059-18 18-18s18 8.059 18 18-8.059 18-18 18-18-8.059-18-18Zm18-21c-11.598 0-21 9.402-21 21s9.402 21 21 21 21-9.402 21-21-9.402-21-21-21Zm-4.5 18.75a2.25 2.25 0 1 1-4.5 0 2.25 2.25 0 0 1 4.5 0Zm-4.468 7.703C30.165 48.231 33.747 51 38.005 51c4.258 0 7.84-2.769 8.964-6.547a.75.75 0 0 0-.733-.953H29.765a.75.75 0 0 0-.733.953ZM44.75 39a2.25 2.25 0 1 0 0-4.5 2.25 2.25 0 0 0 0 4.5Z" fill="#888"/></svg><svg fill="none" viewBox="0 0 80 80" id="messenger-logo" xmlns="http://www.w3.org/2000/svg"><path d="M40 80c22.091 0 40-17.909 40-40S62.091 0 40 0 0 17.909 0 40s17.909 40 40 40Z" fill="#fff"/><path d="M24.762 55.403v8.538l7.984-4.54c2.225.642 4.59.988 7.042.988 13.138 0 23.787-9.937 23.787-22.194C63.575 25.937 52.926 16 39.788 16S16 25.937 16 38.195c0 6.94 3.415 13.138 8.762 17.208Z" fill="url(#ava)"/><path d="M37.247 32.116 24.42 45.699l11.675-6.406 6.1 6.406L54.95 32.116l-11.545 6.293-6.158-6.293Z" fill="#fff"/><defs><linearGradient id="ava" x1="18.655" y1="19.241" x2="18.655" y2="61.831" gradientUnits="userSpaceOnUse"><stop stop-color="#00C6FF"/><stop offset="1" stop-color="#0068FF"/></linearGradient></defs></svg><svg fill="none" viewBox="0 0 76 77" id="product-knowledge" xmlns="http://www.w3.org/2000/svg"><path d="M62.43 13.009c6.27 6.513 11.116 13.454 12.446 21.06 1.33 7.56-.902 15.784-4.798 23.485-3.848 7.702-9.406 14.928-16.722 17.828-7.315 2.9-16.389 1.52-25.652-1.141-9.216-2.663-18.622-6.56-23.088-13.597C.151 53.561.626 43.34 3.238 34.354c2.566-9.032 7.316-16.781 13.92-23.247C23.76 4.69 32.263-.445 40.34.031c8.076.475 15.772 6.513 22.09 12.978Z" fill="#F7C7C4"/><path fill-rule="evenodd" clip-rule="evenodd" d="M27 20c-1.492 0-2.862.406-3.947 1.307-1.08.898-1.737 2.17-2.023 3.646L18.039 39.16c-.026.11-.039.223-.039.34v10.504A6.013 6.013 0 0 0 23.996 56H54.004A6.013 6.013 0 0 0 60 50.004V39.5c0-.117-.013-.23-.039-.34l-2.99-14.202c-.288-1.54-.978-2.818-2.079-3.702C53.794 20.375 52.431 20 51 20H27Zm18 18h11.651l-2.619-12.441a1.423 1.423 0 0 1-.007-.036c-.182-.983-.57-1.573-1.011-1.928-.45-.36-1.1-.595-2.014-.595H27c-.946 0-1.591.25-2.03.615-.44.365-.813.963-.997 1.918l-.005.026L21.348 38H33a1.5 1.5 0 0 1 1.5 1.5 4.5 4.5 0 1 0 9 0A1.5 1.5 0 0 1 45 38Zm1.349 3a7.5 7.5 0 0 1-14.697 0H21v8.998A3.013 3.013 0 0 0 24.003 53h29.994A3.013 3.013 0 0 0 57 49.997V41H46.349ZM27 27.5a1.5 1.5 0 0 1 1.5-1.5h21a1.5 1.5 0 0 1 0 3h-21a1.5 1.5 0 0 1-1.5-1.5Zm0 4.5a1.5 1.5 0 0 0 0 3h24a1.5 1.5 0 0 0 0-3H27Z" fill="#888"/></svg><svg fill="none" viewBox="0 0 76 76" id="rewards" xmlns="http://www.w3.org/2000/svg"><path d="M1.634 21.82C-3.842 35.462 5.01 57.173 19.784 67.1c14.773 9.927 35.406 8.134 46.296-1.217 10.889-9.35 12.035-26.258 7.195-39.067C68.435 14.07 57.61 5.425 42.263 3.952 26.916 2.479 7.11 8.179 1.634 21.82Z" fill="#F7C7C4"/><path fill-rule="evenodd" clip-rule="evenodd" d="M27.5 29c0-5.799 4.701-10.5 10.5-10.5S48.5 23.201 48.5 29c0 1.822-.464 3.535-1.28 5.028a1.5 1.5 0 0 0-.267.46 10.511 10.511 0 0 1-7 4.83A10.56 10.56 0 0 1 38 39.5c-5.799 0-10.5-4.701-10.5-10.5Zm24 0c0 2.162-.508 4.206-1.412 6.018l8.724 15.755A1.5 1.5 0 0 1 57.492 53l-8.143-.04-4.06 6.809a1.5 1.5 0 0 1-2.655-.148L38 49.425l-4.635 10.196a1.5 1.5 0 0 1-2.653.148L26.65 52.96 18.507 53a1.5 1.5 0 0 1-1.318-2.228l8.736-15.727A13.444 13.444 0 0 1 24.5 29c0-7.456 6.044-13.5 13.5-13.5S51.5 21.544 51.5 29ZM41.337 42.084a13.5 13.5 0 0 0 6.877-4.257l6.734 12.16-5.584-.026a3.001 3.001 0 0 0-2.59 1.462h-.001l-2.593 4.348-4.532-9.97 1.689-3.717Zm-3.484.415-1.208 2.658-.02.044-4.805 10.57-2.593-4.348a3 3 0 0 0-2.591-1.462l-5.58.027 6.745-12.142a13.468 13.468 0 0 0 10.052 4.653ZM33.5 29a4.5 4.5 0 1 1 9 0 4.5 4.5 0 0 1-9 0Zm4.5-7.5a7.5 7.5 0 1 0 0 15 7.5 7.5 0 0 0 0-15Z" fill="#888"/></svg><svg fill="none" viewBox="0 0 76 77" id="routine" xmlns="http://www.w3.org/2000/svg"><path d="M62.43 13.009c6.27 6.513 11.116 13.454 12.446 21.06 1.33 7.56-.902 15.784-4.798 23.485-3.848 7.702-9.406 14.928-16.722 17.828-7.315 2.9-16.389 1.52-25.652-1.141-9.216-2.663-18.622-6.56-23.088-13.597C.151 53.561.626 43.34 3.238 34.354c2.566-9.032 7.316-16.781 13.92-23.247C23.76 4.69 32.263-.445 40.34.031c8.076.475 15.772 6.513 22.09 12.978Z" fill="#F7C7C4"/><path fill-rule="evenodd" clip-rule="evenodd" d="M28.914 22C23.09 22 18.559 26.857 18.5 32.56c-.021 2.098.28 4.074.842 5.94H18.5a1.5 1.5 0 0 0 0 3h2.005c3.124 6.557 9.454 11.668 15.808 15.98a3 3 0 0 0 3.374 0c5.35-3.631 10.684-7.83 14.1-12.98H57.5a1.5 1.5 0 0 0 0-3h-2.006c1.294-2.716 2.038-5.68 2.006-8.939C57.44 26.857 52.91 22 47.086 22c-3.575 0-6.204 1.77-7.882 3.436-.467.463-.868.926-1.204 1.353-.336-.427-.737-.89-1.204-1.354C35.118 23.77 32.49 22 28.914 22ZM52.11 41.5c1.541-2.72 2.421-5.665 2.39-8.91-.044-4.17-3.346-7.59-7.415-7.59-2.511 0-4.425 1.23-5.768 2.564a12.083 12.083 0 0 0-1.508 1.833 10.124 10.124 0 0 0-.452.742l-.016.032-.002.003-2.452.333a1.497 1.497 0 0 1-.228-.332l-.002-.004-.009-.017-.007-.015a10.18 10.18 0 0 0-.452-.742c-.336-.501-.84-1.169-1.508-1.832C33.34 26.23 31.425 25 28.914 25c-4.069 0-7.371 3.42-7.414 7.591l10.22-1.384.438-.878a1.5 1.5 0 0 1 2.779.24l.058.194 1.893-.256-1.893.256 3.355 11.183 2.808-5.617a1.5 1.5 0 0 1 2.684 0l2.585 5.171h5.684ZM31.72 31.207 21.5 32.59c-.021 2.087.336 4.05 1.003 5.909h5.57l3.646-7.293ZM23.887 41.5c2.912 5.14 8.183 9.476 14.11 13.5h.003c4.739-3.217 9.058-6.633 12.087-10.5H45.5a1.5 1.5 0 0 1-1.342-.83L42.5 40.355l-3.158 6.317a1.5 1.5 0 0 1-2.779-.24L33.15 35.054l-2.808 5.617A1.5 1.5 0 0 1 29 41.5h-5.112Zm13-10.993 2.452-.333a1.5 1.5 0 0 1-2.452.333Z" fill="#888"/></svg><svg fill="none" viewBox="0 0 76 76" id="skin-care" xmlns="http://www.w3.org/2000/svg"><path d="M74.366 21.82c5.476 13.642-3.375 35.353-18.15 45.28-14.773 9.927-35.406 8.134-46.296-1.217-10.889-9.35-12.035-26.258-7.196-39.067C7.564 14.07 18.39 5.425 33.737 3.952 49.084 2.479 68.89 8.179 74.366 21.82Z" fill="#F7C7C4"/><path fill-rule="evenodd" clip-rule="evenodd" d="M33.5 17a1.5 1.5 0 0 0-1.451 1.88c1.134 4.332-.75 8.022-3.328 12.054-.29.452-.589.91-.892 1.375-1.003 1.538-2.047 3.138-2.884 4.747C23.84 39.179 23 41.483 23 44a15 15 0 0 0 30 0c0-8.626-3.093-15.345-7.045-19.918C42.067 19.582 37.188 17 33.5 17Zm-2.252 15.55c2.245-3.51 4.521-7.531 4.084-12.277 2.428.662 5.561 2.539 8.353 5.77C47.187 30.095 50 36.126 50 44a12 12 0 0 1-6.09 10.443c1.02-1.487 1.59-3.475 1.59-5.943 0-3.124-1.436-6.434-3.327-8.934-.956-1.264-2.071-2.379-3.26-3.19C37.74 35.574 36.391 35 35 35a1.5 1.5 0 0 0-1.474 1.78c.272 1.428-.233 2.643-1.107 4.54l-.044.095c-.833 1.807-1.875 4.068-1.875 7.085 0 2.468.57 4.456 1.59 5.943A11.997 11.997 0 0 1 26 44c0-1.842.613-3.651 1.606-5.56.762-1.465 1.693-2.892 2.678-4.402.317-.486.64-.98.964-1.488Zm3.948 9.912c.547-1.187 1.16-2.515 1.346-4.019.217.113.444.249.68.41.868.593 1.756 1.463 2.558 2.523 1.625 2.148 2.72 4.838 2.72 7.124 0 2.43-.67 3.9-1.469 4.752-.8.852-1.88 1.248-3.031 1.248-1.151 0-2.232-.396-3.031-1.248-.8-.852-1.469-2.323-1.469-4.752 0-2.34.796-4.085 1.644-5.925l.052-.113Z" fill="#888"/></svg><svg fill="none" viewBox="0 0 80 80" id="slack-logo" xmlns="http://www.w3.org/2000/svg"><path d="M0 40C0 17.909 17.909 0 40 0s40 17.909 40 40-17.909 40-40 40S0 62.091 0 40Z" fill="#fff"/><path d="M27.56 45.661a4.519 4.519 0 0 1-4.509 4.508 4.519 4.519 0 0 1-4.508-4.508 4.52 4.52 0 0 1 4.508-4.508h4.508v4.508ZM29.83 45.661a4.519 4.519 0 0 1 4.509-4.508 4.52 4.52 0 0 1 4.508 4.508V56.95a4.52 4.52 0 0 1-4.508 4.508 4.519 4.519 0 0 1-4.508-4.508V45.661Z" fill="#E01E5A"/><path d="M34.339 27.56a4.519 4.519 0 0 1-4.508-4.509 4.519 4.519 0 0 1 4.508-4.508 4.52 4.52 0 0 1 4.508 4.508v4.508h-4.508ZM34.339 29.83a4.52 4.52 0 0 1 4.508 4.509 4.52 4.52 0 0 1-4.508 4.508H23.05a4.52 4.52 0 0 1-4.508-4.508 4.52 4.52 0 0 1 4.508-4.508H34.34Z" fill="#36C5F0"/><path d="M52.44 34.339a4.519 4.519 0 0 1 4.509-4.508 4.52 4.52 0 0 1 4.508 4.508 4.52 4.52 0 0 1-4.508 4.508H52.44v-4.508ZM50.17 34.339a4.52 4.52 0 0 1-4.509 4.508 4.52 4.52 0 0 1-4.508-4.508V23.05a4.52 4.52 0 0 1 4.508-4.508 4.52 4.52 0 0 1 4.508 4.508V34.34Z" fill="#2EB67D"/><path d="M45.661 52.44a4.52 4.52 0 0 1 4.508 4.509 4.519 4.519 0 0 1-4.508 4.508 4.519 4.519 0 0 1-4.508-4.508v-4.508h4.508ZM45.661 50.17a4.519 4.519 0 0 1-4.508-4.509 4.52 4.52 0 0 1 4.508-4.508H56.95a4.52 4.52 0 0 1 4.508 4.508 4.519 4.519 0 0 1-4.508 4.508H45.66Z" fill="#ECB22E"/></svg><svg fill="none" viewBox="0 0 143 34" id="syabany" xmlns="http://www.w3.org/2000/svg"><path fill-rule="evenodd" clip-rule="evenodd" d="M34 5.764A5.763 5.763 0 0 0 28.236 0H5.764A5.763 5.763 0 0 0 0 5.764v22.472A5.766 5.766 0 0 0 5.764 34h22.472A5.763 5.763 0 0 0 34 28.236V5.764Z" fill="#fff"/><path fill-rule="evenodd" clip-rule="evenodd" d="M21.09 11.316a3.5 3.5 0 0 0-4.95-4.95l-1.485 1.485a4.2 4.2 0 0 0 0 5.939l1.98 1.98 4.454-4.454ZM15.644 16.728l-1.236-1.237a1.75 1.75 0 0 0-2.474 0 1.749 1.749 0 1 0 2.474 2.474l1.236-1.237ZM22.078 22.167a4.2 4.2 0 0 0 0-5.939l-1.98-1.979-8.411 8.411a3.5 3.5 0 0 0 4.947 4.95l5.444-5.443Z" fill="#EE9591"/><path d="M42.086 27.004h-2.463c0 1.104.362 1.936 1.087 2.479.652.56 1.666.85 3.006.85 2.535 0 4.383-.868 4.383-3.22 0-.652-.218-1.23-.67-1.701-.526-.489-1.594-.905-3.224-1.23-1.25-.236-1.865-.616-1.865-1.104 0-.489.47-.742 1.412-.742.797 0 1.286.235 1.449.651.145.38.507.58 1.068.597h1.522c-.055-.995-.435-1.773-1.141-2.334-.725-.543-1.703-.814-2.934-.814-2.191.036-3.821 1.013-3.821 3.076.018 1.502 1.104 2.443 3.223 2.822 1.648.29 2.481.688 2.481 1.177 0 .615-.507.904-1.52.904-1.178 0-1.939-.362-1.993-1.411ZM49.683 30.894v1.972c.072.054.398.073 1.014.073 1.992 0 2.572-.543 3.151-2.117l3.785-10.386H55.95c-.616 0-.996.29-1.141.85l-1.666 5.79-1.902-6.64h-2.734l3.26 9.354c.18.616-.29 1.104-1.413 1.104h-.67ZM61.626 28.38c-.761 0-1.16-.363-1.214-1.123 0-.705.49-1.158 1.45-1.339a10.446 10.446 0 0 0 1.919-.579v.887c0 1.357-.815 2.153-2.155 2.153Zm.561-5.972c.996 0 1.503.272 1.558.814 0 .525-.526.833-1.558.96-2.427.235-4.093.85-4.147 3.148 0 2.117 1.593 3.184 3.894 3.003 2.59-.18 4.183-1.357 4.183-3.998v-3.257c-.054-1.773-1.395-2.642-4.039-2.642-2.209 0-3.459.869-3.748 2.642h2.408c.127-.453.598-.67 1.45-.67ZM69.742 17.13c0-.795-.399-1.211-1.196-1.211h-1.213v10.06c0 2.876 1.503 4.306 4.491 4.288 2.97-.055 4.455-1.665 4.455-4.85 0-3.256-1.267-4.92-3.82-5.011-1.196 0-2.102.488-2.717 1.483v-4.758Zm2.046 5.429c1.304 0 1.974.904 2.028 2.75 0 1.936-.688 2.913-2.064 2.913-1.376 0-2.028-.977-2.01-2.913.072-1.846.742-2.75 2.046-2.75ZM81.079 28.38c-.76 0-1.16-.363-1.214-1.123 0-.705.49-1.158 1.45-1.339a10.445 10.445 0 0 0 1.919-.579v.887c0 1.357-.815 2.153-2.155 2.153Zm.561-5.972c.996 0 1.503.272 1.558.814 0 .525-.526.833-1.558.96-2.427.235-4.093.85-4.147 3.148 0 2.117 1.594 3.184 3.894 3.003 2.59-.18 4.183-1.357 4.183-3.998v-3.257c-.054-1.773-1.394-2.642-4.038-2.642-2.21 0-3.46.869-3.75 2.642h2.41c.126-.453.597-.67 1.448-.67ZM94.951 30.351v-5.826c.019-2.732-1.322-4.089-4.056-4.089-2.735 0-4.111 1.357-4.111 4.09v5.825h2.445v-6.314c.018-.995.561-1.484 1.63-1.484 1.068 0 1.611.488 1.666 1.484v5.12c0 .76.398 1.14 1.195 1.194h1.231ZM105.459 30.295a1.663 1.663 0 1 0 .002-3.326 1.663 1.663 0 0 0-.002 3.326ZM96.535 30.894v1.972c.073.054.398.073 1.014.073 1.992 0 2.572-.543 3.151-2.117l3.785-10.386h-1.684c-.616 0-.996.29-1.141.85l-1.666 5.79-1.901-6.64h-2.735l3.26 9.354c.18.616-.29 1.104-1.413 1.104h-.67ZM116.823 27.25h-1.799c-.305 0-.575.108-.809.342-.396.45-.882.684-1.439.684-1.331.018-1.997-.936-1.997-2.825 0-1.888.63-2.842 1.889-2.842.755 0 1.259.342 1.547.99h2.608c-.413-2.07-1.781-3.095-4.083-3.095-2.933.054-4.39 1.691-4.39 4.947.072 3.274 1.547 4.93 4.426 4.93 2.212.053 3.616-1.188 4.047-3.13ZM122.684 20.503c-2.878 0-4.317 1.637-4.317 4.948 0 3.273 1.439 4.929 4.317 4.929s4.336-1.655 4.336-4.93c0-3.31-1.458-4.947-4.336-4.947Zm0 2.105c1.223 0 1.835.918 1.835 2.77-.018 1.89-.63 2.86-1.853 2.86-1.223 0-1.853-.935-1.871-2.787 0-1.89.63-2.843 1.889-2.843ZM132.583 22.608c1.061 0 1.601.486 1.655 1.475v6.08h2.411V24.12c.018-.99.557-1.475 1.619-1.475 1.061 0 1.601.486 1.655 1.475v4.893c0 .756.395 1.134 1.187 1.188h1.241v-5.595c.018-2.716-1.331-4.066-4.047-4.066-1.224 0-2.159.252-2.843.774-.683-.54-1.619-.81-2.842-.81-2.716 0-4.084 1.35-4.084 4.066v5.595h2.429v-6.08c.018-.99.558-1.476 1.619-1.476ZM39.705 8.95c.072 1.534 1.344 2.485 3.294 2.485 2.01 0 3.27-1.01 3.27-2.616 0-1.248-.737-1.95-2.497-2.319l-.916-.178c-1.046-.226-1.462-.594-1.462-1.165 0-.702.666-1.142 1.593-1.142.963 0 1.617.476 1.688 1.273h1.44c-.036-1.499-1.261-2.51-3.116-2.51-1.82 0-3.115 1-3.115 2.474 0 1.225.785 2.01 2.461 2.354l.904.19c1.094.226 1.51.595 1.51 1.201 0 .69-.702 1.19-1.712 1.19-1.047 0-1.796-.464-1.915-1.237h-1.427ZM52.821 5.141h-1.45v3.567c0 .892-.512 1.486-1.356 1.486-.808 0-1.236-.475-1.236-1.367V5.141h-1.451v3.983c0 1.427.856 2.283 2.188 2.283.94 0 1.557-.428 1.878-1.177h.036v1.07h1.391V5.141ZM57.495 5.003c-.891 0-1.593.452-1.938 1.166h-.035v-1.07h-1.404v8.18h1.44v-3.044h.035c.333.69 1.034 1.118 1.926 1.118 1.546 0 2.533-1.213 2.533-3.175 0-1.962-.999-3.175-2.557-3.175Zm-.44 5.173c-.903 0-1.498-.785-1.51-1.998.012-1.189.607-1.986 1.51-1.986.928 0 1.51.773 1.51 1.986 0 1.225-.582 1.998-1.51 1.998ZM64.477 5.003c-.892 0-1.593.452-1.938 1.166h-.035v-1.07H61.1v8.18h1.44v-3.044h.035c.333.69 1.034 1.118 1.926 1.118 1.546 0 2.533-1.213 2.533-3.175 0-1.962-1-3.175-2.557-3.175Zm-.44 5.173c-.903 0-1.498-.785-1.51-1.998.012-1.189.607-1.986 1.51-1.986.928 0 1.51.773 1.51 1.986 0 1.225-.582 1.998-1.51 1.998ZM70.804 11.4c1.807 0 2.972-1.202 2.972-3.2 0-1.985-1.177-3.198-2.972-3.198-1.796 0-2.985 1.213-2.985 3.199 0 1.997 1.177 3.198 2.985 3.198Zm0-1.142c-.916 0-1.51-.737-1.51-2.057 0-1.308.594-2.057 1.51-2.057.915 0 1.51.749 1.51 2.057 0 1.32-.595 2.057-1.51 2.057ZM74.832 11.258h1.438v-3.58c0-.867.5-1.39 1.32-1.39.238 0 .464.023.583.07V5.064c-.107-.024-.262-.06-.452-.06-.725 0-1.26.428-1.475 1.178h-.023V5.099h-1.391v6.159ZM79.428 3.681V5.12h-.88v1.118h.88v3.4c0 1.201.523 1.665 1.855 1.665.31 0 .595-.024.75-.048V10.15a3.898 3.898 0 0 1-.405.024c-.511 0-.75-.226-.75-.737V6.238h1.166V5.12H80.88V3.68h-1.45ZM89.08 11.395c1.558 0 2.545-1.201 2.545-3.175 0-1.962-.987-3.175-2.544-3.175-.868 0-1.57.44-1.915 1.154h-.035V2.917H85.68V11.3h1.415v-1.047h.035c.357.714 1.047 1.142 1.95 1.142Zm-.44-5.16c.916 0 1.499.772 1.499 1.985 0 1.225-.571 1.998-1.498 1.998-.892 0-1.522-.785-1.522-1.998 0-1.189.63-1.986 1.522-1.986ZM93.21 13.583c1.403 0 2.08-.511 2.604-2.033l2.235-6.409h-1.522l-1.45 4.923h-.036L93.603 5.14H92.02l2.188 6.16c0 .023-.083.332-.083.344-.167.57-.464.797-1.07.797-.084 0-.345 0-.417-.024v1.141c.072.024.488.024.571.024Z" fill="#fff"/></svg><svg fill="none" viewBox="0 0 80 80" id="telegram-logo" xmlns="http://www.w3.org/2000/svg"><path d="M40 80c22.091 0 40-17.909 40-40S62.091 0 40 0 0 17.909 0 40s17.909 40 40 40Z" fill="url(#bca)"/><path d="M14.897 41.957c4.676-2.576 9.896-4.726 14.773-6.886 8.39-3.54 16.814-7.017 25.322-10.255 1.656-.551 4.63-1.09 4.922 1.363-.16 3.472-.817 6.924-1.267 10.377-1.144 7.592-2.466 15.158-3.755 22.725-.445 2.52-3.602 3.825-5.622 2.212-4.856-3.28-9.748-6.527-14.542-9.883-1.57-1.595-.114-3.886 1.288-5.026 4-3.94 8.24-7.29 12.03-11.434 1.023-2.469-1.998-.388-2.994.25-5.475 3.772-10.816 7.775-16.587 11.09-2.949 1.624-6.385.237-9.332-.669-2.642-1.094-6.515-2.196-4.236-3.864Z" fill="#fff"/><defs><linearGradient id="bca" x1="30.005" y1="3.336" x2="10.005" y2="50" gradientUnits="userSpaceOnUse"><stop stop-color="#37AEE2"/><stop offset="1" stop-color="#1E96C8"/></linearGradient></defs></svg><svg fill="none" viewBox="0 0 80 80" id="trello-logo" xmlns="http://www.w3.org/2000/svg"><path d="M40 80c22.091 0 40-17.909 40-40S62.091 0 40 0 0 17.909 0 40s17.909 40 40 40Z" fill="url(#bda)"/><path fill-rule="evenodd" clip-rule="evenodd" d="M16 24.007A7.997 7.997 0 0 1 24.007 16h31.986A7.997 7.997 0 0 1 64 24.007v31.986A7.997 7.997 0 0 1 55.993 64H24.007A7.997 7.997 0 0 1 16 55.993V24.007Zm27.12 1.114V40.36A2.88 2.88 0 0 0 46 43.24h8.88a2.88 2.88 0 0 0 2.88-2.881V25.12a2.88 2.88 0 0 0-2.88-2.881H46a2.88 2.88 0 0 0-2.88 2.881ZM22.24 52.362V25.118c0-1.59 1.29-2.878 2.88-2.878H34c1.59 0 2.88 1.289 2.88 2.878v27.244c0 1.59-1.29 2.878-2.88 2.878h-8.88a2.879 2.879 0 0 1-2.88-2.878Z" fill="#fff"/><defs><linearGradient id="bda" x1="0" y1="0" x2="0" y2="80" gradientUnits="userSpaceOnUse"><stop stop-color="#0091E6"/><stop offset="1" stop-color="#0079BF"/></linearGradient></defs></svg><svg fill="none" viewBox="0 0 80 80" id="twitter-logo" xmlns="http://www.w3.org/2000/svg"><path d="M0 40C0 17.909 17.909 0 40 0s40 17.909 40 40-17.909 40-40 40S0 62.091 0 40Z" fill="#55ACEE"/><path d="m38.802 32.513.084 1.384-1.399-.17c-5.092-.65-9.54-2.853-13.318-6.553l-1.847-1.836-.475 1.356c-1.008 3.022-.364 6.214 1.734 8.36 1.12 1.187.868 1.357-1.063.65-.671-.226-1.259-.395-1.315-.31-.196.197.476 2.768 1.007 3.785.728 1.412 2.21 2.796 3.834 3.615l1.37.65-1.622.028c-1.567 0-1.623.029-1.455.622.56 1.836 2.77 3.785 5.232 4.632l1.735.593-1.511.904a15.753 15.753 0 0 1-7.499 2.09c-1.259.029-2.294.142-2.294.226 0 .283 3.413 1.865 5.4 2.486 5.96 1.836 13.038 1.045 18.354-2.09 3.778-2.232 7.555-6.666 9.317-10.96.952-2.288 1.903-6.468 1.903-8.474 0-1.3.084-1.469 1.65-3.022.924-.904 1.791-1.893 1.96-2.175.28-.537.251-.537-1.176-.057-2.378.848-2.714.735-1.539-.536.868-.904 1.903-2.543 1.903-3.023 0-.085-.42.057-.895.31-.504.283-1.623.707-2.463.961l-1.51.48-1.371-.932c-.756-.508-1.82-1.073-2.379-1.242-1.427-.396-3.609-.34-4.896.112-3.497 1.271-5.708 4.548-5.456 8.136Z" fill="#fff"/></svg><svg fill="none" viewBox="0 0 77 76" id="web-profile" xmlns="http://www.w3.org/2000/svg"><path d="M63.928 7.433c8.52 6.556 14.27 17.692 12.859 27.475-1.411 9.73-10.089 18.057-18.61 25.654-8.467 7.597-16.83 14.466-26.03 15.35-9.2.833-19.29-4.37-25.196-11.968C1.044 56.347-.733 46.304.26 37.302c.993-9.003 4.756-17.068 10.663-23.625C16.83 7.173 24.933 2.073 34.551.512c9.67-1.561 20.856.364 29.377 6.92Z" fill="#F7C7C4"/><path fill-rule="evenodd" clip-rule="evenodd" d="M39 17c-11.598 0-21 9.402-21 21 0 11.597 9.402 21 21 21 11.597 0 21-9.403 21-21 0-11.598-9.403-21-21-21ZM21 38c0-1.633.218-3.216.625-4.72.335.722.744 1.396 1.155 2.073.432.713.867 1.43 1.22 2.211.462 1.028 1.334 1.365 2.209 1.703.787.304 1.576.61 2.07 1.42.492.81.442 1.732.393 2.658-.044.814-.088 1.63.236 2.374.31.714.882 1.083 1.466 1.46.361.232.727.468 1.039.79.713.728.804 1.685.895 2.64.016.163.031.326.05.488.144 1.304.377 2.597.698 3.87l.008.031C26.04 52.545 21 45.861 21 38Zm2.641-7.563c-.14-.388-.277-.768-.443-1.064a18.088 18.088 0 0 1 4.913-5.707 3.891 3.891 0 0 0 .814 2.716c.191.247.421.435.643.617.422.345.811.665.838 1.305.04.938-.107 1.418-.72 2.077a3.596 3.596 0 0 0-.343.453c-.119.177-.238.353-.38.491l-.045.044c-.121.118-.172.168-.233.194-.044.018-.094.024-.18.035-.064.008-.148.018-.267.038-.81.137-1.52.336-2.279.549l-.457.127c-1.077.298-1.48-.821-1.86-1.874Zm8.666-7.841c.155-.32 0-.773-.269-1.2.338-.142.681-.274 1.03-.395.218.152.461.26.75.28.212.014.42-.015.623-.044.399-.056.78-.11 1.144.173.16.123.307.255.453.384.41.365.804.717 1.398.824.78.142 1.606-.314 1.8-1.111.114-.466.007-.956-.098-1.441L39.123 20a17.914 17.914 0 0 1 9.885 3.037c-.194-.088-.431-.087-.726.05-.569.265-1.375.938-1.442 1.605-.076.758 1.042.865 1.572.865.796 0 1.605-.357 1.348-1.277-.117-.417-.278-.853-.542-1.1.602.416 1.178.868 1.725 1.353-.011.01-.022.02-.032.032-.158.164-.324.319-.488.473-.397.37-.787.735-1.049 1.219-.26.48-.554.71-1.082.835-.062.015-.126.028-.192.04-.237.047-.482.096-.674.249-.678.534-.292 1.818.35 2.204.814.487 2.02.258 2.632-.437.133-.15.25-.332.37-.515.31-.479.63-.972 1.253-.972.38 0 .744.148 1.015.414.27.279.295.545.324.859.01.1.02.205.038.316.134.823.862.377 1.301-.043.32.568.608 1.155.865 1.76-.036.05-.07.102-.105.154-.44.647-.85 1.249-1.93.494-.238-.166-.445-.357-.648-.546-.393-.365-.776-.72-1.352-.86-.66-.163-1.335-.039-1.993.082-.103.019-.206.038-.309.055-.122.021-.247.04-.374.06-.766.12-1.593.248-2.151.805-.302.3-.535.648-.77 1-.256.381-.513.766-.861 1.093-1.295 1.219-1.842 2.55-1.004 4.272.807 1.657 2.493 2.556 4.313 2.438.385-.026.773-.094 1.145-.16 1.354-.237 2.489-.437 2.448 1.602-.018.918.174 1.556.456 2.41.206.62.239 1.225.273 1.85.009.17.018.34.03.513.068.92.196 1.905.455 2.838C49.902 53.287 44.767 56 39 56c-1.02 0-2.021-.085-2.995-.248l.005-.148c.007-.197.014-.376.034-.51.228-1.491.974-2.949 1.981-4.065.412-.455.886-.85 1.36-1.244.673-.559 1.345-1.118 1.838-1.85.818-1.216 1.065-2.858.726-4.282-.35-1.474-1.858-2.26-3.26-2.991-.599-.313-1.178-.615-1.64-.957-.23-.17-.454-.365-.68-.562-.641-.558-1.297-1.129-2.158-1.19-.204-.015-.395-.007-.584 0-.306.013-.603.025-.933-.06a4.38 4.38 0 0 1-.437-.145c-.305-.113-.596-.221-.952-.175-.426.056-.784.288-1.139.518-.452.294-.902.585-1.486.506-.99-.133-2.008-1.29-2.233-2.232-.289-1.211.67-1.604 1.696-1.712.428-.045.91-.094 1.32.063.302.112.514.325.727.538.17.172.342.343.558.462.912.5 1.097-.299.957-1.109a24.805 24.805 0 0 0-.067-.37v-.001c-.18-.953-.268-1.428.696-2.171l.133-.101v-.001h.001c.69-.526 1.25-.952 1.138-1.924a2.664 2.664 0 0 0-.123-.516c-.098-.308-.18-.566.029-.971.23-.452.856-.86 1.277-1.134l.025-.016c.322-.21.862-.354 1.425-.503 1.335-.354 2.798-.742 1.772-2.137-.428-.583-1.219-1.623-1.969-1.766-.637-.12-1.034.325-1.428.767-.185.208-.37.416-.579.564-.675.477-1.99 1.019-2.665.28-.605-.66-.138-1.025.34-1.4.241-.189.485-.38.597-.611ZM55.683 44.77A17.948 17.948 0 0 0 57 38c0-1.238-.125-2.447-.363-3.615-.878.487-2.053.68-2.779.574a4.677 4.677 0 0 1-2.044-.878c-.119-.087-.246-.215-.379-.347-.23-.23-.474-.476-.713-.549-.375-.115-1.683.144-1.968.37-.17.134-.312.376-.451.61-.095.162-.19.32-.288.438-.125.149-.28.288-.436.428-.194.174-.388.348-.526.542-1.25 1.767 1.837 1.284 2.639 1.158l.014-.002c1.544-.243 3.16.044 4.263 1.24.898.973.922 1.913.95 2.99.008.293.016.597.042.914.035.425.187.839.34 1.254.134.363.268.727.326 1.102.027.18.044.36.056.541Zm-16.865 1.35c-.364.65-1.017 1.161-1.65 1.657-.346.27-.686.536-.97.818a3.219 3.219 0 0 0-.204.24c-.236.295-.548.686-.753.564-.134-.08-.208-.56-.264-.927-.026-.17-.048-.315-.071-.385a5.734 5.734 0 0 0-2.035-2.808c-.102-.078-.257-.163-.422-.254-.31-.171-.658-.363-.767-.562-.136-.24-.085-.716-.044-1.097a4.71 4.71 0 0 0 .032-.375c.004-.205-.03-.464-.066-.732-.055-.416-.112-.852-.034-1.143.059-.215.05-.295.048-.32v-.009s.003 0 .006.003c.019.01.085.047.3 0 .26-.06 1.332.13 1.655.197.413.086.678.31.976.562.072.061.147.124.226.188 1.065.854 2.238 1.515 3.431 2.17.925.511 1.197 1.159.606 2.214Z" fill="#888"/></svg><svg fill="none" viewBox="0 0 80 80" id="whatsapp-logo" xmlns="http://www.w3.org/2000/svg"><path d="M40 80c22.091 0 40-17.909 40-40S62.091 0 40 0 0 17.909 0 40s17.909 40 40 40Z" fill="#25D366"/><path fill-rule="evenodd" clip-rule="evenodd" d="M41.319 62.254h-.01c-3.981-.001-7.893-1-11.367-2.895l-12.609 3.308 3.375-12.325a23.743 23.743 0 0 1-3.175-11.892c.005-13.114 10.675-23.783 23.785-23.783 6.363.002 12.335 2.48 16.826 6.975a23.641 23.641 0 0 1 6.96 16.827c-.006 13.111-10.672 23.78-23.785 23.785Zm-10.793-7.2.722.428a19.74 19.74 0 0 0 10.062 2.755h.008c10.897 0 19.765-8.868 19.77-19.77a19.65 19.65 0 0 0-5.785-13.985 19.635 19.635 0 0 0-13.977-5.798c-10.904 0-19.773 8.868-19.777 19.768a19.723 19.723 0 0 0 3.022 10.52l.47.749-1.997 7.295 7.482-1.963ZM52.487 43.59c.415.2.695.336.814.535.149.248.149 1.438-.346 2.827-.496 1.388-2.87 2.655-4.012 2.825-1.024.153-2.32.217-3.743-.235-.863-.274-1.97-.64-3.388-1.252-5.572-2.406-9.337-7.806-10.049-8.826a7.366 7.366 0 0 0-.104-.148l-.005-.006c-.314-.42-2.421-3.232-2.421-6.142 0-2.738 1.344-4.172 1.963-4.833l.117-.125c.544-.595 1.188-.744 1.584-.744.397 0 .793.004 1.14.021.042.003.087.002.133.002.346-.002.778-.005 1.204 1.019.163.393.403.977.656 1.593.511 1.245 1.077 2.62 1.176 2.82.149.297.248.644.05 1.04l-.084.17c-.149.304-.258.527-.51.822-.1.116-.203.241-.305.366-.205.249-.41.498-.587.675-.298.297-.608.618-.26 1.213.346.595 1.539 2.541 3.305 4.117a15.35 15.35 0 0 0 4.387 2.773c.163.071.296.128.393.177.594.298.94.248 1.287-.149.347-.396 1.486-1.735 1.882-2.33.396-.595.793-.496 1.337-.297.545.198 3.467 1.636 4.061 1.933l.325.16Z" fill="#FDFDFD"/></svg><svg fill="none" viewBox="0 0 80 80" id="zoom-logo" xmlns="http://www.w3.org/2000/svg"><path d="M40 80c22.091 0 40-17.909 40-40S62.091 0 40 0 0 17.909 0 40s17.909 40 40 40Z" fill="#2D8CFF"/><path fill-rule="evenodd" clip-rule="evenodd" d="m63.478 26.559-11.304 8.248v10.418l11.304 8.248c.8.611 1.74.8 1.74-.868V27.427c0-1.487-.754-1.674-1.74-.868ZM13.913 46.261V27.48c0-.768.628-1.392 1.404-1.392h27.392c4.265 0 7.726 3.426 7.726 7.652v18.782c0 .769-.629 1.392-1.404 1.392H21.639c-4.265 0-7.726-3.426-7.726-7.652Z" fill="#fff"/></svg></svg>