<?xml version="1.0" standalone="no"?>
<!DOCTYPE svg PUBLIC "-//W3C//DTD SVG 20010904//EN"
 "http://www.w3.org/TR/2001/REC-SVG-20010904/DTD/svg10.dtd">
<svg version="1.0" xmlns="http://www.w3.org/2000/svg"
 width="260.000000pt" height="260.000000pt" viewBox="0 0 260.000000 260.000000"
 preserveAspectRatio="xMidYMid meet">
<metadata>
Created by potrace 1.14, written by Peter Selinger 2001-2017
</metadata>
<g transform="translate(0.000000,260.000000) scale(0.100000,-0.100000)"
fill="#000000" stroke="none">
<path d="M1154 2589 c-2 -3 7 -6 19 -5 12 1 25 -3 29 -9 5 -6 8 -5 8 3 0 7 5
10 10 7 22 -14 7 -20 -45 -18 -30 1 -53 -2 -50 -7 2 -4 19 -6 37 -4 19 2 28 0
21 -4 -7 -4 -31 -7 -53 -6 -32 1 -40 -2 -36 -13 4 -9 2 -11 -7 -6 -19 12 -49
14 -42 3 7 -11 -23 -2 -42 12 -7 5 -14 5 -17 -1 -4 -6 -13 -8 -21 -4 -8 3 -15
0 -15 -7 0 -6 4 -9 9 -5 5 3 12 1 15 -4 7 -11 -13 -9 -34 4 -22 14 -49 13 -43
-1 3 -7 -5 -14 -19 -16 -13 -2 -22 -9 -20 -16 1 -8 -2 -10 -8 -7 -6 4 -9 14
-6 22 3 8 1 11 -4 8 -6 -3 -10 -15 -10 -26 0 -21 -10 -25 -27 -8 -8 8 -13 7
-18 -2 -5 -8 -4 -10 3 -5 7 4 12 5 12 2 0 -3 -10 -10 -21 -17 -15 -8 -19 -8
-15 0 5 7 -1 10 -16 7 -13 -3 -26 -5 -30 -5 -5 -1 -8 -6 -8 -12 0 -8 4 -8 14
0 11 9 16 9 22 0 4 -7 3 -9 -3 -6 -6 4 -16 0 -23 -8 -10 -12 -16 -13 -28 -3
-13 11 -14 11 -7 -1 6 -11 4 -13 -10 -7 -16 6 -16 4 -4 -11 7 -10 9 -15 5 -11
-5 4 -14 0 -21 -9 -9 -13 -14 -13 -20 -3 -5 8 -4 11 2 7 5 -3 10 0 10 8 0 13
-3 13 -17 0 -9 -8 -20 -12 -24 -8 -4 4 -4 0 -1 -9 4 -9 1 -19 -6 -24 -7 -4
-10 -3 -6 2 3 5 -2 10 -12 10 -12 0 -17 -6 -13 -18 2 -10 9 -15 15 -11 6 3 7
1 3 -5 -5 -9 -13 -9 -28 -1 -12 6 -18 7 -14 1 3 -5 -1 -13 -10 -16 -10 -4 -13
-2 -8 6 4 7 3 8 -4 4 -7 -4 -12 -14 -12 -21 0 -13 -31 -36 -52 -41 -5 -1 -11
-3 -15 -4 -5 -1 -11 -2 -16 -1 -4 0 -6 -2 -6 -6 5 -33 -2 -45 -23 -40 -21 5
-21 5 -5 -7 9 -7 17 -16 17 -20 0 -9 -24 -3 -33 9 -5 6 -7 -2 -4 -18 2 -15 2
-25 -1 -22 -3 3 -12 -5 -20 -17 -7 -13 -11 -15 -8 -5 3 9 9 25 12 35 3 9 -1 7
-8 -6 -8 -12 -17 -20 -21 -17 -4 3 -5 2 -2 -2 3 -3 -1 -13 -8 -21 -9 -13 -9
-14 1 -8 7 4 12 2 12 -5 0 -6 -8 -9 -19 -6 -15 4 -19 0 -16 -15 3 -15 1 -17
-8 -9 -10 7 -13 5 -14 -10 -1 -12 3 -17 9 -13 7 4 8 2 4 -5 -4 -6 -11 -9 -16
-6 -5 3 -11 1 -15 -5 -4 -6 -10 -8 -14 -6 -4 3 -8 -1 -8 -9 0 -11 4 -12 13 -4
9 7 14 6 20 -3 4 -7 4 -10 -1 -6 -4 4 -14 3 -21 -3 -8 -6 -21 -9 -29 -5 -13 5
-14 2 -4 -16 10 -18 9 -20 -5 -15 -9 4 -16 2 -16 -2 0 -5 6 -12 13 -14 6 -3 3
-6 -8 -7 l-20 -1 20 -9 c18 -8 18 -9 -5 -9 -20 -1 -22 -3 -10 -11 13 -8 12
-10 -2 -10 -10 0 -18 -5 -18 -11 0 -5 6 -7 13 -3 8 5 8 3 -2 -9 -12 -15 -31
-15 -31 -1 0 3 5 2 12 -2 7 -5 8 -3 4 5 -5 7 -11 9 -15 6 -9 -10 -8 -29 4 -37
6 -5 5 -12 -4 -20 -10 -10 -12 -10 -7 0 10 18 1 15 -15 -5 -10 -11 -10 -14 -1
-9 24 14 12 -20 -18 -49 -26 -25 -33 -54 -9 -39 5 3 6 10 3 16 -4 7 -2 8 5 4
7 -4 10 -2 9 5 -2 7 6 14 17 16 l20 3 -20 -9 c-11 -5 -16 -10 -10 -10 5 -1 -9
-20 -30 -42 -22 -23 -35 -39 -30 -36 6 3 17 2 25 -4 12 -7 12 -9 1 -9 -9 0
-12 -8 -8 -26 3 -18 1 -24 -9 -20 -8 3 -13 2 -13 -2 3 -21 -2 -32 -13 -26 -10
5 -10 4 -1 -6 10 -11 9 -16 -5 -27 -16 -12 -16 -13 0 -7 11 4 18 1 18 -6 0 -9
4 -9 18 1 16 13 16 13 0 -7 -20 -22 -24 -39 -8 -29 6 3 7 -1 4 -10 -6 -14 -8
-14 -20 2 -12 16 -13 17 -14 1 0 -9 -5 -20 -11 -23 -6 -4 -9 0 -7 11 2 11 12
24 23 31 17 10 17 12 3 13 -9 0 -20 -6 -25 -12 -12 -20 -12 -108 1 -108 8 0 8
-2 0 -8 -14 -9 -15 -284 -1 -275 6 4 7 1 1 -8 -11 -18 -13 -70 -2 -63 16 10
48 13 43 3 -4 -5 -10 -7 -15 -4 -5 3 -11 1 -14 -4 -3 -5 3 -11 14 -14 10 -3
21 -1 24 4 2 5 3 4 1 -3 -1 -7 -7 -12 -12 -11 -6 1 -8 -9 -5 -22 2 -14 8 -22
13 -19 5 3 6 10 3 16 -5 7 -2 8 5 4 9 -6 9 -12 -3 -25 -24 -26 -19 -37 6 -15
17 14 20 15 9 2 -7 -9 -10 -22 -7 -27 4 -5 1 -13 -5 -17 -8 -5 -9 -3 -4 6 5 9
4 11 -3 6 -17 -10 -15 -26 4 -26 8 0 12 -5 9 -10 -4 -6 -11 -7 -17 -4 -6 4 -6
-2 1 -15 13 -24 23 -28 15 -6 -4 8 -1 15 4 15 6 0 9 -11 6 -25 -3 -19 -1 -23
11 -19 8 4 15 1 15 -6 0 -6 -5 -8 -10 -5 -5 3 -10 1 -10 -5 0 -6 -5 -8 -12 -4
-7 4 -8 3 -4 -4 4 -6 13 -9 21 -5 11 4 13 1 8 -13 -6 -17 -5 -17 10 -5 16 13
17 12 8 -12 -7 -18 -7 -28 1 -33 7 -5 8 -2 4 7 -4 8 0 5 9 -6 14 -18 14 -21 0
-31 -14 -10 -14 -12 2 -19 10 -5 24 -9 31 -11 22 -4 24 -11 7 -18 -11 -4 -14
-2 -9 6 4 7 3 8 -4 4 -14 -8 4 -42 27 -51 10 -4 9 0 -4 15 -10 11 -15 20 -10
20 4 0 14 -8 21 -18 10 -14 10 -20 -4 -37 -16 -19 -16 -19 2 -5 18 14 19 13
13 -2 -3 -10 -1 -20 5 -24 6 -4 8 -3 4 4 -3 6 -2 14 4 17 6 4 10 3 9 -2 -4
-20 2 -33 15 -33 17 0 29 -27 16 -35 -6 -4 -10 -11 -10 -17 0 -6 7 -5 17 3 11
10 14 10 9 2 -4 -7 -3 -13 2 -13 6 0 13 -8 17 -17 5 -15 4 -16 -6 -5 -7 6 -18
12 -23 12 -6 0 0 -7 12 -16 12 -8 26 -12 32 -9 6 4 7 -1 3 -11 -4 -12 -3 -15
5 -10 7 4 12 1 12 -10 0 -13 3 -14 14 -5 11 9 16 9 22 0 4 -8 3 -9 -4 -5 -8 5
-12 -1 -12 -14 0 -12 4 -18 10 -15 9 6 14 -8 11 -28 -1 -5 3 -6 9 -2 6 3 8 10
6 14 -3 4 1 8 9 8 8 0 13 -3 10 -5 -3 -3 0 -11 7 -19 9 -11 7 -12 -8 -7 -14 4
-16 3 -5 -4 8 -6 10 -15 6 -23 -5 -8 1 -6 12 4 21 18 22 18 33 -2 6 -12 8 -27
4 -33 -4 -7 -3 -8 4 -4 7 4 12 2 12 -3 0 -6 7 -11 16 -11 10 0 14 -5 10 -16
-3 -8 -2 -13 3 -10 5 3 11 0 14 -8 4 -9 14 -12 28 -9 17 5 20 3 14 -8 -7 -11
-5 -11 10 1 17 14 18 13 12 -3 -6 -15 -3 -17 13 -12 11 4 20 3 19 -2 -3 -19 2
-33 12 -33 5 0 7 6 3 13 -5 8 -2 8 9 -2 9 -7 17 -21 18 -30 0 -12 2 -11 9 4 6
13 9 15 9 5 1 -23 47 -49 93 -53 9 -1 14 -6 11 -11 -4 -5 7 -7 25 -3 26 5 32
3 32 -11 0 -15 -2 -15 -11 -2 -8 12 -10 12 -7 1 6 -21 36 -22 49 -3 8 13 9 11
4 -13 -4 -21 -3 -26 4 -15 8 12 12 10 21 -10 9 -21 10 -22 6 -3 -3 17 0 20 13
15 9 -3 22 -12 29 -19 7 -6 20 -9 29 -6 11 4 14 3 9 -5 -4 -7 -5 -12 -1 -12 3
0 10 10 15 23 6 15 9 17 9 6 1 -21 48 -54 48 -34 0 8 -4 12 -9 9 -4 -3 -8 -3
-8 0 0 3 10 10 21 17 15 8 19 8 15 0 -4 -6 -2 -19 4 -28 11 -16 11 -16 6 -1
-3 10 -1 20 3 23 12 7 23 -24 14 -37 -4 -7 -1 -8 6 -3 8 4 10 18 7 34 -3 14
-3 20 0 13 3 -6 10 -9 15 -6 6 3 8 -5 5 -20 -3 -14 0 -29 6 -32 6 -4 8 -2 4 4
-3 6 -2 13 3 17 6 3 7 13 4 23 -4 13 -2 13 10 -3 18 -23 22 -39 7 -30 -5 3
-10 1 -10 -5 0 -8 7 -9 18 -5 34 13 54 14 49 2 -3 -8 7 -12 29 -12 30 0 32 2
18 12 -9 7 -20 10 -25 8 -4 -3 -10 -1 -14 5 -4 6 -11 8 -16 5 -5 -4 -9 0 -9 7
0 11 -2 11 -9 0 -6 -10 -10 -10 -20 2 -9 11 -9 16 0 22 8 5 9 3 4 -6 -5 -8 -3
-11 6 -8 8 3 22 1 31 -3 12 -7 20 -4 28 8 11 16 11 16 6 1 -3 -10 -1 -20 4
-23 5 -3 11 3 14 13 4 10 13 19 21 19 8 0 13 -3 10 -5 -3 -3 1 -12 8 -20 10
-13 9 -14 -2 -7 -10 6 -12 4 -6 -5 5 -9 4 -11 -4 -6 -6 4 -9 12 -6 17 4 5 1 9
-4 9 -15 0 -13 -11 4 -33 13 -18 14 -18 24 1 7 13 19 18 36 17 17 -2 25 2 25
12 0 9 6 13 14 10 8 -3 17 -3 20 1 4 3 15 7 26 9 22 3 27 -11 8 -23 -7 -5 -8
-3 -3 6 5 9 4 11 -3 6 -16 -10 -15 -23 3 -30 8 -3 14 0 12 7 -1 7 4 11 11 9
10 -2 12 4 7 20 -5 20 -4 21 5 5 12 -19 35 -13 24 6 -4 7 -3 8 2 4 5 -5 9 -13
9 -18 0 -5 5 -8 10 -6 6 1 9 5 8 8 -1 4 9 9 23 12 18 3 22 1 15 -6 -6 -6 -11
-16 -11 -21 0 -6 8 1 18 15 15 23 19 25 30 12 12 -12 16 -12 33 3 11 10 27 14
39 11 16 -4 20 -2 16 8 -6 18 14 25 38 13 11 -6 16 -6 13 0 -4 5 0 18 8 28 13
17 14 17 9 1 -5 -13 -2 -16 10 -11 9 3 14 9 11 13 -2 4 2 8 10 8 8 0 12 -4 9
-9 -3 -4 0 -8 5 -8 6 0 11 9 11 20 0 11 5 20 11 20 5 0 8 -4 5 -8 -2 -4 5 -14
17 -21 18 -11 20 -11 10 0 -19 19 -16 28 7 24 11 -2 19 1 17 8 -1 7 3 11 10
10 7 -2 10 4 7 12 -4 8 -1 15 5 15 6 0 11 -5 11 -12 0 -6 10 0 23 13 13 13 21
29 18 34 -3 6 3 4 12 -4 18 -14 24 -2 8 15 -6 5 -1 10 15 10 17 1 22 -2 17
-10 -4 -7 2 0 15 14 19 21 24 23 32 10 8 -13 10 -12 10 3 0 11 4 15 12 11 7
-4 8 -3 4 5 -4 6 -11 9 -15 7 -4 -3 -8 1 -8 8 0 8 8 11 20 8 15 -4 18 -2 12 9
-8 12 -6 12 8 0 15 -12 17 -12 11 4 -5 13 -4 16 4 11 19 -11 35 3 22 19 -10
11 -8 13 9 10 11 -2 24 1 27 7 4 7 2 8 -4 4 -7 -4 -12 -3 -12 2 0 5 9 12 20
15 12 3 20 14 20 25 0 12 5 24 12 28 6 4 8 3 5 -3 -9 -15 32 -9 46 7 10 12 9
12 -5 2 -9 -8 -19 -9 -22 -4 -3 6 1 13 10 16 9 3 12 11 8 18 -5 8 0 7 11 -2
16 -13 18 -13 13 0 -3 9 5 20 21 27 24 12 24 12 2 7 -16 -4 -21 -3 -17 5 4 6
13 11 20 11 7 0 23 11 36 25 13 14 19 25 13 25 -6 0 -14 -6 -16 -12 -4 -8 -6
-7 -6 3 -1 9 6 20 15 23 13 5 14 9 4 21 -11 13 -10 14 4 9 19 -7 21 6 4 25
-11 11 -10 13 0 7 7 -4 15 -1 18 8 3 9 10 13 16 10 5 -3 1 -12 -9 -20 -10 -7
-13 -14 -8 -14 18 0 34 22 28 38 -5 11 -3 13 7 7 8 -5 11 -4 6 3 -3 5 -3 12 1
15 5 2 2 2 -5 0 -8 -1 -12 3 -10 9 3 7 10 14 16 14 7 1 18 2 25 3 8 1 9 4 1 9
-25 16 -16 62 12 62 5 0 3 -5 -4 -12 -7 -7 -12 -17 -12 -22 0 -6 7 -2 15 8 9
11 12 30 9 45 -4 18 -3 22 4 13 7 -11 10 -9 15 7 3 11 2 19 -2 18 -3 -1 -7 3
-8 8 -1 6 5 9 13 7 8 -2 14 1 13 5 -3 20 2 34 11 28 6 -3 10 -1 10 5 0 7 -8 9
-22 4 -20 -6 -21 -5 -9 9 7 9 17 15 21 12 5 -3 12 0 16 6 4 7 3 9 -4 5 -6 -3
-13 -2 -17 4 -3 5 3 10 14 10 11 0 23 4 26 10 3 5 0 7 -8 4 -10 -3 -16 3 -19
20 -3 14 -2 23 2 21 4 -2 16 2 26 10 18 13 18 14 -6 8 -25 -5 -25 -5 -5 11 11
10 15 15 9 12 -7 -3 -14 1 -17 9 -4 10 -1 12 10 8 10 -4 14 -2 10 5 -10 16
-16 72 -7 67 4 -3 11 2 14 11 3 8 2 12 -4 9 -6 -3 -10 1 -10 10 0 10 -5 14
-12 9 -10 -5 -10 -3 0 7 11 12 14 12 22 -1 8 -13 10 -13 10 2 0 9 -8 22 -17
28 -15 9 -13 10 12 5 l30 -6 -32 20 c-37 23 -40 28 -18 28 8 0 12 -4 9 -9 -3
-4 0 -8 5 -8 15 0 14 30 -1 30 -7 0 -5 5 5 11 14 8 15 14 6 30 -9 17 -13 18
-27 7 -16 -12 -16 -11 0 7 12 14 14 25 8 35 -13 20 -12 30 1 30 5 0 8 -4 4 -9
-3 -5 -1 -12 4 -15 13 -8 6 46 -9 75 -15 27 -15 27 8 53 9 11 11 16 5 12 -7
-4 -13 -2 -13 4 0 6 -4 9 -8 6 -5 -3 -8 7 -7 22 1 15 -2 35 -8 46 -6 12 -6 16
1 12 6 -3 14 -1 18 6 4 7 4 10 -1 6 -13 -12 -45 11 -39 27 4 9 0 15 -7 15 -10
1 -9 5 4 14 23 18 22 29 -3 16 -14 -7 -20 -7 -20 0 0 5 5 10 11 10 5 0 7 5 4
10 -4 6 -11 7 -17 4 -7 -4 -8 -2 -4 5 4 6 12 8 18 5 6 -4 4 3 -5 15 -17 25
-12 55 7 44 6 -4 5 1 -3 10 -7 9 -17 14 -22 11 -6 -3 -8 6 -5 20 3 15 1 24 -5
21 -5 -4 -9 -1 -9 6 0 7 -3 9 -6 6 -4 -4 -1 -13 5 -21 10 -12 9 -14 -6 -11
-10 2 -19 4 -20 4 -1 1 2 12 7 25 7 20 5 27 -15 40 -14 9 -24 22 -22 29 1 6
-4 11 -11 9 -8 -1 -11 2 -8 7 3 5 -1 14 -9 21 -9 8 -13 21 -10 31 4 12 1 21
-9 25 -9 3 -16 10 -16 16 0 5 5 6 12 2 6 -4 8 -3 4 4 -3 6 -19 9 -34 6 -18 -3
-22 -1 -14 4 11 7 11 12 -2 25 -12 12 -13 17 -3 21 6 4 2 4 -11 2 -18 -3 -21
-1 -13 8 11 14 5 26 -13 26 -6 0 -4 -5 4 -11 12 -9 12 -10 -3 -5 -10 3 -21 6
-24 6 -3 0 1 8 8 17 10 11 10 14 2 9 -7 -4 -13 -3 -13 3 0 6 -8 8 -17 4 -17
-5 -17 -5 -1 8 15 13 16 15 0 29 -14 13 -15 13 -10 -1 4 -9 1 -16 -7 -16 -7 0
-12 8 -10 18 2 10 0 21 -6 24 -5 4 -9 1 -9 -4 0 -6 -4 -11 -9 -11 -5 0 -7 10
-4 23 4 18 3 19 -7 7 -10 -12 -11 -11 -6 9 4 18 2 21 -7 12 -18 -18 -31 -13
-16 6 10 11 10 14 2 9 -7 -4 -13 -2 -13 3 0 6 -7 11 -15 11 -8 0 -15 -5 -15
-12 0 -6 -3 -8 -6 -5 -4 4 -1 13 6 22 9 11 9 15 1 15 -7 0 -10 4 -7 9 3 5 -1
14 -8 20 -11 9 -16 9 -22 0 -5 -8 -3 -9 6 -4 9 6 11 4 5 -5 -6 -9 -4 -11 5 -5
9 6 11 4 5 -5 -6 -10 -12 -9 -25 8 -14 16 -20 18 -30 9 -10 -9 -11 -9 -6 0 8
14 -22 65 -34 58 -5 -3 -10 -2 -13 2 -2 5 -2 3 -1 -4 2 -7 -3 -10 -12 -6 -7 3
-14 10 -14 17 0 6 -5 4 -10 -4 -8 -13 -10 -12 -11 5 -1 11 -1 23 0 27 0 4 -7
4 -16 1 -11 -4 -14 -3 -9 6 4 6 4 11 -1 10 -26 -5 -53 2 -47 12 4 8 1 8 -12 2
-13 -7 -27 -6 -44 3 -14 8 -20 14 -15 14 6 0 2 5 -8 11 -9 5 -22 7 -29 3 -7
-5 -9 -2 -5 8 8 22 -2 29 -25 17 -23 -13 -39 -2 -18 11 11 7 11 10 2 10 -7 0
-15 -6 -18 -14 -4 -9 -14 -13 -27 -9 -12 3 -37 7 -54 10 -30 5 -38 13 -34 36
1 5 -3 5 -9 2 -6 -4 -9 -14 -6 -22 4 -9 1 -13 -6 -10 -7 2 -12 13 -10 23 2 15
1 16 -7 5 -8 -12 -12 -12 -25 -2 -9 7 -13 18 -9 24 3 6 1 7 -5 3 -7 -4 -12 -2
-12 5 0 7 -3 9 -6 6 -4 -4 -2 -13 4 -20 7 -8 8 -18 4 -22 -4 -5 -1 -5 7 0 10
6 12 4 6 -5 -5 -8 -4 -11 2 -7 6 4 17 -1 24 -11 12 -15 12 -16 -2 -5 -9 7 -18
10 -22 7 -3 -3 -16 11 -30 31 -14 20 -28 32 -31 27 -3 -6 0 -13 6 -16 7 -3 4
-4 -7 -3 -11 2 -19 8 -18 13 1 5 -18 10 -43 10 -24 0 -44 -4 -44 -8 0 -4 -5
-8 -11 -8 -5 0 -8 4 -5 8 2 4 -23 7 -56 7 -33 0 -62 -3 -64 -6z m226 -22 l25
-18 -25 4 c-15 2 -31 -3 -38 -12 -12 -15 -13 -15 -9 1 7 20 -2 30 -17 20 -16
-10 -56 -9 -56 1 0 5 11 6 25 3 14 -4 25 -3 24 1 -3 16 2 20 24 19 12 -1 33
-9 47 -19z m-133 -19 c-3 -8 -6 -5 -6 6 -1 11 2 17 5 13 3 -3 4 -12 1 -19z
m183 -10 c0 -19 -16 -5 -17 14 -2 18 0 20 7 8 5 -8 10 -18 10 -22z m-509 -31
c-10 -9 -11 -8 -5 6 3 10 9 15 12 12 3 -3 0 -11 -7 -18z m774 3 c-3 -5 -12
-10 -18 -10 -7 0 -6 4 3 10 19 12 23 12 15 0z m169 -85 c11 -9 14 -15 7 -15
-7 0 -19 7 -27 15 -20 19 -5 19 20 0z m108 -72 c-8 -11 -16 -4 -18 17 -4 23
-3 24 8 5 6 -11 11 -21 10 -22z m-1512 -92 c0 -5 -7 -12 -16 -15 -14 -5 -15
-4 -4 9 14 17 20 19 20 6z m30 -1 c0 -5 -2 -10 -4 -10 -3 0 -8 5 -11 10 -3 6
-1 10 4 10 6 0 11 -4 11 -10z m609 -110 c12 0 20 4 17 8 -3 5 1 9 9 9 13 0 12
-3 -1 -18 -9 -10 -21 -16 -27 -12 -6 3 -7 1 -3 -6 6 -8 12 -9 20 -2 7 6 22 9
34 6 12 -2 22 1 22 7 0 5 -7 8 -15 4 -22 -8 -18 2 5 14 16 8 20 8 18 -2 -2 -7
2 -12 8 -11 6 1 17 -9 24 -23 l14 -25 13 23 12 23 1 -24 c0 -14 8 -33 17 -43
16 -18 16 -18 -3 -12 -10 4 -16 4 -12 -1 4 -4 2 -15 -5 -24 -10 -14 -10 -14 5
-3 15 12 17 11 15 -5 0 -11 -8 -26 -16 -33 -13 -12 -14 -12 -8 3 3 9 2 17 -3
17 -6 0 -10 -10 -11 -22 0 -13 -3 -17 -6 -10 -2 6 -9 12 -14 12 -4 0 -6 -6 -3
-13 3 -8 -2 -14 -11 -14 -10 0 -14 7 -10 21 3 12 2 15 -1 9 -3 -7 -13 -13 -22
-13 -14 0 -14 -2 -3 -9 12 -7 11 -12 -1 -30 -14 -20 -16 -20 -22 -5 -5 13 -9
15 -18 6 -9 -9 -7 -15 7 -25 13 -10 15 -16 6 -21 -9 -6 -9 -12 1 -24 12 -15
11 -16 -4 -3 -16 12 -18 11 -18 -2 0 -8 -6 -18 -12 -21 -7 -3 -2 -3 12 0 l25
5 -25 -21 c-14 -12 -19 -19 -12 -15 6 3 12 1 12 -5 0 -6 6 -8 13 -4 7 4 9 3 4
-2 -5 -5 -13 -9 -19 -9 -6 0 -12 -8 -14 -17 -1 -10 3 -18 9 -18 7 0 5 -5 -3
-10 -11 -7 -11 -10 -2 -10 7 0 11 -4 7 -9 -3 -5 1 -16 10 -24 13 -13 13 -16 0
-21 -8 -3 -15 0 -15 6 0 6 -3 9 -6 6 -3 -3 4 -24 15 -46 15 -29 18 -43 9 -48
-6 -4 -8 -3 -5 2 3 5 -3 10 -14 10 -25 0 -24 -3 9 -20 15 -8 21 -15 13 -16
-11 0 -11 -3 0 -17 8 -9 9 -14 3 -10 -8 5 -13 -7 -16 -37 -2 -38 -1 -43 11
-33 12 10 13 9 6 -3 -14 -22 -13 -33 5 -48 13 -11 11 -11 -8 -2 -12 6 -20 15
-17 21 4 5 1 9 -4 9 -12 0 -14 -13 -4 -24 11 -11 12 -35 2 -42 -5 -3 -5 -13 1
-25 8 -14 7 -19 -2 -20 -10 0 -10 -2 0 -6 6 -2 9 -10 6 -15 -4 -6 -2 -8 4 -4
6 3 9 18 6 32 -4 22 -2 23 10 12 10 -9 11 -15 2 -20 -6 -4 -7 -8 -2 -8 5 0 3
-7 -4 -15 -7 -8 -9 -15 -4 -15 5 0 0 -8 -11 -16 -20 -16 -20 -16 1 -10 14 4
24 2 27 -8 4 -10 1 -13 -9 -9 -8 3 -14 -1 -14 -11 0 -9 8 -16 18 -17 11 0 12
-2 4 -6 -7 -3 -19 0 -26 6 -9 8 -13 7 -13 -4 0 -8 4 -12 9 -9 4 3 8 0 8 -6 0
-6 5 -8 12 -4 7 4 8 3 4 -4 -4 -7 -15 -12 -24 -12 -14 0 -15 -2 -2 -10 9 -6
20 -5 30 3 13 11 13 10 1 -5 -7 -10 -16 -16 -20 -14 -4 3 -7 -4 -7 -15 0 -10
6 -19 13 -19 7 0 12 -6 10 -12 -1 -7 4 -12 11 -11 17 4 15 -2 -5 -18 -14 -12
-16 -12 -8 0 6 10 4 12 -5 6 -8 -5 -11 -4 -6 3 3 6 2 13 -3 16 -5 4 -12 2 -15
-3 -4 -5 -2 -12 3 -16 6 -3 8 -12 5 -19 -3 -8 0 -17 5 -21 6 -3 9 -10 6 -15
-3 -5 -1 -11 4 -14 10 -7 9 20 -2 30 -14 15 -6 26 9 13 21 -17 52 -23 35 -6
-16 16 -14 24 10 30 13 4 18 10 14 17 -6 9 -2 9 15 0 20 -11 21 -10 9 12 -11
21 -11 22 4 9 12 -9 17 -10 17 -2 0 7 5 9 10 6 6 -3 10 1 10 10 0 10 -5 14
-12 9 -8 -4 -8 -2 1 7 10 10 15 11 18 2 5 -13 33 -6 33 9 0 5 -4 7 -9 3 -5 -3
-12 -1 -15 4 -9 13 19 7 38 -8 14 -12 16 -12 10 3 -3 9 -1 16 5 16 6 0 11 -6
11 -12 0 -9 3 -10 8 -2 13 19 50 22 73 6 12 -8 19 -11 16 -5 -4 6 -1 10 5 9
25 -3 36 -16 31 -36 -4 -13 0 -20 9 -20 10 0 15 -9 14 -22 -1 -13 2 -26 7 -29
5 -3 2 -9 -6 -12 -12 -4 -14 0 -11 18 2 13 -1 27 -7 31 -8 5 -9 3 -4 -6 4 -7
2 -16 -6 -21 -11 -7 -11 -9 -1 -9 7 0 11 -4 8 -9 -3 -5 1 -14 9 -21 16 -13 11
-30 -8 -30 -7 0 -6 4 3 10 8 5 10 10 4 10 -6 0 -13 -3 -17 -6 -9 -9 4 -35 14
-28 5 3 6 -2 3 -10 -3 -9 -9 -14 -14 -11 -4 2 -6 -7 -4 -20 1 -14 -3 -28 -8
-32 -6 -3 -8 -1 -5 4 4 6 1 13 -6 16 -9 3 -12 -4 -11 -24 1 -16 -3 -32 -9 -36
-5 -3 -7 -1 -4 4 4 6 0 13 -8 16 -11 5 -12 1 -5 -18 8 -20 6 -25 -6 -25 -9 0
-12 5 -8 12 3 7 -6 0 -21 -15 -23 -24 -29 -26 -43 -15 -12 9 -11 6 2 -10 11
-12 16 -25 13 -29 -4 -3 -7 -2 -7 4 0 6 -7 14 -16 17 -13 5 -15 2 -11 -16 6
-22 6 -22 -9 -4 -12 17 -16 18 -27 6 -6 -7 -7 -10 -1 -7 6 3 11 0 11 -8 0 -11
-4 -12 -13 -4 -10 8 -19 7 -34 -4 -11 -7 -17 -16 -14 -20 3 -3 -3 -3 -14 0
-11 2 -23 -1 -27 -8 -5 -8 -4 -10 3 -5 10 6 18 -26 13 -56 0 -4 6 -5 14 -2 8
4 12 10 9 15 -3 5 0 9 6 9 7 0 9 -8 5 -19 -3 -12 0 -21 10 -25 11 -4 14 -2 9
6 -5 7 -3 8 5 4 7 -5 10 -14 7 -21 -3 -9 2 -12 15 -10 10 2 19 0 19 -6 0 -5 7
-9 16 -9 9 0 12 5 8 12 -4 7 -3 8 5 4 9 -6 9 -11 -1 -24 -11 -14 -11 -14 7 -5
14 9 26 8 47 -3 17 -9 29 -10 33 -4 3 6 11 10 17 10 6 0 1 -8 -10 -19 -12 -10
-19 -21 -15 -24 3 -4 11 0 17 7 6 8 20 16 31 18 11 2 25 9 30 16 8 10 11 9 11
-7 0 -11 -3 -18 -6 -16 -4 2 -7 -2 -7 -10 0 -8 4 -15 9 -15 8 0 12 16 9 34 -1
5 5 6 13 3 9 -4 18 -2 21 3 4 6 1 10 -6 10 -7 0 -9 3 -6 6 4 4 18 -1 33 -11
24 -15 26 -16 21 -1 -4 9 -2 16 2 16 5 0 12 -7 15 -16 6 -15 8 -15 27 2 12 11
24 18 27 16 4 -2 8 2 10 10 3 11 2 11 -6 0 -8 -11 -10 -11 -15 1 -4 11 1 14
18 13 31 -4 53 9 30 17 -10 5 -14 3 -9 -5 4 -7 3 -8 -5 -4 -16 10 -4 26 15 19
8 -3 14 -1 12 3 -2 5 8 21 21 34 22 24 23 24 12 3 -6 -13 -16 -23 -22 -23 -6
0 -7 -5 -3 -11 5 -8 10 -6 16 5 5 9 13 14 19 11 5 -3 6 1 3 9 -3 9 5 26 21 42
14 14 24 28 22 30 -2 3 -10 -2 -17 -11 -7 -8 -18 -15 -24 -15 -6 0 -3 5 7 11
9 5 17 17 17 25 0 8 3 13 8 11 4 -3 16 -1 27 4 l20 8 -20 1 c-18 1 -18 2 -3
11 9 5 15 16 12 24 -4 8 -9 13 -13 10 -4 -2 -8 2 -8 10 0 8 4 12 8 9 4 -2 10
0 14 6 3 5 0 10 -7 10 -10 0 -9 3 2 11 11 8 12 12 3 16 -7 2 -13 9 -13 14 0 6
5 7 11 3 7 -4 7 1 -1 16 -9 18 -9 21 0 15 8 -5 11 -3 8 6 -3 8 -12 13 -19 11
-9 -1 -8 3 4 11 18 15 24 32 6 22 -13 -9 -8 27 6 38 6 5 -1 5 -15 1 -23 -6
-24 -6 -10 12 8 10 11 16 6 12 -5 -4 -15 -1 -22 7 -17 17 -18 28 -1 20 6 -4 3
0 -7 9 -10 8 -24 12 -30 9 -6 -4 -3 3 7 14 12 14 15 23 7 28 -6 3 -9 1 -8 -6
2 -6 -2 -13 -7 -15 -6 -2 -12 7 -13 21 -1 18 2 24 11 19 7 -4 9 -3 4 2 -5 5
-12 9 -15 9 -4 1 -18 7 -32 14 l-25 13 23 -21 c29 -29 28 -36 -3 -14 -13 10
-25 23 -25 30 0 7 -7 10 -16 6 -13 -5 -15 -1 -9 18 4 16 3 20 -3 10 -7 -9 -11
-10 -17 -2 -5 9 -10 9 -21 0 -17 -14 -19 2 -1 20 10 10 9 12 -3 9 -8 -2 -20
-9 -25 -16 -9 -11 -14 -10 -26 5 -13 16 -13 17 4 4 11 -9 17 -10 17 -2 0 6 -3
11 -7 12 -5 0 -16 2 -26 4 -9 2 -15 -1 -12 -6 4 -5 -1 -6 -9 -3 -9 3 -13 10
-10 15 3 5 0 9 -5 9 -6 0 -11 -8 -11 -17 0 -13 -3 -14 -12 -5 -7 7 -17 8 -29
2 -13 -7 -22 -6 -33 6 -15 14 -16 14 -17 -3 -1 -17 -2 -17 -6 0 -2 9 -9 15
-14 12 -5 -4 -9 3 -9 13 0 11 -8 23 -17 27 -15 5 -16 4 -5 -6 6 -7 12 -17 12
-22 0 -5 -7 -2 -15 7 -8 8 -15 22 -15 30 0 10 -6 13 -15 10 -8 -4 -12 -11 -8
-17 3 -6 1 -7 -6 -3 -6 4 -9 11 -6 16 3 4 2 10 -2 13 -5 2 -2 2 5 0 7 -1 10 2
6 8 -3 6 -15 9 -25 6 -10 -3 -22 0 -26 5 -3 7 -1 8 5 4 7 -4 12 -1 12 9 0 9
-4 14 -9 11 -5 -3 -15 2 -22 11 -8 9 -9 14 -3 10 7 -4 14 1 16 11 3 11 0 19
-8 19 -7 0 -11 -4 -8 -9 3 -4 -2 -5 -11 -1 -13 4 -14 8 -4 14 10 6 10 11 0 22
-9 12 -9 17 0 23 7 4 9 3 5 -4 -3 -6 -2 -13 3 -16 20 -13 20 13 0 27 l-21 15
21 7 c23 7 27 20 9 31 -6 4 -8 3 -4 -4 3 -6 1 -14 -5 -18 -8 -4 -9 -3 -5 4 4
7 1 12 -6 13 -10 0 -10 2 0 6 6 2 9 10 6 15 -4 6 -2 8 3 5 12 -8 26 20 17 34
-3 5 0 9 6 9 6 0 8 5 5 11 -4 5 1 19 11 30 9 10 13 19 8 19 -5 0 -1 5 9 11 9
6 15 14 12 20 -3 5 1 6 9 3 9 -3 13 -11 9 -17 -3 -6 -1 -7 5 -3 6 3 9 15 7 26
-3 18 -1 19 18 8 19 -10 20 -9 10 3 -10 12 -7 15 20 14 18 0 39 -4 47 -9 8 -5
12 -6 8 -1 -4 4 -3 13 2 20 7 8 5 12 -5 12 -8 0 -11 -5 -8 -10 3 -6 1 -7 -6
-3 -6 4 -9 12 -5 17 3 5 10 7 15 4 5 -4 9 0 10 7 0 10 2 10 6 1 2 -7 9 -13 14
-13 6 0 7 5 4 10 -3 6 -1 10 4 10 6 0 11 -7 11 -15 0 -8 -4 -15 -10 -15 -5 0
-10 -5 -10 -11 0 -8 4 -8 13 -2 6 6 20 9 30 7 12 -1 17 2 13 11 -3 9 0 12 10
8 7 -3 14 0 14 7 0 6 5 8 11 4 8 -5 6 -10 -5 -16 -9 -5 -16 -14 -16 -21 0 -8
3 -8 9 2 7 11 11 10 21 -5 10 -16 11 -16 6 -1 -6 20 9 23 17 3 4 -10 15 -13
34 -10 27 5 27 4 8 -9 -19 -14 -18 -15 8 -10 17 3 27 1 27 -6 0 -7 5 -9 12 -5
7 5 8 3 3 -5 -5 -9 -10 -10 -18 -2 -6 6 -16 11 -22 11 -5 0 -2 -5 8 -11 9 -6
15 -15 11 -21 -4 -6 1 -6 14 1 26 14 32 14 32 0 0 -5 -4 -7 -10 -4 -5 3 -10
-1 -10 -10 0 -11 5 -15 15 -12 11 5 12 1 5 -19 -7 -19 -7 -24 3 -22 13 3 17
-3 17 -28 0 -8 -4 -13 -8 -10 -5 3 -9 -1 -9 -9 0 -22 12 -18 25 8 6 12 11 16
11 9 1 -7 -4 -22 -9 -33 -10 -18 3 -29 13 -11 2 4 2 2 1 -5 -2 -6 2 -14 9 -17
7 -4 -1 -4 -18 0 -28 5 -29 5 -10 -9 11 -9 24 -13 29 -10 5 4 6 1 3 -4 -4 -6
-19 -8 -34 -6 -26 4 -27 3 -8 -9 24 -15 31 -73 13 -96 -10 -12 -10 -14 0 -8 6
4 12 3 12 -2 0 -6 7 -13 16 -16 8 -3 12 -2 9 4 -3 6 -1 10 4 10 6 0 11 -7 11
-15 0 -9 6 -12 17 -8 11 4 14 3 9 -5 -4 -7 -2 -12 4 -12 6 0 8 -6 4 -12 -4 -7
-4 -10 1 -6 9 9 37 -11 30 -21 -2 -4 2 -8 10 -8 13 0 12 4 -2 19 -9 10 -12 18
-6 18 5 0 16 -11 23 -25 7 -14 18 -25 23 -25 5 0 5 -6 -1 -13 -14 -16 43 -81
61 -70 7 4 6 -1 -2 -10 -8 -10 -11 -20 -7 -24 3 -3 6 -2 6 4 0 6 7 14 16 17
14 5 15 4 4 -9 -10 -12 -10 -18 0 -30 7 -8 17 -12 24 -8 6 4 5 -1 -3 -10 -14
-18 -26 -23 -16 -8 3 5 2 12 -3 15 -4 2 -9 -5 -9 -16 -2 -15 3 -19 17 -15 11
3 19 2 18 -2 -2 -18 3 -32 10 -27 5 3 9 -1 9 -9 0 -11 -4 -12 -13 -4 -8 7 -14
6 -20 -2 -4 -7 -3 -9 3 -6 6 4 14 0 17 -9 11 -28 6 -39 -9 -20 -8 11 -15 15
-15 9 0 -6 7 -16 15 -23 9 -7 13 -23 11 -36 -3 -14 -1 -22 5 -19 5 4 7 10 5
14 -3 4 1 8 8 8 11 0 12 -4 3 -20 -10 -15 -9 -21 2 -25 11 -3 11 -6 0 -12 -7
-5 -14 -16 -15 -24 -1 -9 2 -14 6 -11 5 3 12 0 16 -6 4 -8 3 -9 -4 -5 -7 4
-12 1 -12 -8 0 -8 3 -16 8 -19 4 -2 2 -2 -5 -1 -8 2 -11 -7 -8 -28 2 -16 1
-27 -2 -24 -3 3 -12 -2 -20 -12 -10 -12 -10 -8 1 15 12 23 13 34 4 39 -7 4 -8
3 -4 -4 4 -7 2 -12 -4 -12 -6 0 -9 -4 -5 -9 3 -6 -1 -16 -8 -23 -12 -11 -12
-14 1 -24 10 -7 12 -16 6 -25 -5 -8 -9 -21 -9 -29 0 -8 -8 -14 -18 -14 -10 1
-16 -3 -14 -10 3 -6 10 -10 16 -8 7 1 10 -2 6 -8 -3 -6 -11 -7 -17 -4 -7 5 -9
1 -5 -9 4 -11 1 -15 -13 -12 -23 4 -36 -10 -19 -21 8 -5 9 -3 4 6 -5 9 -4 11
4 6 6 -4 9 -12 5 -17 -3 -5 -10 -7 -15 -4 -5 4 -9 -1 -9 -10 0 -9 -8 -27 -19
-40 -14 -19 -21 -21 -31 -12 -10 9 -11 9 -5 -2 6 -11 4 -13 -9 -8 -11 5 -15 3
-10 -5 5 -7 2 -9 -8 -6 -8 4 -15 0 -15 -8 0 -7 4 -11 9 -8 4 3 8 0 8 -5 0 -6
-9 -11 -21 -11 -14 0 -19 -5 -16 -14 4 -10 1 -13 -8 -9 -8 3 -13 8 -11 12 3 4
-4 7 -14 7 -18 0 -18 -1 -3 -19 16 -17 16 -17 -2 -11 -14 6 -16 4 -10 -6 5 -9
4 -11 -4 -6 -6 4 -8 13 -5 19 4 7 -2 4 -12 -6 -16 -15 -17 -19 -4 -27 9 -6 10
-10 3 -10 -6 0 -15 5 -19 12 -5 8 -9 6 -14 -7 -7 -21 -46 -27 -75 -12 -19 10
-19 9 -5 -9 15 -18 14 -18 -11 -2 -24 15 -27 15 -44 0 -17 -16 -17 -16 -12 1
5 14 3 16 -12 8 -12 -7 -22 -6 -30 2 -7 7 -11 8 -9 2 2 -5 -1 -10 -7 -10 -5 0
-9 4 -7 8 1 5 -3 5 -10 0 -7 -4 -21 -6 -30 -5 -10 2 -18 -1 -18 -6 0 -5 11 -8
24 -7 18 2 23 -1 19 -12 -5 -11 -8 -12 -14 -2 -6 10 -11 10 -25 -2 -10 -8 -15
-9 -12 -4 4 6 3 17 -3 25 -7 13 -9 13 -9 0 0 -13 -1 -13 -10 0 -5 8 -10 10
-10 4 0 -7 -11 -14 -24 -16 -15 -3 -23 -1 -20 6 3 7 -4 12 -15 12 -11 0 -17
-4 -15 -8 3 -4 0 -8 -5 -8 -6 0 -11 5 -11 10 0 6 -5 10 -11 10 -5 0 -7 -5 -4
-10 4 -7 -5 -9 -26 -5 -25 5 -30 3 -23 -8 5 -7 1 -4 -8 6 -17 19 -18 19 -18 1
0 -16 -2 -16 -9 -4 -6 8 -7 19 -3 25 3 5 -2 4 -11 -3 -9 -8 -22 -10 -28 -6 -8
4 -9 3 -5 -4 4 -7 2 -12 -3 -12 -6 0 -11 5 -11 10 0 6 -5 10 -11 10 -5 0 -8
-4 -4 -9 3 -5 0 -13 -6 -17 -8 -5 -9 -3 -4 6 6 10 4 12 -8 7 -10 -4 -20 0 -26
11 -6 9 -11 12 -11 5 0 -6 -9 -10 -20 -8 -11 2 -18 0 -15 -6 4 -5 1 -9 -4 -9
-6 0 -11 6 -12 13 0 8 -2 8 -6 -2 -5 -11 -7 -11 -14 0 -7 11 -9 9 -9 -6 -1
-18 -2 -18 -11 3 -5 13 -13 20 -19 17 -7 -4 -6 -14 1 -28 9 -18 6 -17 -15 6
-27 27 -48 38 -27 14 8 -11 6 -13 -12 -11 -12 1 -24 3 -27 4 -3 1 -9 2 -13 1
-5 -1 -6 3 -2 9 3 5 0 13 -8 15 -8 4 -13 20 -13 45 0 21 4 36 8 34 4 -3 8 -1
8 5 0 5 -4 11 -9 13 -5 2 -2 10 7 18 14 13 15 12 9 -3 -4 -11 -3 -16 3 -12 6
3 10 13 10 21 0 8 5 14 11 14 5 0 7 -6 3 -12 -4 -7 -4 -10 1 -6 4 4 15 2 24
-5 14 -10 14 -10 3 5 -9 11 -10 18 -2 23 6 3 8 10 5 15 -3 5 -1 11 4 15 6 3 8
-3 6 -13 -2 -10 1 -25 6 -33 8 -12 10 -12 8 1 -3 31 1 39 17 33 13 -5 13 -7 2
-14 -8 -5 0 -7 20 -4 19 2 32 -1 32 -8 0 -8 3 -8 12 1 9 9 15 9 27 0 9 -7 13
-9 9 -4 -4 4 -1 14 5 21 9 10 16 10 27 2 13 -9 13 -9 2 3 -7 8 -18 15 -25 15
-7 0 -11 8 -9 17 1 9 -8 24 -20 33 -13 10 -16 15 -7 12 9 -3 16 1 16 9 0 7 -5
11 -10 7 -5 -3 -7 3 -3 13 6 19 -34 74 -53 74 -4 0 -8 7 -8 15 0 8 4 12 8 10
4 -3 9 1 12 9 4 11 -1 13 -20 10 l-26 -5 24 21 c13 12 19 19 13 16 -7 -3 -15
1 -18 10 -3 8 -2 13 3 10 5 -3 12 1 15 10 3 8 2 13 -2 11 -4 -3 -14 2 -22 11
-13 14 -12 15 4 9 12 -5 16 -3 13 5 -2 7 -11 12 -18 10 -9 -1 -7 3 4 12 16 12
16 14 2 20 -9 3 -14 2 -11 -3 3 -5 -1 -11 -9 -14 -9 -4 -12 -1 -8 9 3 7 0 14
-6 14 -6 0 -11 -6 -11 -12 0 -8 -3 -9 -8 -3 -12 17 -47 41 -38 28 4 -8 2 -13
-4 -13 -7 0 -9 -7 -5 -17 5 -15 3 -15 -13 2 -11 11 -17 24 -14 29 3 5 0 6 -7
2 -7 -5 -9 -13 -4 -20 4 -7 1 -4 -8 6 -9 9 -19 14 -23 11 -3 -4 -6 1 -6 11 0
9 -4 14 -10 11 -5 -3 -10 0 -10 7 0 9 -3 9 -10 -2 -9 -13 -10 -13 -11 0 -1 8
-1 19 0 23 1 5 -3 6 -8 3 -5 -4 -11 -3 -14 1 -2 5 -2 3 -1 -4 2 -7 0 -15 -5
-17 -4 -3 -8 1 -9 9 -1 8 -3 22 -4 30 -2 17 -25 28 -40 18 -7 -3 -8 -1 -4 5 4
7 2 12 -3 12 -6 0 -11 11 -11 24 0 14 -4 28 -10 31 -5 3 -10 1 -10 -6 0 -7 -3
-9 -7 -6 -3 4 2 16 12 27 17 19 17 19 -2 16 -12 -3 -20 1 -20 9 0 7 6 11 14 8
9 -3 11 0 7 10 -3 8 -1 18 5 22 6 3 11 11 11 17 0 5 -9 0 -20 -13 -10 -13 -19
-19 -20 -14 0 6 5 16 12 23 16 16 -4 16 -22 -1 -8 -6 -6 -2 4 10 10 13 23 20
29 16 6 -3 7 -1 3 6 -4 6 -12 9 -17 6 -5 -4 -9 -2 -9 3 0 5 9 12 20 15 12 3
20 14 20 27 0 13 -4 19 -12 14 -7 -5 -8 -3 -4 5 6 9 13 8 28 -6 21 -18 21 -18
8 7 -7 14 -9 22 -5 18 5 -4 15 -2 23 5 13 10 14 8 8 -13 -4 -14 -4 -20 1 -14
4 6 21 10 36 9 16 -1 31 4 34 11 4 11 8 11 20 -2 12 -12 18 -12 32 -2 9 7 5
-1 -9 -17 -14 -16 -17 -23 -7 -16 15 12 22 12 42 1 13 -7 22 -17 19 -22 -5 -7
17 -13 39 -9 6 1 12 -40 8 -62 -1 -4 7 -3 18 2 10 6 21 8 24 4 4 -3 13 0 22 7
12 10 13 16 4 26 -9 11 -8 14 2 15 10 0 11 2 2 6 -17 6 -17 70 0 77 6 4 1 4
-13 2 -21 -4 -22 -3 -10 7 15 12 24 51 10 42 -5 -3 -12 0 -16 6 -4 8 -3 9 4 5
7 -4 12 -2 12 4 0 6 6 8 13 5 6 -4 1 3 -13 15 l-25 21 25 -5 c14 -3 19 -3 13
0 -7 3 -13 12 -13 20 0 9 -5 12 -12 8 -7 -4 -8 -3 -4 4 4 7 15 12 24 12 15 0
15 2 2 10 -13 9 -13 11 0 20 8 5 10 10 5 10 -6 0 -17 -6 -24 -12 -11 -11 -11
-9 -1 11 6 12 10 31 7 41 -3 12 1 21 12 23 10 3 7 5 -9 6 l-25 2 25 10 25 10
-25 20 c-15 11 -18 17 -7 13 20 -7 21 -1 6 28 -8 15 -8 19 0 14 13 -8 14 -4 5
18 -3 9 -10 13 -15 10 -5 -3 -6 2 -3 11 5 11 10 13 19 5 10 -9 13 -7 11 6 -1
9 -11 23 -21 30 -18 13 -18 14 4 14 12 0 19 4 16 10 -4 6 -10 8 -15 5 -5 -3
-12 0 -16 6 -4 8 -3 9 4 5 7 -4 12 -2 12 4 0 6 5 8 12 4 7 -4 8 -3 4 4 -4 6
-14 9 -24 6 -10 -4 -13 -2 -7 3 10 8 12 15 18 51 1 9 6 22 10 29 4 6 3 14 -2
18 -10 6 -7 37 5 57 5 7 3 8 -5 3 -9 -5 -12 0 -9 16 2 16 -2 23 -10 21 -8 -1
-11 2 -8 7 4 5 15 8 26 6 17 -3 18 -1 10 15 -9 16 -7 18 10 15 11 -2 25 -7 30
-10 6 -4 9 -1 8 7 -2 8 8 14 26 16 15 2 26 0 23 -5 -3 -5 3 -9 13 -9 16 0 16
2 3 26 -13 21 -13 22 0 8 8 -10 24 -18 36 -18z m131 -20 c0 -5 -2 -10 -4 -10
-3 0 -8 5 -11 10 -3 6 -1 10 4 10 6 0 11 -4 11 -10z m-304 -102 c-2 -13 1 -28
6 -35 10 -12 -8 -30 -19 -19 -4 3 -1 6 6 6 7 0 9 5 4 13 -10 17 -12 57 -2 57
5 0 7 -10 5 -22z m541 -200 c-3 -8 -6 -5 -6 6 -1 11 2 17 5 13 3 -3 4 -12 1
-19z m-532 -8 c3 -6 -1 -7 -9 -4 -18 7 -21 14 -7 14 6 0 13 -4 16 -10z m435 0
c0 -5 -4 -10 -10 -10 -5 0 -10 5 -10 10 0 6 5 10 10 10 6 0 10 -4 10 -10z
m201 -13 c-10 -9 -11 -8 -5 6 3 10 9 15 12 12 3 -3 0 -11 -7 -18z m-438 -24
c-6 -2 -9 -15 -7 -29 2 -13 0 -24 -5 -24 -5 0 -8 8 -6 18 1 9 -1 24 -6 34 -7
13 -5 15 13 10 13 -3 17 -7 11 -9z m-196 -99 c-3 -3 -12 -4 -19 -1 -8 3 -5 6
6 6 11 1 17 -2 13 -5z m193 -4 c0 -5 -2 -10 -4 -10 -3 0 -8 5 -11 10 -3 6 -1
10 4 10 6 0 11 -4 11 -10z m-1059 -73 c-6 -8 -8 -16 -5 -19 3 -3 1 -9 -4 -12
-6 -3 -9 0 -8 6 2 16 15 38 23 38 3 0 0 -6 -6 -13z m1656 -162 c0 -8 -4 -12
-9 -9 -5 3 -6 10 -3 15 9 13 12 11 12 -6z m-598 -33 c7 -14 6 -18 -9 -18 -13
0 -16 4 -10 12 6 6 7 14 3 17 -3 4 -3 7 0 7 3 0 11 -8 16 -18z m-415 -10 c3
-5 -1 -9 -9 -9 -8 0 -12 4 -9 9 3 4 7 8 9 8 2 0 6 -4 9 -8z m1101 -10 c-3 -3
-11 0 -18 7 -9 10 -8 11 6 5 10 -3 15 -9 12 -12z m-885 -66 c0 -3 -4 -8 -10
-11 -5 -3 -10 -1 -10 4 0 6 5 11 10 11 6 0 10 -2 10 -4z m1615 -6 c3 -5 -1
-10 -10 -10 -9 0 -13 5 -10 10 3 6 8 10 10 10 2 0 7 -4 10 -10z m-1635 -25 c0
-2 -6 -5 -13 -8 -8 -3 -14 1 -14 8 0 7 6 11 14 8 7 -3 13 -6 13 -8z m1004 -34
c-5 -6 -44 35 -44 46 0 4 11 -4 24 -17 13 -14 22 -27 20 -29z m-974 35 c0 -3
-4 -8 -10 -11 -5 -3 -10 -1 -10 4 0 6 5 11 10 11 6 0 10 -2 10 -4z m670 -17
c0 -5 -4 -9 -8 -9 -5 0 -9 7 -9 15 0 8 4 12 9 9 4 -3 8 -9 8 -15z m-1565 -169
c3 -5 1 -10 -4 -10 -6 0 -11 5 -11 10 0 6 2 10 4 10 3 0 8 -4 11 -10z m1959
-61 c-3 -5 -10 -7 -15 -3 -5 3 -7 10 -3 15 3 5 10 7 15 3 5 -3 7 -10 3 -15z
m-619 -169 c3 -5 1 -10 -4 -10 -6 0 -11 5 -11 10 0 6 2 10 4 10 3 0 8 -4 11
-10z m-395 -122 c0 -5 -6 -8 -12 -5 -7 2 -13 8 -13 13 0 5 -4 16 -9 24 -6 9
-1 7 12 -4 12 -11 22 -23 22 -28z m-45 22 c3 -5 1 -10 -4 -10 -6 0 -11 5 -11
10 0 6 2 10 4 10 3 0 8 -4 11 -10z m1468 -24 c4 -10 1 -13 -8 -9 -8 3 -12 9
-9 14 7 12 11 11 17 -5z m-1406 -80 c-3 -7 -1 -18 5 -24 6 -6 6 -12 -3 -17 -7
-5 -10 -4 -5 3 3 5 1 12 -5 14 -10 3 -3 38 8 38 3 0 3 -6 0 -14z m613 -1 c0
-2 -6 -8 -13 -14 -10 -8 -14 -7 -14 2 0 8 6 14 14 14 7 0 13 -1 13 -2z m-635
-34 c3 -6 -4 -9 -15 -8 -11 1 -20 5 -20 9 0 11 28 10 35 -1z m1330 -81 c-3 -5
-11 -10 -16 -10 -6 0 -7 5 -4 10 3 6 11 10 16 10 6 0 7 -4 4 -10z m-1285 -106
c0 -8 -19 -13 -24 -6 -3 5 1 9 9 9 8 0 15 -2 15 -3z m460 0 c0 -8 -19 -13 -24
-6 -3 5 1 9 9 9 8 0 15 -2 15 -3z m-1005 -114 c-3 -5 -1 -10 6 -10 7 0 10 -3
6 -6 -9 -9 -28 6 -22 17 4 5 8 9 11 9 3 0 2 -4 -1 -10z m43 -65 c-3 -3 -9 2
-12 12 -6 14 -5 15 5 6 7 -7 10 -15 7 -18z m192 -95 c0 7 3 11 6 7 3 -3 3 -11
-1 -17 -8 -12 -45 15 -45 33 0 6 9 0 20 -13 12 -13 20 -18 20 -10z m1149 4
c-14 -13 -17 -13 -30 3 -13 16 -12 17 3 4 15 -11 19 -11 24 3 4 9 9 14 12 11
3 -3 -1 -12 -9 -21z m-899 -100 c0 -8 -19 -13 -24 -6 -3 5 1 9 9 9 8 0 15 -2
15 -3z m55 -14 c3 -5 1 -10 -4 -10 -6 0 -11 5 -11 10 0 6 2 10 4 10 3 0 8 -4
11 -10z m330 -10 c4 -6 -1 -7 -11 -3 -10 4 -15 2 -11 -4 3 -5 0 -10 -8 -10
-18 0 -20 13 -2 20 19 8 25 8 32 -3z"/>
<path d="M1334 2572 c4 -3 14 -7 22 -8 9 -1 13 0 10 4 -4 3 -14 7 -22 8 -9 1
-13 0 -10 -4z"/>
<path d="M1140 1959 c0 -5 5 -7 10 -4 6 3 10 8 10 11 0 2 -4 4 -10 4 -5 0 -10
-5 -10 -11z"/>
<path d="M1110 1909 c0 -5 -4 -8 -8 -5 -4 2 -9 -5 -9 -16 -1 -11 -1 -19 0 -17
1 2 11 14 21 27 11 12 14 22 8 22 -7 0 -12 -5 -12 -11z"/>
<path d="M1261 1728 c-15 -24 -16 -28 -3 -28 4 0 7 6 7 13 1 6 6 11 13 10 6
-2 9 4 6 12 -8 19 -7 19 -23 -7z"/>
<path d="M1070 1719 c0 -5 5 -7 10 -4 6 3 10 8 10 11 0 2 -4 4 -10 4 -5 0 -10
-5 -10 -11z"/>
<path d="M1437 1666 c4 -14 3 -17 -6 -12 -8 5 -14 1 -18 -13 -3 -11 -10 -18
-16 -14 -6 3 -7 1 -3 -5 4 -7 2 -12 -3 -12 -6 0 -11 -5 -11 -11 0 -5 4 -8 9
-4 5 3 13 0 17 -6 5 -8 3 -9 -6 -4 -9 6 -10 2 -5 -15 5 -17 4 -21 -5 -15 -9 5
-11 4 -6 -4 4 -6 12 -9 17 -6 5 4 9 1 9 -4 0 -6 -6 -11 -12 -11 -8 0 -6 -5 4
-10 20 -12 50 -2 42 14 -3 6 2 2 10 -8 9 -11 16 -14 16 -7 0 7 5 9 12 5 8 -5
9 -2 4 11 -5 14 -4 16 7 7 17 -15 28 -5 19 16 -5 14 -3 15 9 5 12 -10 15 -7
14 19 0 18 -6 33 -12 35 -7 3 -9 12 -6 21 4 13 2 13 -11 -3 -14 -16 -16 -16
-12 -3 2 9 -3 22 -12 30 -11 9 -14 10 -8 1 11 -20 -15 -15 -30 5 -13 16 -14
16 -7 -2z m93 -60 c0 -2 -7 -6 -15 -10 -8 -3 -15 -1 -15 4 0 6 7 10 15 10 8 0
15 -2 15 -4z"/>
<path d="M1096 1647 c3 -10 9 -15 12 -12 3 3 0 11 -7 18 -10 9 -11 8 -5 -6z"/>
<path d="M1097 1593 c-10 -9 -9 -23 1 -23 5 0 9 7 9 15 0 17 -1 18 -10 8z"/>
<path d="M1080 1540 c-9 -6 -10 -10 -3 -10 6 0 15 5 18 10 8 12 4 12 -15 0z"/>
<path d="M1670 1526 c0 -2 7 -19 15 -37 14 -33 14 -33 12 -6 -1 15 -5 27 -10
27 -4 0 -5 5 -2 10 3 6 1 10 -4 10 -6 0 -11 -2 -11 -4z"/>
<path d="M730 1380 c0 -5 5 -10 11 -10 5 0 7 5 4 10 -3 6 -8 10 -11 10 -2 0
-4 -4 -4 -10z"/>
<path d="M790 1351 c0 -6 4 -13 10 -16 6 -3 7 1 4 9 -7 18 -14 21 -14 7z"/>
<path d="M1406 1338 c3 -5 10 -6 15 -3 13 9 11 12 -6 12 -8 0 -12 -4 -9 -9z"/>
<path d="M1070 1322 c0 -4 10 -9 22 -9 18 -2 20 0 8 7 -18 12 -30 13 -30 2z"/>
<path d="M1376 1202 c-3 -5 1 -9 9 -9 8 0 12 4 9 9 -3 4 -7 8 -9 8 -2 0 -6 -4
-9 -8z"/>
<path d="M627 1139 c7 -7 15 -10 18 -7 3 3 -2 9 -12 12 -14 6 -15 5 -6 -5z"/>
<path d="M1940 1130 c-8 -5 -12 -12 -9 -15 4 -3 12 1 19 10 14 17 11 19 -10 5z"/>
<path d="M1180 1105 c-9 -10 -9 -15 -1 -15 6 0 11 5 11 11 0 5 5 7 12 3 7 -4
8 -3 4 4 -9 15 -11 15 -26 -3z"/>
<path d="M1970 980 c0 -5 5 -10 11 -10 5 0 7 5 4 10 -3 6 -8 10 -11 10 -2 0
-4 -4 -4 -10z"/>
<path d="M1960 920 c0 -5 5 -10 11 -10 5 0 7 5 4 10 -3 6 -8 10 -11 10 -2 0
-4 -4 -4 -10z"/>
<path d="M1176 822 c-3 -4 4 -9 15 -9 23 -2 25 3 4 10 -8 4 -16 3 -19 -1z"/>
<path d="M1750 769 c0 -5 5 -7 10 -4 6 3 10 8 10 11 0 2 -4 4 -10 4 -5 0 -10
-5 -10 -11z"/>
<path d="M1926 767 c3 -10 9 -15 12 -12 3 3 0 11 -7 18 -10 9 -11 8 -5 -6z"/>
<path d="M1356 642 c-3 -5 1 -9 9 -9 8 0 12 4 9 9 -3 4 -7 8 -9 8 -2 0 -6 -4
-9 -8z"/>
<path d="M1535 640 c3 -5 8 -10 11 -10 2 0 4 5 4 10 0 6 -5 10 -11 10 -5 0 -7
-4 -4 -10z"/>
<path d="M1841 633 c-7 -8 -11 -16 -8 -19 2 -2 10 2 17 11 17 20 9 27 -9 8z"/>
<path d="M1443 633 c-17 -6 -17 -20 0 -20 8 0 14 6 14 14 0 7 -1 13 -1 12 -1
0 -7 -3 -13 -6z"/>
<path d="M1505 620 c-3 -6 1 -7 9 -4 18 7 21 14 7 14 -6 0 -13 -4 -16 -10z"/>
<path d="M820 485 c13 -14 25 -25 27 -25 9 0 -33 49 -41 50 -5 0 1 -11 14 -25z"/>
<path d="M1315 470 c-3 -5 -1 -10 4 -10 6 0 11 5 11 10 0 6 -2 10 -4 10 -3 0
-8 -4 -11 -10z"/>
<path d="M1084 2579 c-4 -7 -3 -9 4 -5 6 3 13 -2 15 -11 4 -16 5 -16 6 -1 1
21 -15 32 -25 17z"/>
<path d="M1034 2558 c-3 -5 -3 -12 0 -15 3 -4 6 -1 6 7 0 9 4 10 13 2 8 -7 18
-7 27 -2 8 6 11 10 5 11 -5 0 -18 2 -27 4 -10 2 -21 -1 -24 -7z"/>
<path d="M1571 2546 c2 -2 14 -8 25 -14 18 -9 25 -8 35 6 12 15 12 15 -1 5
-10 -8 -21 -9 -30 -3 -14 9 -38 14 -29 6z"/>
<path d="M1760 2486 c0 -2 8 -10 18 -17 15 -13 16 -12 3 4 -13 16 -21 21 -21
13z"/>
<path d="M2295 2080 c3 -5 8 -10 11 -10 2 0 4 5 4 10 0 6 -5 10 -11 10 -5 0
-7 -4 -4 -10z"/>
<path d="M2357 1968 c9 -10 21 -18 27 -18 6 0 5 4 -3 9 -7 5 -11 13 -8 18 3 5
-3 9 -13 9 -18 0 -18 -2 -3 -18z"/>
<path d="M2385 1931 c-6 -11 13 -26 22 -17 4 3 1 6 -6 6 -7 0 -9 5 -6 10 3 6
4 10 1 10 -3 0 -7 -4 -11 -9z"/>
<path d="M2494 1662 c0 -10 6 -19 13 -19 8 0 9 6 2 19 -5 10 -11 18 -12 18 -2
0 -3 -8 -3 -18z"/>
<path d="M2529 1608 c-5 -14 -4 -58 1 -58 4 0 7 14 6 30 -1 26 -3 36 -7 28z"/>
<path d="M2536 1487 c3 -10 9 -15 12 -12 3 3 0 11 -7 18 -10 9 -11 8 -5 -6z"/>
<path d="M2550 1359 c0 -5 5 -7 10 -4 6 3 10 8 10 11 0 2 -4 4 -10 4 -5 0 -10
-5 -10 -11z"/>
<path d="M21 1034 c0 -11 3 -14 6 -6 3 7 2 16 -1 19 -3 4 -6 -2 -5 -13z"/>
<path d="M211 586 c2 -2 15 -9 29 -15 24 -11 24 -11 6 3 -16 13 -49 24 -35 12z"/>
<path d="M427 357 c-3 -8 1 -14 8 -14 7 0 11 6 8 14 -3 7 -6 13 -8 13 -2 0 -5
-6 -8 -13z"/>
<path d="M580 219 c0 -5 5 -7 10 -4 6 3 10 8 10 11 0 2 -4 4 -10 4 -5 0 -10
-5 -10 -11z"/>
<path d="M1945 209 c-4 -6 -5 -12 -2 -15 2 -3 7 2 10 11 7 17 1 20 -8 4z"/>
<path d="M1706 97 c3 -10 9 -15 12 -12 3 3 0 11 -7 18 -10 9 -11 8 -5 -6z"/>
<path d="M1405 49 c-4 -6 -5 -12 -2 -15 2 -3 7 2 10 11 7 17 1 20 -8 4z"/>
<path d="M1376 33 c-5 -15 -14 -20 -31 -18 -13 1 -22 -2 -19 -6 13 -22 70 8
62 33 -3 8 -7 5 -12 -9z"/>
</g>
</svg>
